M48
; DRILL file {KiCad 9.0.4} date 2025-09-12T08:49:25+0200
; FORMAT={-:-/ absolute / inch / decimal}
; #@! TF.CreationDate,2025-09-12T08:49:25+02:00
; #@! TF.GenerationSoftware,Kicad,Pcbnew,9.0.4
; #@! TF.FileFunction,Plated,1,2,PTH
FMAT,2
INCH
; #@! TA.AperFunction,Plated,PTH,ComponentDrill
T1C0.0079
; #@! TA.AperFunction,Plated,PTH,ViaDrill
T2C0.0118
; #@! TA.AperFunction,Plated,PTH,ComponentDrill
T3C0.0354
; #@! TA.AperFunction,Plated,PTH,ComponentDrill
T4C0.0512
%
G90
G05
T1
X5.3775Y-2.9169
X5.3775Y-2.972
X5.405Y-2.8894
X5.405Y-2.9445
X5.405Y-2.9996
X5.4326Y-2.9169
X5.4326Y-2.972
X5.4601Y-2.8894
X5.4601Y-2.9445
X5.4601Y-2.9996
X5.4877Y-2.9169
X5.4877Y-2.972
T2
X4.4449Y-2.937
X4.4567Y-3.6614
X4.6181Y-2.9134
X4.64Y-3.8661
X4.6772Y-3.7008
X4.6811Y-3.626
X4.689Y-3.7441
X4.7008Y-3.9449
X4.7283Y-3.7441
X4.7581Y-3.8636
X4.9055Y-2.9094
X4.9213Y-3.5039
X4.9465Y-2.9907
X4.9606Y-3.4646
X5.0118Y-3.5394
X5.1772Y-2.7047
X5.1929Y-2.8386
X5.3504Y-3.7283
X5.587Y-3.2406
X5.6024Y-3.0551
X5.8268Y-3.2559
X5.9031Y-2.9985
X5.9291Y-2.8661
X6.0118Y-3.126
X6.0472Y-3.2047
X6.0512Y-3.7559
X6.0827Y-2.6614
X6.1063Y-3.2717
X6.2205Y-2.7323
T3
X5.1748Y-3.5689
X5.2248Y-3.4689
X5.2748Y-3.5689
X5.3248Y-3.4689
X5.3748Y-3.5689
X5.4248Y-3.4689
X5.4748Y-3.5689
X5.5248Y-3.4689
X5.861Y-3.5728
X5.911Y-3.4728
X5.961Y-3.5728
X6.011Y-3.4728
X6.061Y-3.5728
X6.111Y-3.4728
X6.161Y-3.5728
X6.211Y-3.4728
T4
X4.252Y-3.252
X4.252Y-3.4488
M30
