%TF.GenerationSoftware,KiCad,Pcbnew,9.0.4*%
%TF.CreationDate,2025-09-12T08:49:21+02:00*%
%TF.ProjectId,inverter comms,696e7665-7274-4657-9220-636f6d6d732e,rev?*%
%TF.SameCoordinates,Original*%
%TF.FileFunction,Soldermask,Bot*%
%TF.FilePolarity,Negative*%
%FSLAX46Y46*%
G04 Gerber Fmt 4.6, Leading zero omitted, Abs format (unit mm)*
G04 Created by KiCad (PCBNEW 9.0.4) date 2025-09-12 08:49:21*
%MOMM*%
%LPD*%
G01*
G04 APERTURE LIST*
G04 Aperture macros list*
%AMRoundRect*
0 Rectangle with rounded corners*
0 $1 Rounding radius*
0 $2 $3 $4 $5 $6 $7 $8 $9 X,Y pos of 4 corners*
0 Add a 4 corners polygon primitive as box body*
4,1,4,$2,$3,$4,$5,$6,$7,$8,$9,$2,$3,0*
0 Add four circle primitives for the rounded corners*
1,1,$1+$1,$2,$3*
1,1,$1+$1,$4,$5*
1,1,$1+$1,$6,$7*
1,1,$1+$1,$8,$9*
0 Add four rect primitives between the rounded corners*
20,1,$1+$1,$2,$3,$4,$5,0*
20,1,$1+$1,$4,$5,$6,$7,0*
20,1,$1+$1,$6,$7,$8,$9,0*
20,1,$1+$1,$8,$9,$2,$3,0*%
G04 Aperture macros list end*
%ADD10C,3.650000*%
%ADD11R,1.500000X1.500000*%
%ADD12C,1.500000*%
%ADD13C,3.200000*%
%ADD14RoundRect,0.250001X1.149999X-1.149999X1.149999X1.149999X-1.149999X1.149999X-1.149999X-1.149999X0*%
%ADD15C,2.800000*%
%ADD16C,0.650000*%
%ADD17R,1.500000X0.900000*%
%ADD18R,0.900000X1.500000*%
%ADD19C,0.600000*%
%ADD20R,3.900000X3.900000*%
%ADD21R,1.550000X0.600000*%
%ADD22RoundRect,0.250000X-0.625000X0.312500X-0.625000X-0.312500X0.625000X-0.312500X0.625000X0.312500X0*%
%ADD23RoundRect,0.112500X0.237500X-0.112500X0.237500X0.112500X-0.237500X0.112500X-0.237500X-0.112500X0*%
%ADD24RoundRect,0.112500X0.112500X0.237500X-0.112500X0.237500X-0.112500X-0.237500X0.112500X-0.237500X0*%
%ADD25RoundRect,0.112500X-0.237500X0.112500X-0.237500X-0.112500X0.237500X-0.112500X0.237500X0.112500X0*%
%ADD26RoundRect,0.250000X-0.312500X-0.625000X0.312500X-0.625000X0.312500X0.625000X-0.312500X0.625000X0*%
G04 APERTURE END LIST*
D10*
%TO.C,J1*%
X147600000Y-97100000D03*
X159030000Y-97100000D03*
D11*
X148870000Y-90750000D03*
D12*
X150140000Y-88210000D03*
X151410000Y-90750000D03*
X152680000Y-88210000D03*
X153950000Y-90750000D03*
X155220000Y-88210000D03*
X156490000Y-90750000D03*
X157760000Y-88210000D03*
%TD*%
D13*
%TO.C,H3*%
X107600000Y-96600000D03*
%TD*%
D14*
%TO.C,J4*%
X108000000Y-87600000D03*
D15*
X108000000Y-82600000D03*
%TD*%
D16*
%TO.C,J3*%
X116215000Y-97805000D03*
X121995000Y-97805000D03*
%TD*%
D13*
%TO.C,H4*%
X166600000Y-96800000D03*
%TD*%
D10*
%TO.C,J2*%
X130170000Y-97000000D03*
X141600000Y-97000000D03*
D11*
X131440000Y-90650000D03*
D12*
X132710000Y-88110000D03*
X133980000Y-90650000D03*
X135250000Y-88110000D03*
X136520000Y-90650000D03*
X137790000Y-88110000D03*
X139060000Y-90650000D03*
X140330000Y-88110000D03*
%TD*%
D13*
%TO.C,H2*%
X166400000Y-72800000D03*
%TD*%
%TO.C,H1*%
X107400000Y-72600000D03*
%TD*%
D17*
%TO.C,U1*%
X145237500Y-67070000D03*
X145237500Y-68340000D03*
X145237500Y-69610000D03*
X145237500Y-70880000D03*
X145237500Y-72150000D03*
X145237500Y-73420000D03*
X145237500Y-74690000D03*
X145237500Y-75960000D03*
X145237500Y-77230000D03*
X145237500Y-78500000D03*
X145237500Y-79770000D03*
X145237500Y-81040000D03*
X145237500Y-82310000D03*
X145237500Y-83580000D03*
D18*
X143472500Y-84830000D03*
X142202500Y-84830000D03*
X140932500Y-84830000D03*
X139662500Y-84830000D03*
X138392500Y-84830000D03*
X137122500Y-84830000D03*
X135852500Y-84830000D03*
X134582500Y-84830000D03*
X133312500Y-84830000D03*
X132042500Y-84830000D03*
X130772500Y-84830000D03*
X129502500Y-84830000D03*
D17*
X127737500Y-83580000D03*
X127737500Y-82310000D03*
X127737500Y-81040000D03*
X127737500Y-79770000D03*
X127737500Y-78500000D03*
X127737500Y-77230000D03*
X127737500Y-75960000D03*
X127737500Y-74690000D03*
X127737500Y-73420000D03*
X127737500Y-72150000D03*
X127737500Y-70880000D03*
X127737500Y-69610000D03*
X127737500Y-68340000D03*
X127737500Y-67070000D03*
D19*
X139387500Y-75490000D03*
X139387500Y-74090000D03*
X138687500Y-76190000D03*
X138687500Y-74790000D03*
X138687500Y-73390000D03*
X137987500Y-75490000D03*
D20*
X137987500Y-74790000D03*
D19*
X137987500Y-74090000D03*
X137287500Y-76190000D03*
X137287500Y-74790000D03*
X137287500Y-73390000D03*
X136587500Y-75490000D03*
X136587500Y-74090000D03*
%TD*%
D21*
%TO.C,U2*%
X150200000Y-81405000D03*
X150200000Y-80135000D03*
X150200000Y-78865000D03*
X150200000Y-77595000D03*
X155600000Y-77595000D03*
X155600000Y-78865000D03*
X155600000Y-81405000D03*
%TD*%
D22*
%TO.C,R3*%
X121400000Y-99137500D03*
X121400000Y-102062500D03*
%TD*%
%TO.C,C1*%
X148800000Y-68337500D03*
X148800000Y-71262500D03*
%TD*%
%TO.C,R1*%
X117300000Y-99137500D03*
X117300000Y-102062500D03*
%TD*%
D23*
%TO.C,D4*%
X143500000Y-89050000D03*
X143500000Y-87750000D03*
X145500000Y-88400000D03*
%TD*%
D24*
%TO.C,D6*%
X128900000Y-93300000D03*
X127600000Y-93300000D03*
X128250000Y-91300000D03*
%TD*%
D25*
%TO.C,D5*%
X162400000Y-87600000D03*
X162400000Y-88900000D03*
X160400000Y-88250000D03*
%TD*%
D22*
%TO.C,C3*%
X152300000Y-68437500D03*
X152300000Y-71362500D03*
%TD*%
D26*
%TO.C,R10*%
X118775000Y-73800000D03*
X121700000Y-73800000D03*
%TD*%
M02*
