%TF.GenerationSoftware,KiCad,Pcbnew,9.0.4*%
%TF.CreationDate,2025-09-12T11:43:07+02:00*%
%TF.ProjectId,inverter comms,696e7665-7274-4657-9220-636f6d6d732e,rev?*%
%TF.SameCoordinates,Original*%
%TF.FileFunction,Copper,L1,Top*%
%TF.FilePolarity,Positive*%
%FSLAX46Y46*%
G04 Gerber Fmt 4.6, Leading zero omitted, Abs format (unit mm)*
G04 Created by KiCad (PCBNEW 9.0.4) date 2025-09-12 11:43:07*
%MOMM*%
%LPD*%
G01*
G04 APERTURE LIST*
G04 Aperture macros list*
%AMRoundRect*
0 Rectangle with rounded corners*
0 $1 Rounding radius*
0 $2 $3 $4 $5 $6 $7 $8 $9 X,Y pos of 4 corners*
0 Add a 4 corners polygon primitive as box body*
4,1,4,$2,$3,$4,$5,$6,$7,$8,$9,$2,$3,0*
0 Add four circle primitives for the rounded corners*
1,1,$1+$1,$2,$3*
1,1,$1+$1,$4,$5*
1,1,$1+$1,$6,$7*
1,1,$1+$1,$8,$9*
0 Add four rect primitives between the rounded corners*
20,1,$1+$1,$2,$3,$4,$5,0*
20,1,$1+$1,$4,$5,$6,$7,0*
20,1,$1+$1,$6,$7,$8,$9,0*
20,1,$1+$1,$8,$9,$2,$3,0*%
G04 Aperture macros list end*
%ADD10C,0.300000*%
%TA.AperFunction,NonConductor*%
%ADD11C,0.300000*%
%TD*%
%TA.AperFunction,WasherPad*%
%ADD12C,3.650000*%
%TD*%
%TA.AperFunction,ComponentPad*%
%ADD13R,1.500000X1.500000*%
%TD*%
%TA.AperFunction,ComponentPad*%
%ADD14C,1.500000*%
%TD*%
%TA.AperFunction,SMDPad,CuDef*%
%ADD15RoundRect,0.250000X-0.312500X-0.625000X0.312500X-0.625000X0.312500X0.625000X-0.312500X0.625000X0*%
%TD*%
%TA.AperFunction,ComponentPad*%
%ADD16RoundRect,0.250001X1.149999X-1.149999X1.149999X1.149999X-1.149999X1.149999X-1.149999X-1.149999X0*%
%TD*%
%TA.AperFunction,ComponentPad*%
%ADD17C,2.800000*%
%TD*%
%TA.AperFunction,SMDPad,CuDef*%
%ADD18RoundRect,0.250000X-0.412500X-0.650000X0.412500X-0.650000X0.412500X0.650000X-0.412500X0.650000X0*%
%TD*%
%TA.AperFunction,SMDPad,CuDef*%
%ADD19RoundRect,0.112500X-0.237500X0.112500X-0.237500X-0.112500X0.237500X-0.112500X0.237500X0.112500X0*%
%TD*%
%TA.AperFunction,SMDPad,CuDef*%
%ADD20RoundRect,0.150000X-0.150000X-0.425000X0.150000X-0.425000X0.150000X0.425000X-0.150000X0.425000X0*%
%TD*%
%TA.AperFunction,SMDPad,CuDef*%
%ADD21RoundRect,0.075000X-0.075000X-0.500000X0.075000X-0.500000X0.075000X0.500000X-0.075000X0.500000X0*%
%TD*%
%TA.AperFunction,SMDPad,CuDef*%
%ADD22RoundRect,0.250000X-0.840000X-0.750000X0.840000X-0.750000X0.840000X0.750000X-0.840000X0.750000X0*%
%TD*%
%TA.AperFunction,SMDPad,CuDef*%
%ADD23RoundRect,0.250000X0.350000X-0.850000X0.350000X0.850000X-0.350000X0.850000X-0.350000X-0.850000X0*%
%TD*%
%TA.AperFunction,SMDPad,CuDef*%
%ADD24RoundRect,0.249997X2.650003X-2.950003X2.650003X2.950003X-2.650003X2.950003X-2.650003X-2.950003X0*%
%TD*%
%TA.AperFunction,SMDPad,CuDef*%
%ADD25RoundRect,0.250000X-0.625000X0.312500X-0.625000X-0.312500X0.625000X-0.312500X0.625000X0.312500X0*%
%TD*%
%TA.AperFunction,SMDPad,CuDef*%
%ADD26RoundRect,0.250000X0.625000X-0.312500X0.625000X0.312500X-0.625000X0.312500X-0.625000X-0.312500X0*%
%TD*%
%TA.AperFunction,SMDPad,CuDef*%
%ADD27RoundRect,0.250000X0.312500X0.625000X-0.312500X0.625000X-0.312500X-0.625000X0.312500X-0.625000X0*%
%TD*%
%TA.AperFunction,HeatsinkPad*%
%ADD28C,0.600000*%
%TD*%
%TA.AperFunction,ViaPad*%
%ADD29C,0.600000*%
%TD*%
%TA.AperFunction,Conductor*%
%ADD30C,0.500000*%
%TD*%
%TA.AperFunction,Conductor*%
%ADD31C,0.200000*%
%TD*%
G04 APERTURE END LIST*
D10*
D11*
X123254510Y-67429400D02*
X124397368Y-67429400D01*
X123825939Y-68000828D02*
X123825939Y-66857971D01*
D10*
D11*
X106811653Y-78474400D02*
X109097368Y-78474400D01*
X107954510Y-79617257D02*
X107954510Y-77331542D01*
D12*
%TO.P,J1,*%
%TO.N,*%
X147600000Y-97100000D03*
X159030000Y-97100000D03*
D13*
%TO.P,J1,1*%
%TO.N,BUS B*%
X148870000Y-90750000D03*
D14*
%TO.P,J1,2*%
%TO.N,BUS A*%
X150140000Y-88210000D03*
%TO.P,J1,3*%
%TO.N,GND*%
X151410000Y-90750000D03*
%TO.P,J1,4*%
%TO.N,Net-(J1-Pad4)*%
X152680000Y-88210000D03*
%TO.P,J1,5*%
%TO.N,Net-(J1-Pad5)*%
X153950000Y-90750000D03*
%TO.P,J1,6*%
%TO.N,unconnected-(J1-Pad6)*%
X155220000Y-88210000D03*
%TO.P,J1,7*%
%TO.N,unconnected-(J1-Pad7)*%
X156490000Y-90750000D03*
%TO.P,J1,8*%
%TO.N,unconnected-(J1-Pad8)*%
X157760000Y-88210000D03*
%TD*%
D15*
%TO.P,R4,1*%
%TO.N,+3.3V*%
X156237500Y-69400000D03*
%TO.P,R4,2*%
%TO.N,BUS A*%
X159162500Y-69400000D03*
%TD*%
D16*
%TO.P,J4,1,Pin_1*%
%TO.N,GND*%
X108000000Y-87600000D03*
D17*
%TO.P,J4,2,Pin_2*%
%TO.N,5V*%
X108000000Y-82600000D03*
%TD*%
D18*
%TO.P,C5,1*%
%TO.N,+3.3V*%
X117537500Y-77000000D03*
%TO.P,C5,2*%
%TO.N,GND*%
X120662500Y-77000000D03*
%TD*%
D19*
%TO.P,D2,1*%
%TO.N,GND*%
X129800000Y-78800000D03*
%TO.P,D2,2*%
%TO.N,+3.3V*%
X129800000Y-80100000D03*
%TO.P,D2,3*%
%TO.N,USB D-*%
X131800000Y-79450000D03*
%TD*%
D20*
%TO.P,J3,A1,GND*%
%TO.N,GND*%
X115905000Y-96730000D03*
%TO.P,J3,A4,VBUS*%
%TO.N,5V*%
X116705000Y-96730000D03*
D21*
%TO.P,J3,A5,CC1*%
%TO.N,Net-(J3-CC1)*%
X117855000Y-96730000D03*
%TO.P,J3,A6,D+*%
%TO.N,USB D+*%
X118855000Y-96730000D03*
%TO.P,J3,A7,D-*%
%TO.N,USB D-*%
X119355000Y-96730000D03*
%TO.P,J3,A8*%
%TO.N,N/C*%
X120355000Y-96730000D03*
D20*
%TO.P,J3,A9,VBUS*%
%TO.N,5V*%
X121505000Y-96730000D03*
%TO.P,J3,A12,GND*%
%TO.N,GND*%
X122305000Y-96730000D03*
%TO.P,J3,B1,GND*%
X122305000Y-96730000D03*
%TO.P,J3,B4,VBUS*%
%TO.N,5V*%
X121505000Y-96730000D03*
D21*
%TO.P,J3,B5,CC2*%
%TO.N,Net-(J3-CC2)*%
X120855000Y-96730000D03*
%TO.P,J3,B6,D+*%
%TO.N,USB D+*%
X119855000Y-96730000D03*
%TO.P,J3,B7,D-*%
%TO.N,USB D-*%
X118355000Y-96730000D03*
%TO.P,J3,B8*%
%TO.N,N/C*%
X117355000Y-96730000D03*
D20*
%TO.P,J3,B9,VBUS*%
%TO.N,5V*%
X116705000Y-96730000D03*
%TO.P,J3,B12,GND*%
%TO.N,GND*%
X115905000Y-96730000D03*
D22*
%TO.P,J3,S1,SHIELD*%
X113995000Y-97305000D03*
X113995000Y-101235000D03*
X124215000Y-97305000D03*
X124215000Y-101235000D03*
%TD*%
D23*
%TO.P,U3,1,GND*%
%TO.N,GND*%
X116645000Y-91325000D03*
%TO.P,U3,2,VO*%
%TO.N,+3.3V*%
X118925000Y-91325000D03*
D24*
X118925000Y-85025000D03*
D23*
%TO.P,U3,3,VI*%
%TO.N,5V*%
X121205000Y-91325000D03*
%TD*%
D25*
%TO.P,C4,1*%
%TO.N,Net-(U2-VCC)*%
X159200000Y-75037500D03*
%TO.P,C4,2*%
%TO.N,GND*%
X159200000Y-77962500D03*
%TD*%
D26*
%TO.P,R8,1*%
%TO.N,DIRECTION*%
X133700000Y-76162500D03*
%TO.P,R8,2*%
%TO.N,+3.3V*%
X133700000Y-73237500D03*
%TD*%
D27*
%TO.P,C2,1*%
%TO.N,Net-(U2-VCC)*%
X155662500Y-75300000D03*
%TO.P,C2,2*%
%TO.N,GND*%
X152737500Y-75300000D03*
%TD*%
D26*
%TO.P,R6,1*%
%TO.N,MCU TX*%
X148000000Y-76162500D03*
%TO.P,R6,2*%
%TO.N,+3.3V*%
X148000000Y-73237500D03*
%TD*%
D27*
%TO.P,D3,1,K*%
%TO.N,+3.3V*%
X121962500Y-69000000D03*
%TO.P,D3,2,A*%
%TO.N,Net-(D3-A)*%
X119037500Y-69000000D03*
%TD*%
D12*
%TO.P,J2,*%
%TO.N,*%
X130170000Y-97000000D03*
X141600000Y-97000000D03*
D13*
%TO.P,J2,1*%
%TO.N,unconnected-(J2-Pad1)*%
X131440000Y-90650000D03*
D14*
%TO.P,J2,2*%
%TO.N,unconnected-(J2-Pad2)*%
X132710000Y-88110000D03*
%TO.P,J2,3*%
%TO.N,GND*%
X133980000Y-90650000D03*
%TO.P,J2,4*%
%TO.N,Net-(J1-Pad4)*%
X135250000Y-88110000D03*
%TO.P,J2,5*%
%TO.N,Net-(J1-Pad5)*%
X136520000Y-90650000D03*
%TO.P,J2,6*%
%TO.N,unconnected-(J2-Pad6)*%
X137790000Y-88110000D03*
%TO.P,J2,7*%
%TO.N,unconnected-(J2-Pad7)*%
X139060000Y-90650000D03*
%TO.P,J2,8*%
%TO.N,unconnected-(J2-Pad8)*%
X140330000Y-88110000D03*
%TD*%
D15*
%TO.P,R5,1*%
%TO.N,BUS B*%
X156337500Y-83100000D03*
%TO.P,R5,2*%
%TO.N,GND*%
X159262500Y-83100000D03*
%TD*%
D27*
%TO.P,D1,1,K*%
%TO.N,+3.3V*%
X121862500Y-74000000D03*
%TO.P,D1,2,A*%
%TO.N,Net-(D1-A)*%
X118937500Y-74000000D03*
%TD*%
D26*
%TO.P,R7,1*%
%TO.N,MCU RX*%
X142300000Y-76262500D03*
%TO.P,R7,2*%
%TO.N,+3.3V*%
X142300000Y-73337500D03*
%TD*%
D25*
%TO.P,C6,1*%
%TO.N,5V*%
X124800000Y-91237500D03*
%TO.P,C6,2*%
%TO.N,GND*%
X124800000Y-94162500D03*
%TD*%
D26*
%TO.P,R9,1*%
%TO.N,Net-(D3-A)*%
X113700000Y-70362500D03*
%TO.P,R9,2*%
%TO.N,GND*%
X113700000Y-67437500D03*
%TD*%
D15*
%TO.P,R2,1*%
%TO.N,+3.3V*%
X156237500Y-72400000D03*
%TO.P,R2,2*%
%TO.N,Net-(U2-VCC)*%
X159162500Y-72400000D03*
%TD*%
D28*
%TO.P,U1,41,GND*%
%TO.N,GND*%
X139387500Y-75490000D03*
X139387500Y-74090000D03*
X138687500Y-76190000D03*
X138687500Y-74790000D03*
X138687500Y-73390000D03*
X137987500Y-75490000D03*
X137987500Y-74090000D03*
X137287500Y-76190000D03*
X137287500Y-74790000D03*
X137287500Y-73390000D03*
X136587500Y-75490000D03*
X136587500Y-74090000D03*
%TD*%
D29*
%TO.N,+3.3V*%
X118900000Y-92100000D03*
X131900000Y-72100000D03*
%TO.N,GND*%
X124600000Y-73900000D03*
X153700000Y-95400000D03*
X112900000Y-74600000D03*
X135900000Y-94700000D03*
X131500000Y-68700000D03*
X118800000Y-94000000D03*
X150600000Y-72800000D03*
X119400000Y-100200000D03*
X113200000Y-93000000D03*
X126000000Y-88000000D03*
X154500000Y-67600000D03*
%TO.N,Net-(J3-CC1)*%
X117855000Y-98200000D03*
%TO.N,Net-(J3-CC2)*%
X120856970Y-98136662D03*
%TO.N,BUS B*%
X155100000Y-83100000D03*
%TO.N,BUS A*%
X158000000Y-69400000D03*
%TO.N,MCU TX*%
X149937500Y-76162500D03*
%TO.N,MCU RX*%
X142300000Y-77600000D03*
%TO.N,DIRECTION*%
X152700000Y-79400000D03*
X125640425Y-75964001D03*
%TO.N,USB D+*%
X148000000Y-82700000D03*
X120100000Y-95100000D03*
X127300000Y-89900000D03*
%TO.N,Net-(D1-A)*%
X117300000Y-74000000D03*
%TO.N,USB D-*%
X119100000Y-95100000D03*
X125000000Y-89000000D03*
X141910000Y-82310000D03*
%TO.N,Net-(U2-VCC)*%
X153600000Y-81400000D03*
%TD*%
D30*
%TO.N,+3.3V*%
X121862500Y-74000000D02*
X123000000Y-75137500D01*
X121962500Y-72037500D02*
X121900000Y-72100000D01*
X116237500Y-82337500D02*
X118925000Y-85025000D01*
X123000000Y-80950000D02*
X118925000Y-85025000D01*
X148000000Y-72300000D02*
X148400000Y-71900000D01*
X148000000Y-73237500D02*
X142400000Y-73237500D01*
X142300000Y-73337500D02*
X141062500Y-72100000D01*
X121900000Y-72100000D02*
X131900000Y-72100000D01*
X118925000Y-91325000D02*
X118925000Y-85025000D01*
X133037500Y-73237500D02*
X131900000Y-72100000D01*
X133700000Y-73237500D02*
X133037500Y-73237500D01*
X155737500Y-71900000D02*
X156237500Y-72400000D01*
X142400000Y-73237500D02*
X142300000Y-73337500D01*
X121862500Y-74000000D02*
X121862500Y-72137500D01*
X121862500Y-72137500D02*
X121900000Y-72100000D01*
X117537500Y-77000000D02*
X116237500Y-77000000D01*
X129800000Y-80100000D02*
X123100000Y-80100000D01*
X156237500Y-69400000D02*
X156237500Y-72400000D01*
X118925000Y-92075000D02*
X118900000Y-92100000D01*
X123000000Y-80200000D02*
X123000000Y-80950000D01*
X121962500Y-69000000D02*
X121962500Y-72037500D01*
X118925000Y-91325000D02*
X118925000Y-92075000D01*
X141062500Y-72100000D02*
X131900000Y-72100000D01*
X148400000Y-71900000D02*
X155737500Y-71900000D01*
X148000000Y-73237500D02*
X148000000Y-72300000D01*
X123100000Y-80100000D02*
X123000000Y-80200000D01*
X123000000Y-75137500D02*
X123000000Y-80200000D01*
X116237500Y-77000000D02*
X116237500Y-82337500D01*
%TO.N,GND*%
X132300000Y-93600000D02*
X127900000Y-93600000D01*
X127900000Y-93600000D02*
X127337500Y-94162500D01*
X133980000Y-91920000D02*
X132300000Y-93600000D01*
X127337500Y-94162500D02*
X124800000Y-94162500D01*
X116645000Y-91325000D02*
X116266000Y-91704000D01*
X133980000Y-90650000D02*
X133980000Y-91920000D01*
D31*
%TO.N,Net-(J3-CC1)*%
X117855000Y-96730000D02*
X117855000Y-98200000D01*
%TO.N,Net-(J3-CC2)*%
X120855000Y-98134692D02*
X120856970Y-98136662D01*
X120855000Y-96730000D02*
X120855000Y-98134692D01*
D30*
%TO.N,Net-(D3-A)*%
X117675000Y-70362500D02*
X119037500Y-69000000D01*
X113700000Y-70362500D02*
X117675000Y-70362500D01*
%TO.N,Net-(J1-Pad4)*%
X151100000Y-86500000D02*
X136860000Y-86500000D01*
X152680000Y-88210000D02*
X151200000Y-86730000D01*
X136860000Y-86500000D02*
X135250000Y-88110000D01*
X151200000Y-86600000D02*
X151100000Y-86500000D01*
X151200000Y-86730000D02*
X151200000Y-86600000D01*
%TO.N,BUS B*%
X156337500Y-83100000D02*
X155100000Y-83100000D01*
%TO.N,BUS A*%
X159162500Y-69400000D02*
X158000000Y-69400000D01*
%TO.N,Net-(J1-Pad5)*%
X154100000Y-90900000D02*
X153950000Y-90750000D01*
X154100000Y-91600000D02*
X154100000Y-90900000D01*
X153100000Y-92600000D02*
X154100000Y-91600000D01*
X138470000Y-92600000D02*
X153100000Y-92600000D01*
X136520000Y-90650000D02*
X138470000Y-92600000D01*
%TO.N,MCU TX*%
X148000000Y-76162500D02*
X149937500Y-76162500D01*
%TO.N,MCU RX*%
X142300000Y-76262500D02*
X142300000Y-77600000D01*
%TO.N,DIRECTION*%
X133700000Y-78500000D02*
X133700000Y-76162500D01*
X125838924Y-76162500D02*
X125640425Y-75964001D01*
X133700000Y-76162500D02*
X125838924Y-76162500D01*
X134600000Y-79400000D02*
X133700000Y-78500000D01*
X152700000Y-79400000D02*
X134600000Y-79400000D01*
%TO.N,USB D+*%
X128901000Y-85799000D02*
X127300000Y-87400000D01*
X127300000Y-87400000D02*
X127300000Y-89900000D01*
D31*
X119855000Y-97745000D02*
X119800000Y-97800000D01*
X119800000Y-97800000D02*
X119316176Y-97800000D01*
X118855000Y-97338824D02*
X118855000Y-96730000D01*
X119855000Y-96730000D02*
X119855000Y-97745000D01*
X119855000Y-95345000D02*
X120100000Y-95100000D01*
D30*
X128901000Y-85799000D02*
X144901000Y-85799000D01*
D31*
X119855000Y-96730000D02*
X119855000Y-95345000D01*
D30*
X148000000Y-82700000D02*
X144901000Y-85799000D01*
D31*
X119316176Y-97800000D02*
X118855000Y-97338824D01*
D30*
%TO.N,Net-(D1-A)*%
X118937500Y-74000000D02*
X117300000Y-74000000D01*
%TO.N,USB D-*%
X131800000Y-79450000D02*
X131800000Y-82210000D01*
X125790000Y-82310000D02*
X125000000Y-83100000D01*
X131700000Y-82310000D02*
X125790000Y-82310000D01*
X131800000Y-82210000D02*
X131700000Y-82310000D01*
D31*
X119355000Y-96730000D02*
X119355000Y-95355000D01*
D30*
X125000000Y-83100000D02*
X125000000Y-89000000D01*
D31*
X118355000Y-96730000D02*
X118355000Y-95845000D01*
D30*
X141910000Y-82310000D02*
X131700000Y-82310000D01*
D31*
X118355000Y-95845000D02*
X119100000Y-95100000D01*
X119355000Y-95355000D02*
X119100000Y-95100000D01*
D30*
%TO.N,Net-(U2-VCC)*%
X155662500Y-80137500D02*
X155600000Y-80200000D01*
X155662500Y-75300000D02*
X155662500Y-80137500D01*
X159200000Y-75037500D02*
X155925000Y-75037500D01*
X153600000Y-81400000D02*
X154800000Y-80200000D01*
X159162500Y-75000000D02*
X159200000Y-75037500D01*
X159162500Y-72400000D02*
X159162500Y-75000000D01*
X155925000Y-75037500D02*
X155662500Y-75300000D01*
X154800000Y-80200000D02*
X155600000Y-80200000D01*
%TO.N,5V*%
X121205000Y-91325000D02*
X124712500Y-91325000D01*
X121505000Y-93300000D02*
X121454000Y-93249000D01*
X111900000Y-86500000D02*
X111900000Y-93500000D01*
X121505000Y-91625000D02*
X121505000Y-93300000D01*
X121205000Y-91325000D02*
X121505000Y-91625000D01*
X111900000Y-93500000D02*
X113200000Y-94800000D01*
X121454000Y-93249000D02*
X117251000Y-93249000D01*
X117251000Y-93249000D02*
X116705000Y-93795000D01*
X124712500Y-91325000D02*
X124800000Y-91237500D01*
X108000000Y-82600000D02*
X111900000Y-86500000D01*
X121505000Y-93300000D02*
X121505000Y-96730000D01*
X116705000Y-93795000D02*
X116705000Y-94800000D01*
X113200000Y-94800000D02*
X116705000Y-94800000D01*
X116705000Y-94800000D02*
X116705000Y-96730000D01*
%TD*%
%TA.AperFunction,Conductor*%
%TO.N,GND*%
G36*
X149115090Y-87270185D02*
G01*
X149160845Y-87322989D01*
X149170789Y-87392147D01*
X149148369Y-87447383D01*
X149143131Y-87454595D01*
X149070476Y-87554594D01*
X148981117Y-87729970D01*
X148920290Y-87917173D01*
X148889500Y-88111577D01*
X148889500Y-88308422D01*
X148920290Y-88502826D01*
X148981117Y-88690029D01*
X149020087Y-88766511D01*
X149070476Y-88865405D01*
X149186172Y-89024646D01*
X149325354Y-89163828D01*
X149478619Y-89275182D01*
X149521284Y-89330512D01*
X149527263Y-89400126D01*
X149494657Y-89461921D01*
X149433818Y-89496278D01*
X149405733Y-89499500D01*
X148072129Y-89499500D01*
X148072123Y-89499501D01*
X148012516Y-89505908D01*
X147877671Y-89556202D01*
X147877664Y-89556206D01*
X147762455Y-89642452D01*
X147762452Y-89642455D01*
X147676206Y-89757664D01*
X147676202Y-89757671D01*
X147625908Y-89892517D01*
X147621303Y-89935354D01*
X147619501Y-89952123D01*
X147619500Y-89952135D01*
X147619500Y-91547870D01*
X147619501Y-91547876D01*
X147625908Y-91607483D01*
X147653764Y-91682167D01*
X147658748Y-91751859D01*
X147625263Y-91813182D01*
X147563939Y-91846666D01*
X147537582Y-91849500D01*
X139918140Y-91849500D01*
X139851101Y-91829815D01*
X139805346Y-91777011D01*
X139795402Y-91707853D01*
X139824427Y-91644297D01*
X139845250Y-91625185D01*
X139874646Y-91603828D01*
X140013828Y-91464646D01*
X140129524Y-91305405D01*
X140218884Y-91130025D01*
X140279709Y-90942826D01*
X140310500Y-90748422D01*
X140310500Y-90551577D01*
X140279709Y-90357173D01*
X140228640Y-90200000D01*
X140218884Y-90169975D01*
X140218882Y-90169972D01*
X140218882Y-90169970D01*
X140171743Y-90077455D01*
X140129524Y-89994595D01*
X140013828Y-89835354D01*
X139874646Y-89696172D01*
X139715405Y-89580476D01*
X139540029Y-89491117D01*
X139352826Y-89430290D01*
X139158422Y-89399500D01*
X139158417Y-89399500D01*
X138961583Y-89399500D01*
X138961578Y-89399500D01*
X138767173Y-89430290D01*
X138579970Y-89491117D01*
X138404594Y-89580476D01*
X138319293Y-89642452D01*
X138245354Y-89696172D01*
X138245352Y-89696174D01*
X138245351Y-89696174D01*
X138106174Y-89835351D01*
X138106174Y-89835352D01*
X138106172Y-89835354D01*
X138056485Y-89903741D01*
X137990476Y-89994594D01*
X137900485Y-90171213D01*
X137852511Y-90222009D01*
X137784690Y-90238804D01*
X137718555Y-90216267D01*
X137679515Y-90171213D01*
X137637864Y-90089468D01*
X137589524Y-89994595D01*
X137473828Y-89835354D01*
X137334646Y-89696172D01*
X137175405Y-89580476D01*
X137000029Y-89491117D01*
X136812826Y-89430290D01*
X136618422Y-89399500D01*
X136618417Y-89399500D01*
X136421583Y-89399500D01*
X136421578Y-89399500D01*
X136227173Y-89430290D01*
X136039970Y-89491117D01*
X135864594Y-89580476D01*
X135779293Y-89642452D01*
X135705354Y-89696172D01*
X135705352Y-89696174D01*
X135705351Y-89696174D01*
X135566174Y-89835351D01*
X135566174Y-89835352D01*
X135566172Y-89835354D01*
X135516485Y-89903741D01*
X135450476Y-89994594D01*
X135360204Y-90171764D01*
X135312229Y-90222560D01*
X135244408Y-90239355D01*
X135178274Y-90216818D01*
X135139234Y-90171764D01*
X135049096Y-89994858D01*
X135023678Y-89959873D01*
X135023677Y-89959873D01*
X134422137Y-90561413D01*
X134399333Y-90476306D01*
X134340090Y-90373694D01*
X134256306Y-90289910D01*
X134153694Y-90230667D01*
X134068584Y-90207861D01*
X134670125Y-89606320D01*
X134670125Y-89606319D01*
X134635145Y-89580905D01*
X134459835Y-89491581D01*
X134272705Y-89430778D01*
X134078382Y-89400000D01*
X133881618Y-89400000D01*
X133687294Y-89430778D01*
X133500161Y-89491582D01*
X133324863Y-89580899D01*
X133324859Y-89580902D01*
X133289873Y-89606320D01*
X133289872Y-89606320D01*
X133891415Y-90207861D01*
X133806306Y-90230667D01*
X133703694Y-90289910D01*
X133619910Y-90373694D01*
X133560667Y-90476306D01*
X133537861Y-90561414D01*
X132936320Y-89959872D01*
X132936319Y-89959873D01*
X132914819Y-89989468D01*
X132859490Y-90032135D01*
X132789877Y-90038116D01*
X132728081Y-90005512D01*
X132693722Y-89944674D01*
X132690499Y-89916585D01*
X132690499Y-89852129D01*
X132690498Y-89852123D01*
X132690497Y-89852116D01*
X132684091Y-89792517D01*
X132683391Y-89790641D01*
X132662639Y-89735001D01*
X132633796Y-89657669D01*
X132556647Y-89554611D01*
X132553873Y-89550168D01*
X132545825Y-89521368D01*
X132535373Y-89493347D01*
X132536520Y-89488072D01*
X132535068Y-89482876D01*
X132543867Y-89454297D01*
X132550224Y-89425074D01*
X132554039Y-89421258D01*
X132555628Y-89416100D01*
X132578482Y-89396815D01*
X132599629Y-89375668D01*
X132605241Y-89374235D01*
X132609027Y-89371041D01*
X132626882Y-89368711D01*
X132659057Y-89360500D01*
X132808422Y-89360500D01*
X133002826Y-89329709D01*
X133190025Y-89268884D01*
X133365405Y-89179524D01*
X133524646Y-89063828D01*
X133663828Y-88924646D01*
X133779524Y-88765405D01*
X133794147Y-88736706D01*
X133869515Y-88588787D01*
X133917489Y-88537990D01*
X133985310Y-88521195D01*
X134051445Y-88543732D01*
X134090485Y-88588787D01*
X134180474Y-88765403D01*
X134205600Y-88799985D01*
X134296172Y-88924646D01*
X134435354Y-89063828D01*
X134594595Y-89179524D01*
X134670784Y-89218344D01*
X134769970Y-89268882D01*
X134769972Y-89268882D01*
X134769975Y-89268884D01*
X134866127Y-89300126D01*
X134957173Y-89329709D01*
X135151578Y-89360500D01*
X135151583Y-89360500D01*
X135348422Y-89360500D01*
X135542826Y-89329709D01*
X135730025Y-89268884D01*
X135905405Y-89179524D01*
X136064646Y-89063828D01*
X136203828Y-88924646D01*
X136319524Y-88765405D01*
X136334147Y-88736706D01*
X136409515Y-88588787D01*
X136457489Y-88537990D01*
X136525310Y-88521195D01*
X136591445Y-88543732D01*
X136630485Y-88588787D01*
X136720474Y-88765403D01*
X136745600Y-88799985D01*
X136836172Y-88924646D01*
X136975354Y-89063828D01*
X137134595Y-89179524D01*
X137210784Y-89218344D01*
X137309970Y-89268882D01*
X137309972Y-89268882D01*
X137309975Y-89268884D01*
X137406127Y-89300126D01*
X137497173Y-89329709D01*
X137691578Y-89360500D01*
X137691583Y-89360500D01*
X137888422Y-89360500D01*
X138082826Y-89329709D01*
X138270025Y-89268884D01*
X138445405Y-89179524D01*
X138604646Y-89063828D01*
X138743828Y-88924646D01*
X138859524Y-88765405D01*
X138874147Y-88736706D01*
X138949515Y-88588787D01*
X138997489Y-88537990D01*
X139065310Y-88521195D01*
X139131445Y-88543732D01*
X139170485Y-88588787D01*
X139260474Y-88765403D01*
X139285600Y-88799985D01*
X139376172Y-88924646D01*
X139515354Y-89063828D01*
X139674595Y-89179524D01*
X139750784Y-89218344D01*
X139849970Y-89268882D01*
X139849972Y-89268882D01*
X139849975Y-89268884D01*
X139946127Y-89300126D01*
X140037173Y-89329709D01*
X140231578Y-89360500D01*
X140231583Y-89360500D01*
X140428422Y-89360500D01*
X140622826Y-89329709D01*
X140810025Y-89268884D01*
X140985405Y-89179524D01*
X141144646Y-89063828D01*
X141283828Y-88924646D01*
X141399524Y-88765405D01*
X141488884Y-88590025D01*
X141549709Y-88402826D01*
X141566892Y-88294336D01*
X141580500Y-88208422D01*
X141580500Y-88011577D01*
X141549709Y-87817173D01*
X141503367Y-87674549D01*
X141488884Y-87629975D01*
X141488882Y-87629972D01*
X141488882Y-87629970D01*
X141399523Y-87454593D01*
X141394287Y-87447387D01*
X141370806Y-87381581D01*
X141386630Y-87313527D01*
X141436735Y-87264831D01*
X141494604Y-87250500D01*
X149048051Y-87250500D01*
X149115090Y-87270185D01*
G37*
%TD.AperFunction*%
%TA.AperFunction,Conductor*%
G36*
X150990667Y-90923694D02*
G01*
X151049910Y-91026306D01*
X151133694Y-91110090D01*
X151236306Y-91169333D01*
X151321414Y-91192137D01*
X150700370Y-91813181D01*
X150639047Y-91846666D01*
X150612689Y-91849500D01*
X150202418Y-91849500D01*
X150135379Y-91829815D01*
X150089624Y-91777011D01*
X150079680Y-91707853D01*
X150080250Y-91704264D01*
X150082219Y-91692936D01*
X150114091Y-91607483D01*
X150120500Y-91547873D01*
X150120499Y-91472712D01*
X150122331Y-91462179D01*
X150133233Y-91440047D01*
X150140183Y-91416377D01*
X150148400Y-91409256D01*
X150153206Y-91399501D01*
X150174341Y-91386777D01*
X150192986Y-91370621D01*
X150203749Y-91369073D01*
X150213066Y-91363465D01*
X150237725Y-91364188D01*
X150262144Y-91360677D01*
X150272035Y-91365194D01*
X150282905Y-91365513D01*
X150303259Y-91379453D01*
X150325700Y-91389701D01*
X150338354Y-91403488D01*
X150340551Y-91404993D01*
X150341244Y-91406637D01*
X150344818Y-91410531D01*
X150366319Y-91440125D01*
X150366320Y-91440125D01*
X150967861Y-90838584D01*
X150990667Y-90923694D01*
G37*
%TD.AperFunction*%
%TA.AperFunction,Conductor*%
G36*
X152453678Y-91440126D02*
G01*
X152453678Y-91440125D01*
X152479097Y-91405141D01*
X152569234Y-91228236D01*
X152617208Y-91177439D01*
X152685029Y-91160644D01*
X152751164Y-91183181D01*
X152790204Y-91228235D01*
X152791115Y-91230024D01*
X152791116Y-91230025D01*
X152880341Y-91405141D01*
X152880478Y-91405408D01*
X152966666Y-91524036D01*
X152978115Y-91556125D01*
X152990032Y-91588074D01*
X152989836Y-91588973D01*
X152990146Y-91589842D01*
X152982415Y-91623088D01*
X152975180Y-91656347D01*
X152974456Y-91657313D01*
X152974321Y-91657896D01*
X152954030Y-91684602D01*
X152825449Y-91813182D01*
X152764129Y-91846666D01*
X152737770Y-91849500D01*
X152207310Y-91849500D01*
X152140271Y-91829815D01*
X152119629Y-91813181D01*
X151498585Y-91192137D01*
X151583694Y-91169333D01*
X151686306Y-91110090D01*
X151770090Y-91026306D01*
X151829333Y-90923694D01*
X151852137Y-90838585D01*
X152453678Y-91440126D01*
G37*
%TD.AperFunction*%
%TA.AperFunction,Conductor*%
G36*
X112779195Y-66220185D02*
G01*
X112824950Y-66272989D01*
X112834894Y-66342147D01*
X112805869Y-66405703D01*
X112761389Y-66435378D01*
X112762421Y-66437592D01*
X112755875Y-66440643D01*
X112606654Y-66532684D01*
X112482684Y-66656654D01*
X112390643Y-66805875D01*
X112390641Y-66805880D01*
X112335494Y-66972302D01*
X112335493Y-66972309D01*
X112325000Y-67075013D01*
X112325000Y-67187500D01*
X115074999Y-67187500D01*
X115074999Y-67075028D01*
X115074998Y-67075013D01*
X115064505Y-66972302D01*
X115009358Y-66805880D01*
X115009356Y-66805875D01*
X114917315Y-66656654D01*
X114793345Y-66532684D01*
X114644124Y-66440643D01*
X114637579Y-66437592D01*
X114638701Y-66435184D01*
X114591400Y-66402439D01*
X114564573Y-66337924D01*
X114576884Y-66269148D01*
X114624424Y-66217945D01*
X114687844Y-66200500D01*
X122475010Y-66200500D01*
X122542049Y-66220185D01*
X122587804Y-66272989D01*
X122599010Y-66324500D01*
X122599010Y-67520015D01*
X122579325Y-67587054D01*
X122526521Y-67632809D01*
X122457363Y-67642753D01*
X122436010Y-67637722D01*
X122427800Y-67635002D01*
X122427795Y-67635000D01*
X122325010Y-67624500D01*
X121599998Y-67624500D01*
X121599980Y-67624501D01*
X121497203Y-67635000D01*
X121497200Y-67635001D01*
X121330668Y-67690185D01*
X121330663Y-67690187D01*
X121181342Y-67782289D01*
X121057289Y-67906342D01*
X120965187Y-68055663D01*
X120965185Y-68055668D01*
X120953747Y-68090186D01*
X120910001Y-68222203D01*
X120910001Y-68222204D01*
X120910000Y-68222204D01*
X120899500Y-68324983D01*
X120899500Y-69675001D01*
X120899501Y-69675018D01*
X120910000Y-69777796D01*
X120910001Y-69777799D01*
X120965185Y-69944331D01*
X120965187Y-69944336D01*
X121057289Y-70093657D01*
X121175681Y-70212049D01*
X121209166Y-70273372D01*
X121212000Y-70299730D01*
X121212000Y-71723660D01*
X121198885Y-71776020D01*
X121199747Y-71776378D01*
X121140842Y-71918586D01*
X121140840Y-71918592D01*
X121112000Y-72063579D01*
X121112000Y-72700270D01*
X121092315Y-72767309D01*
X121075681Y-72787951D01*
X120957289Y-72906342D01*
X120865187Y-73055663D01*
X120865185Y-73055668D01*
X120858776Y-73075009D01*
X120810001Y-73222203D01*
X120810001Y-73222204D01*
X120810000Y-73222204D01*
X120799500Y-73324983D01*
X120799500Y-74675001D01*
X120799501Y-74675018D01*
X120810000Y-74777796D01*
X120810001Y-74777799D01*
X120856653Y-74918582D01*
X120865186Y-74944334D01*
X120957288Y-75093656D01*
X121081344Y-75217712D01*
X121230666Y-75309814D01*
X121397203Y-75364999D01*
X121499991Y-75375500D01*
X122125269Y-75375499D01*
X122154715Y-75384145D01*
X122184696Y-75390667D01*
X122189709Y-75394419D01*
X122192308Y-75395183D01*
X122212950Y-75411818D01*
X122213181Y-75412049D01*
X122246666Y-75473372D01*
X122249500Y-75499730D01*
X122249500Y-80587770D01*
X122229815Y-80654809D01*
X122213181Y-80675451D01*
X121600452Y-81288181D01*
X121539129Y-81321666D01*
X121512771Y-81324500D01*
X117112000Y-81324500D01*
X117044961Y-81304815D01*
X116999206Y-81252011D01*
X116988000Y-81200500D01*
X116988000Y-78524499D01*
X117007685Y-78457460D01*
X117060489Y-78411705D01*
X117111995Y-78400499D01*
X118000008Y-78400499D01*
X118000016Y-78400498D01*
X118000019Y-78400498D01*
X118056302Y-78394748D01*
X118102797Y-78389999D01*
X118269334Y-78334814D01*
X118418656Y-78242712D01*
X118542712Y-78118656D01*
X118634814Y-77969334D01*
X118689999Y-77802797D01*
X118700500Y-77700009D01*
X118700500Y-77699986D01*
X119500001Y-77699986D01*
X119510494Y-77802697D01*
X119565641Y-77969119D01*
X119565643Y-77969124D01*
X119657684Y-78118345D01*
X119781654Y-78242315D01*
X119930875Y-78334356D01*
X119930880Y-78334358D01*
X120097302Y-78389505D01*
X120097309Y-78389506D01*
X120200019Y-78399999D01*
X120412499Y-78399999D01*
X120912500Y-78399999D01*
X121124972Y-78399999D01*
X121124986Y-78399998D01*
X121227697Y-78389505D01*
X121394119Y-78334358D01*
X121394124Y-78334356D01*
X121543345Y-78242315D01*
X121667315Y-78118345D01*
X121759356Y-77969124D01*
X121759358Y-77969119D01*
X121814505Y-77802697D01*
X121814506Y-77802690D01*
X121824999Y-77699986D01*
X121825000Y-77699973D01*
X121825000Y-77250000D01*
X120912500Y-77250000D01*
X120912500Y-78399999D01*
X120412499Y-78399999D01*
X120412500Y-78399998D01*
X120412500Y-77250000D01*
X119500001Y-77250000D01*
X119500001Y-77699986D01*
X118700500Y-77699986D01*
X118700499Y-76965643D01*
X118700499Y-76300013D01*
X119500000Y-76300013D01*
X119500000Y-76750000D01*
X120412500Y-76750000D01*
X120912500Y-76750000D01*
X121824999Y-76750000D01*
X121824999Y-76300028D01*
X121824998Y-76300013D01*
X121814505Y-76197302D01*
X121759358Y-76030880D01*
X121759356Y-76030875D01*
X121667315Y-75881654D01*
X121543345Y-75757684D01*
X121394124Y-75665643D01*
X121394119Y-75665641D01*
X121227697Y-75610494D01*
X121227690Y-75610493D01*
X121124986Y-75600000D01*
X120912500Y-75600000D01*
X120912500Y-76750000D01*
X120412500Y-76750000D01*
X120412500Y-75600000D01*
X120200029Y-75600000D01*
X120200012Y-75600001D01*
X120097302Y-75610494D01*
X119930880Y-75665641D01*
X119930875Y-75665643D01*
X119781654Y-75757684D01*
X119657684Y-75881654D01*
X119565643Y-76030875D01*
X119565641Y-76030880D01*
X119510494Y-76197302D01*
X119510493Y-76197309D01*
X119500000Y-76300013D01*
X118700499Y-76300013D01*
X118700499Y-76299998D01*
X118700498Y-76299981D01*
X118689999Y-76197203D01*
X118689998Y-76197200D01*
X118634814Y-76030666D01*
X118542712Y-75881344D01*
X118418656Y-75757288D01*
X118321237Y-75697200D01*
X118269336Y-75665187D01*
X118269331Y-75665185D01*
X118230166Y-75652207D01*
X118102797Y-75610001D01*
X118102795Y-75610000D01*
X118000010Y-75599500D01*
X117074998Y-75599500D01*
X117074980Y-75599501D01*
X116972203Y-75610000D01*
X116972200Y-75610001D01*
X116805668Y-75665185D01*
X116805663Y-75665187D01*
X116656342Y-75757289D01*
X116532289Y-75881342D01*
X116440187Y-76030663D01*
X116440185Y-76030668D01*
X116424604Y-76077690D01*
X116395835Y-76164505D01*
X116356064Y-76221949D01*
X116291549Y-76248772D01*
X116278131Y-76249500D01*
X116163580Y-76249500D01*
X116018592Y-76278340D01*
X116018582Y-76278343D01*
X115882011Y-76334912D01*
X115881998Y-76334919D01*
X115759084Y-76417048D01*
X115759080Y-76417051D01*
X115654551Y-76521580D01*
X115654548Y-76521584D01*
X115572419Y-76644498D01*
X115572412Y-76644511D01*
X115515843Y-76781082D01*
X115515840Y-76781092D01*
X115487000Y-76926079D01*
X115487000Y-76926082D01*
X115487000Y-82411418D01*
X115487000Y-82411420D01*
X115486999Y-82411420D01*
X115515840Y-82556407D01*
X115517610Y-82562240D01*
X115516652Y-82562530D01*
X115524500Y-82601980D01*
X115524500Y-88025019D01*
X115535001Y-88127801D01*
X115590184Y-88294333D01*
X115590189Y-88294344D01*
X115682285Y-88443653D01*
X115682288Y-88443657D01*
X115806342Y-88567711D01*
X115806346Y-88567714D01*
X115955655Y-88659810D01*
X115955658Y-88659811D01*
X115955664Y-88659815D01*
X116122200Y-88714999D01*
X116224988Y-88725500D01*
X118050500Y-88725500D01*
X118117539Y-88745185D01*
X118163294Y-88797989D01*
X118174500Y-88849500D01*
X118174500Y-89771042D01*
X118154815Y-89838081D01*
X118115598Y-89876580D01*
X118106344Y-89882287D01*
X117982289Y-90006342D01*
X117890245Y-90155570D01*
X117838297Y-90202294D01*
X117769334Y-90213517D01*
X117705252Y-90185673D01*
X117679167Y-90155570D01*
X117587315Y-90006654D01*
X117463345Y-89882684D01*
X117314124Y-89790643D01*
X117314119Y-89790641D01*
X117147697Y-89735494D01*
X117147690Y-89735493D01*
X117044986Y-89725000D01*
X116895000Y-89725000D01*
X116895000Y-91201000D01*
X116875315Y-91268039D01*
X116822511Y-91313794D01*
X116771000Y-91325000D01*
X116645000Y-91325000D01*
X116645000Y-91451000D01*
X116625315Y-91518039D01*
X116572511Y-91563794D01*
X116521000Y-91575000D01*
X115545001Y-91575000D01*
X115545001Y-92224986D01*
X115555494Y-92327697D01*
X115610641Y-92494119D01*
X115610643Y-92494124D01*
X115702684Y-92643345D01*
X115826654Y-92767315D01*
X115975875Y-92859356D01*
X115975880Y-92859358D01*
X116142302Y-92914505D01*
X116142310Y-92914506D01*
X116229136Y-92923377D01*
X116293828Y-92949773D01*
X116333980Y-93006954D01*
X116336843Y-93076765D01*
X116304215Y-93134416D01*
X116122049Y-93316582D01*
X116122049Y-93316583D01*
X116099386Y-93350501D01*
X116039913Y-93439508D01*
X115983343Y-93576082D01*
X115983340Y-93576092D01*
X115954500Y-93721079D01*
X115954500Y-93925500D01*
X115934815Y-93992539D01*
X115882011Y-94038294D01*
X115830500Y-94049500D01*
X113562229Y-94049500D01*
X113495190Y-94029815D01*
X113474548Y-94013181D01*
X112686819Y-93225451D01*
X112653334Y-93164128D01*
X112650500Y-93137770D01*
X112650500Y-90425013D01*
X115545000Y-90425013D01*
X115545000Y-91075000D01*
X116395000Y-91075000D01*
X116395000Y-89725000D01*
X116245027Y-89725000D01*
X116245012Y-89725001D01*
X116142302Y-89735494D01*
X115975880Y-89790641D01*
X115975875Y-89790643D01*
X115826654Y-89882684D01*
X115702684Y-90006654D01*
X115610643Y-90155875D01*
X115610641Y-90155880D01*
X115555494Y-90322302D01*
X115555493Y-90322309D01*
X115545000Y-90425013D01*
X112650500Y-90425013D01*
X112650500Y-86426079D01*
X112621659Y-86281092D01*
X112621658Y-86281091D01*
X112621658Y-86281087D01*
X112606505Y-86244505D01*
X112565086Y-86144509D01*
X112565085Y-86144507D01*
X112555980Y-86130881D01*
X112532186Y-86095270D01*
X112532185Y-86095268D01*
X112482956Y-86021589D01*
X112482952Y-86021584D01*
X109824033Y-83362665D01*
X109790548Y-83301342D01*
X109795532Y-83231650D01*
X109797136Y-83227574D01*
X109803502Y-83212207D01*
X109867982Y-82971565D01*
X109900500Y-82724565D01*
X109900500Y-82475435D01*
X109867982Y-82228435D01*
X109803502Y-81987793D01*
X109721651Y-81790187D01*
X109708169Y-81757638D01*
X109708162Y-81757623D01*
X109583599Y-81541873D01*
X109431939Y-81344225D01*
X109431933Y-81344218D01*
X109255781Y-81168066D01*
X109255774Y-81168060D01*
X109058126Y-81016400D01*
X108842376Y-80891837D01*
X108842361Y-80891830D01*
X108612207Y-80796498D01*
X108371565Y-80732018D01*
X108371564Y-80732017D01*
X108371561Y-80732017D01*
X108124575Y-80699501D01*
X108124570Y-80699500D01*
X108124565Y-80699500D01*
X107875435Y-80699500D01*
X107875429Y-80699500D01*
X107875424Y-80699501D01*
X107628438Y-80732017D01*
X107387792Y-80796498D01*
X107157638Y-80891830D01*
X107157623Y-80891837D01*
X106941873Y-81016400D01*
X106744225Y-81168060D01*
X106744218Y-81168066D01*
X106568066Y-81344218D01*
X106568060Y-81344225D01*
X106416400Y-81541873D01*
X106291837Y-81757623D01*
X106291830Y-81757638D01*
X106196498Y-81987792D01*
X106132017Y-82228438D01*
X106099501Y-82475424D01*
X106099500Y-82475441D01*
X106099500Y-82724558D01*
X106099501Y-82724575D01*
X106131498Y-82967621D01*
X106132018Y-82971565D01*
X106158377Y-83069938D01*
X106196498Y-83212207D01*
X106291830Y-83442361D01*
X106291837Y-83442376D01*
X106416400Y-83658126D01*
X106568060Y-83855774D01*
X106568066Y-83855781D01*
X106744218Y-84031933D01*
X106744225Y-84031939D01*
X106941873Y-84183599D01*
X107157623Y-84308162D01*
X107157638Y-84308169D01*
X107256825Y-84349253D01*
X107387793Y-84403502D01*
X107628435Y-84467982D01*
X107875435Y-84500500D01*
X107875442Y-84500500D01*
X108124558Y-84500500D01*
X108124565Y-84500500D01*
X108371565Y-84467982D01*
X108612207Y-84403502D01*
X108627528Y-84397155D01*
X108696994Y-84389683D01*
X108759475Y-84420954D01*
X108762665Y-84424033D01*
X111113181Y-86774549D01*
X111146666Y-86835872D01*
X111149500Y-86862230D01*
X111149500Y-93573918D01*
X111149500Y-93573920D01*
X111149499Y-93573920D01*
X111178340Y-93718907D01*
X111178343Y-93718917D01*
X111234914Y-93855491D01*
X111234916Y-93855495D01*
X111253262Y-93882952D01*
X111253261Y-93882952D01*
X111317046Y-93978414D01*
X111317052Y-93978421D01*
X112617049Y-95278416D01*
X112721584Y-95382951D01*
X112721587Y-95382953D01*
X112721588Y-95382954D01*
X112844503Y-95465083D01*
X112844506Y-95465085D01*
X112894665Y-95485861D01*
X112901080Y-95488518D01*
X112981088Y-95521659D01*
X113097241Y-95544763D01*
X113120380Y-95549365D01*
X113126081Y-95550500D01*
X113126082Y-95550500D01*
X113126083Y-95550500D01*
X113273918Y-95550500D01*
X115300613Y-95550500D01*
X115367652Y-95570185D01*
X115413407Y-95622989D01*
X115423351Y-95692147D01*
X115394326Y-95755703D01*
X115363733Y-95781232D01*
X115353446Y-95787315D01*
X115353441Y-95787318D01*
X115334655Y-95806104D01*
X115868181Y-96339629D01*
X115901666Y-96400952D01*
X115904500Y-96427310D01*
X115904500Y-97032690D01*
X115884815Y-97099729D01*
X115868181Y-97120371D01*
X115239457Y-97749095D01*
X115178134Y-97782580D01*
X115108442Y-97777596D01*
X115064095Y-97749095D01*
X114885905Y-97570905D01*
X114852420Y-97509582D01*
X114857404Y-97439890D01*
X114885905Y-97395543D01*
X115551448Y-96730000D01*
X114885905Y-96064457D01*
X114852420Y-96003134D01*
X114857404Y-95933442D01*
X114885905Y-95889095D01*
X114962119Y-95812880D01*
X114884980Y-95805000D01*
X113105028Y-95805000D01*
X113105012Y-95805001D01*
X113002302Y-95815494D01*
X112894700Y-95851148D01*
X112894700Y-95851149D01*
X114171776Y-97128224D01*
X115480564Y-98437013D01*
X115480564Y-98437012D01*
X115519359Y-98374119D01*
X115568344Y-98226289D01*
X115608116Y-98168844D01*
X115672632Y-98142020D01*
X115741407Y-98154335D01*
X115773731Y-98177611D01*
X115861635Y-98265515D01*
X115992865Y-98341281D01*
X116139234Y-98380500D01*
X116139236Y-98380500D01*
X116290764Y-98380500D01*
X116290766Y-98380500D01*
X116437135Y-98341281D01*
X116568365Y-98265515D01*
X116675515Y-98158365D01*
X116751281Y-98027135D01*
X116786041Y-97897406D01*
X116798865Y-97876366D01*
X116807886Y-97853436D01*
X116816730Y-97847057D01*
X116822406Y-97837746D01*
X116844569Y-97826979D01*
X116864555Y-97812566D01*
X116879515Y-97810003D01*
X116885253Y-97807217D01*
X116899171Y-97805678D01*
X116902488Y-97805500D01*
X116920694Y-97805500D01*
X116957569Y-97802598D01*
X116957797Y-97802531D01*
X116961274Y-97802345D01*
X116993818Y-97810033D01*
X117026568Y-97816913D01*
X117027711Y-97818040D01*
X117029272Y-97818409D01*
X117052498Y-97842476D01*
X117076324Y-97865965D01*
X117076676Y-97867529D01*
X117077791Y-97868685D01*
X117084320Y-97901501D01*
X117091663Y-97934130D01*
X117091257Y-97936365D01*
X117091426Y-97937211D01*
X117090829Y-97938728D01*
X117086580Y-97962162D01*
X117085261Y-97966509D01*
X117054500Y-98121153D01*
X117054500Y-98278846D01*
X117085261Y-98433489D01*
X117085264Y-98433501D01*
X117145602Y-98579172D01*
X117145609Y-98579185D01*
X117233210Y-98710288D01*
X117233213Y-98710292D01*
X117344707Y-98821786D01*
X117344711Y-98821789D01*
X117475814Y-98909390D01*
X117475827Y-98909397D01*
X117621498Y-98969735D01*
X117621503Y-98969737D01*
X117776153Y-99000499D01*
X117776156Y-99000500D01*
X117776158Y-99000500D01*
X117933844Y-99000500D01*
X117933845Y-99000499D01*
X118088497Y-98969737D01*
X118234179Y-98909394D01*
X118365289Y-98821789D01*
X118476789Y-98710289D01*
X118564394Y-98579179D01*
X118624737Y-98433497D01*
X118644936Y-98331951D01*
X118655500Y-98278845D01*
X118655829Y-98275504D01*
X118656490Y-98273865D01*
X118656689Y-98272868D01*
X118656878Y-98272905D01*
X118681987Y-98210716D01*
X118739021Y-98170355D01*
X118808821Y-98167236D01*
X118866913Y-98199973D01*
X118947460Y-98280520D01*
X118947462Y-98280521D01*
X118947466Y-98280524D01*
X119052700Y-98341280D01*
X119084392Y-98359577D01*
X119196195Y-98389534D01*
X119237118Y-98400500D01*
X119237119Y-98400500D01*
X119713331Y-98400500D01*
X119713347Y-98400501D01*
X119720943Y-98400501D01*
X119879054Y-98400501D01*
X119879057Y-98400501D01*
X119972711Y-98375406D01*
X120042558Y-98377069D01*
X120100420Y-98416231D01*
X120119363Y-98447729D01*
X120147572Y-98515834D01*
X120147579Y-98515847D01*
X120235180Y-98646950D01*
X120235183Y-98646954D01*
X120346677Y-98758448D01*
X120346681Y-98758451D01*
X120477784Y-98846052D01*
X120477797Y-98846059D01*
X120623468Y-98906397D01*
X120623473Y-98906399D01*
X120778123Y-98937161D01*
X120778126Y-98937162D01*
X120778128Y-98937162D01*
X120935814Y-98937162D01*
X120935815Y-98937161D01*
X121090467Y-98906399D01*
X121236149Y-98846056D01*
X121366663Y-98758849D01*
X123114700Y-98758849D01*
X123222308Y-98794506D01*
X123222305Y-98794506D01*
X123325019Y-98804999D01*
X125104971Y-98804999D01*
X125104987Y-98804998D01*
X125207697Y-98794505D01*
X125315297Y-98758850D01*
X125315298Y-98758849D01*
X124215000Y-97658552D01*
X123114700Y-98758849D01*
X121366663Y-98758849D01*
X121367259Y-98758451D01*
X121478759Y-98646951D01*
X121485678Y-98636597D01*
X121566360Y-98515847D01*
X121566360Y-98515846D01*
X121566364Y-98515841D01*
X121610869Y-98408393D01*
X121654708Y-98353994D01*
X121721002Y-98331928D01*
X121764837Y-98339835D01*
X121765014Y-98339177D01*
X121772863Y-98341280D01*
X121772865Y-98341281D01*
X121919234Y-98380500D01*
X121919236Y-98380500D01*
X122070764Y-98380500D01*
X122070766Y-98380500D01*
X122217135Y-98341281D01*
X122348365Y-98265515D01*
X122436270Y-98177609D01*
X122497589Y-98144127D01*
X122567281Y-98149111D01*
X122623215Y-98190982D01*
X122641654Y-98226288D01*
X122690642Y-98374121D01*
X122690644Y-98374126D01*
X122729434Y-98437012D01*
X122729435Y-98437012D01*
X123861450Y-97304998D01*
X124568552Y-97304998D01*
X124568552Y-97305001D01*
X125700564Y-98437013D01*
X125700564Y-98437012D01*
X125739358Y-98374120D01*
X125794505Y-98207697D01*
X125794506Y-98207690D01*
X125804999Y-98104986D01*
X125804999Y-96847585D01*
X127844500Y-96847585D01*
X127844500Y-97152414D01*
X127844501Y-97152430D01*
X127884289Y-97454654D01*
X127963189Y-97749113D01*
X128079844Y-98030742D01*
X128079848Y-98030752D01*
X128232267Y-98294750D01*
X128417843Y-98536597D01*
X128417849Y-98536604D01*
X128633395Y-98752150D01*
X128633402Y-98752156D01*
X128875249Y-98937732D01*
X129139247Y-99090151D01*
X129139248Y-99090151D01*
X129139251Y-99090153D01*
X129327009Y-99167925D01*
X129420886Y-99206810D01*
X129420887Y-99206810D01*
X129420889Y-99206811D01*
X129715344Y-99285710D01*
X130017579Y-99325500D01*
X130017586Y-99325500D01*
X130322414Y-99325500D01*
X130322421Y-99325500D01*
X130624656Y-99285710D01*
X130919111Y-99206811D01*
X131200749Y-99090153D01*
X131464751Y-98937732D01*
X131706599Y-98752155D01*
X131922155Y-98536599D01*
X132107732Y-98294751D01*
X132260153Y-98030749D01*
X132376811Y-97749111D01*
X132455710Y-97454656D01*
X132495500Y-97152421D01*
X132495500Y-96847585D01*
X139274500Y-96847585D01*
X139274500Y-97152414D01*
X139274501Y-97152430D01*
X139314289Y-97454654D01*
X139393189Y-97749113D01*
X139509844Y-98030742D01*
X139509848Y-98030752D01*
X139662267Y-98294750D01*
X139847843Y-98536597D01*
X139847849Y-98536604D01*
X140063395Y-98752150D01*
X140063402Y-98752156D01*
X140305249Y-98937732D01*
X140569247Y-99090151D01*
X140569248Y-99090151D01*
X140569251Y-99090153D01*
X140757009Y-99167925D01*
X140850886Y-99206810D01*
X140850887Y-99206810D01*
X140850889Y-99206811D01*
X141145344Y-99285710D01*
X141447579Y-99325500D01*
X141447586Y-99325500D01*
X141752414Y-99325500D01*
X141752421Y-99325500D01*
X142054656Y-99285710D01*
X142349111Y-99206811D01*
X142630749Y-99090153D01*
X142894751Y-98937732D01*
X143136599Y-98752155D01*
X143352155Y-98536599D01*
X143537732Y-98294751D01*
X143690153Y-98030749D01*
X143806811Y-97749111D01*
X143885710Y-97454656D01*
X143925500Y-97152421D01*
X143925500Y-96947585D01*
X145274500Y-96947585D01*
X145274500Y-97252414D01*
X145274501Y-97252430D01*
X145314289Y-97554654D01*
X145393189Y-97849113D01*
X145509844Y-98130742D01*
X145509848Y-98130752D01*
X145662267Y-98394750D01*
X145847843Y-98636597D01*
X145847849Y-98636604D01*
X146063395Y-98852150D01*
X146063402Y-98852156D01*
X146305249Y-99037732D01*
X146569247Y-99190151D01*
X146569248Y-99190151D01*
X146569251Y-99190153D01*
X146757009Y-99267925D01*
X146850886Y-99306810D01*
X146850887Y-99306810D01*
X146850889Y-99306811D01*
X147145344Y-99385710D01*
X147447579Y-99425500D01*
X147447586Y-99425500D01*
X147752414Y-99425500D01*
X147752421Y-99425500D01*
X148054656Y-99385710D01*
X148349111Y-99306811D01*
X148630749Y-99190153D01*
X148894751Y-99037732D01*
X149136599Y-98852155D01*
X149352155Y-98636599D01*
X149537732Y-98394751D01*
X149690153Y-98130749D01*
X149806811Y-97849111D01*
X149885710Y-97554656D01*
X149925500Y-97252421D01*
X149925500Y-96947585D01*
X156704500Y-96947585D01*
X156704500Y-97252414D01*
X156704501Y-97252430D01*
X156744289Y-97554654D01*
X156823189Y-97849113D01*
X156939844Y-98130742D01*
X156939848Y-98130752D01*
X157092267Y-98394750D01*
X157277843Y-98636597D01*
X157277849Y-98636604D01*
X157493395Y-98852150D01*
X157493402Y-98852156D01*
X157735249Y-99037732D01*
X157999247Y-99190151D01*
X157999248Y-99190151D01*
X157999251Y-99190153D01*
X158187009Y-99267925D01*
X158280886Y-99306810D01*
X158280887Y-99306810D01*
X158280889Y-99306811D01*
X158575344Y-99385710D01*
X158877579Y-99425500D01*
X158877586Y-99425500D01*
X159182414Y-99425500D01*
X159182421Y-99425500D01*
X159484656Y-99385710D01*
X159779111Y-99306811D01*
X160060749Y-99190153D01*
X160324751Y-99037732D01*
X160566599Y-98852155D01*
X160782155Y-98636599D01*
X160967732Y-98394751D01*
X161120153Y-98130749D01*
X161236811Y-97849111D01*
X161315710Y-97554656D01*
X161355500Y-97252421D01*
X161355500Y-96947579D01*
X161315710Y-96645344D01*
X161236811Y-96350889D01*
X161120153Y-96069251D01*
X161081980Y-96003134D01*
X160967732Y-95805249D01*
X160782156Y-95563402D01*
X160782150Y-95563395D01*
X160566604Y-95347849D01*
X160566597Y-95347843D01*
X160324750Y-95162267D01*
X160060752Y-95009848D01*
X160060742Y-95009844D01*
X159779113Y-94893189D01*
X159484654Y-94814289D01*
X159182430Y-94774501D01*
X159182427Y-94774500D01*
X159182421Y-94774500D01*
X158877579Y-94774500D01*
X158877573Y-94774500D01*
X158877569Y-94774501D01*
X158575345Y-94814289D01*
X158280886Y-94893189D01*
X157999257Y-95009844D01*
X157999247Y-95009848D01*
X157735249Y-95162267D01*
X157493402Y-95347843D01*
X157493395Y-95347849D01*
X157277849Y-95563395D01*
X157277843Y-95563402D01*
X157092267Y-95805249D01*
X156939848Y-96069247D01*
X156939844Y-96069257D01*
X156823189Y-96350886D01*
X156744289Y-96645345D01*
X156704501Y-96947569D01*
X156704500Y-96947585D01*
X149925500Y-96947585D01*
X149925500Y-96947579D01*
X149885710Y-96645344D01*
X149806811Y-96350889D01*
X149690153Y-96069251D01*
X149651980Y-96003134D01*
X149537732Y-95805249D01*
X149352156Y-95563402D01*
X149352150Y-95563395D01*
X149136604Y-95347849D01*
X149136597Y-95347843D01*
X148894750Y-95162267D01*
X148630752Y-95009848D01*
X148630742Y-95009844D01*
X148349113Y-94893189D01*
X148054654Y-94814289D01*
X147752430Y-94774501D01*
X147752427Y-94774500D01*
X147752421Y-94774500D01*
X147447579Y-94774500D01*
X147447573Y-94774500D01*
X147447569Y-94774501D01*
X147145345Y-94814289D01*
X146850886Y-94893189D01*
X146569257Y-95009844D01*
X146569247Y-95009848D01*
X146305249Y-95162267D01*
X146063402Y-95347843D01*
X146063395Y-95347849D01*
X145847849Y-95563395D01*
X145847843Y-95563402D01*
X145662267Y-95805249D01*
X145509848Y-96069247D01*
X145509844Y-96069257D01*
X145393189Y-96350886D01*
X145314289Y-96645345D01*
X145274501Y-96947569D01*
X145274500Y-96947585D01*
X143925500Y-96947585D01*
X143925500Y-96847579D01*
X143885710Y-96545344D01*
X143806811Y-96250889D01*
X143690153Y-95969251D01*
X143621966Y-95851148D01*
X143537732Y-95705249D01*
X143352156Y-95463402D01*
X143352150Y-95463395D01*
X143136604Y-95247849D01*
X143136597Y-95247843D01*
X142894750Y-95062267D01*
X142630752Y-94909848D01*
X142630742Y-94909844D01*
X142349113Y-94793189D01*
X142054654Y-94714289D01*
X141752430Y-94674501D01*
X141752427Y-94674500D01*
X141752421Y-94674500D01*
X141447579Y-94674500D01*
X141447573Y-94674500D01*
X141447569Y-94674501D01*
X141145345Y-94714289D01*
X140850886Y-94793189D01*
X140569257Y-94909844D01*
X140569247Y-94909848D01*
X140305249Y-95062267D01*
X140063402Y-95247843D01*
X140063395Y-95247849D01*
X139847849Y-95463395D01*
X139847843Y-95463402D01*
X139662267Y-95705249D01*
X139509848Y-95969247D01*
X139509844Y-95969257D01*
X139393189Y-96250886D01*
X139314289Y-96545345D01*
X139274501Y-96847569D01*
X139274500Y-96847585D01*
X132495500Y-96847585D01*
X132495500Y-96847579D01*
X132455710Y-96545344D01*
X132376811Y-96250889D01*
X132260153Y-95969251D01*
X132191966Y-95851148D01*
X132107732Y-95705249D01*
X131922156Y-95463402D01*
X131922150Y-95463395D01*
X131706604Y-95247849D01*
X131706597Y-95247843D01*
X131464750Y-95062267D01*
X131200752Y-94909848D01*
X131200742Y-94909844D01*
X130919113Y-94793189D01*
X130624654Y-94714289D01*
X130322430Y-94674501D01*
X130322427Y-94674500D01*
X130322421Y-94674500D01*
X130017579Y-94674500D01*
X130017573Y-94674500D01*
X130017569Y-94674501D01*
X129715345Y-94714289D01*
X129420886Y-94793189D01*
X129139257Y-94909844D01*
X129139247Y-94909848D01*
X128875249Y-95062267D01*
X128633402Y-95247843D01*
X128633395Y-95247849D01*
X128417849Y-95463395D01*
X128417843Y-95463402D01*
X128232267Y-95705249D01*
X128079848Y-95969247D01*
X128079844Y-95969257D01*
X127963189Y-96250886D01*
X127884289Y-96545345D01*
X127844501Y-96847569D01*
X127844500Y-96847585D01*
X125804999Y-96847585D01*
X125804999Y-96505028D01*
X125804998Y-96505012D01*
X125794505Y-96402302D01*
X125739358Y-96235879D01*
X125739355Y-96235873D01*
X125700565Y-96172986D01*
X125700563Y-96172986D01*
X124568552Y-97304998D01*
X123861450Y-97304998D01*
X124000492Y-97165956D01*
X125315298Y-95851149D01*
X125315298Y-95851148D01*
X125207699Y-95815494D01*
X125104979Y-95805000D01*
X123325028Y-95805000D01*
X123325013Y-95805001D01*
X123247881Y-95812881D01*
X123247880Y-95812881D01*
X123324094Y-95889095D01*
X123357579Y-95950418D01*
X123352595Y-96020110D01*
X123324094Y-96064457D01*
X122517181Y-96871371D01*
X122455858Y-96904856D01*
X122386167Y-96899872D01*
X122330233Y-96858000D01*
X122305816Y-96792536D01*
X122305500Y-96783690D01*
X122305500Y-96427309D01*
X122325185Y-96360270D01*
X122341819Y-96339628D01*
X122875343Y-95806104D01*
X122875343Y-95806103D01*
X122856561Y-95787321D01*
X122856552Y-95787314D01*
X122715196Y-95703717D01*
X122715193Y-95703716D01*
X122557495Y-95657900D01*
X122557489Y-95657899D01*
X122520649Y-95655000D01*
X122379500Y-95655000D01*
X122312461Y-95635315D01*
X122266706Y-95582511D01*
X122255500Y-95531000D01*
X122255500Y-94524986D01*
X123425001Y-94524986D01*
X123435494Y-94627697D01*
X123490641Y-94794119D01*
X123490643Y-94794124D01*
X123582684Y-94943345D01*
X123706654Y-95067315D01*
X123855875Y-95159356D01*
X123855880Y-95159358D01*
X124022302Y-95214505D01*
X124022309Y-95214506D01*
X124125019Y-95224999D01*
X124549999Y-95224999D01*
X125050000Y-95224999D01*
X125474972Y-95224999D01*
X125474986Y-95224998D01*
X125577697Y-95214505D01*
X125744119Y-95159358D01*
X125744124Y-95159356D01*
X125893345Y-95067315D01*
X126017315Y-94943345D01*
X126109356Y-94794124D01*
X126109358Y-94794119D01*
X126164505Y-94627697D01*
X126164506Y-94627690D01*
X126174999Y-94524986D01*
X126175000Y-94524973D01*
X126175000Y-94412500D01*
X125050000Y-94412500D01*
X125050000Y-95224999D01*
X124549999Y-95224999D01*
X124550000Y-95224998D01*
X124550000Y-94412500D01*
X123425001Y-94412500D01*
X123425001Y-94524986D01*
X122255500Y-94524986D01*
X122255500Y-93800013D01*
X123425000Y-93800013D01*
X123425000Y-93912500D01*
X124550000Y-93912500D01*
X125050000Y-93912500D01*
X126174999Y-93912500D01*
X126174999Y-93800028D01*
X126174998Y-93800013D01*
X126164505Y-93697302D01*
X126109358Y-93530880D01*
X126109356Y-93530875D01*
X126017315Y-93381654D01*
X125893345Y-93257684D01*
X125744124Y-93165643D01*
X125744119Y-93165641D01*
X125577697Y-93110494D01*
X125577690Y-93110493D01*
X125474986Y-93100000D01*
X125050000Y-93100000D01*
X125050000Y-93912500D01*
X124550000Y-93912500D01*
X124550000Y-93100000D01*
X124125028Y-93100000D01*
X124125012Y-93100001D01*
X124022302Y-93110494D01*
X123855880Y-93165641D01*
X123855875Y-93165643D01*
X123706654Y-93257684D01*
X123582684Y-93381654D01*
X123490643Y-93530875D01*
X123490641Y-93530880D01*
X123435494Y-93697302D01*
X123435493Y-93697309D01*
X123425000Y-93800013D01*
X122255500Y-93800013D01*
X122255500Y-92467005D01*
X122261794Y-92428001D01*
X122294999Y-92327797D01*
X122305500Y-92225009D01*
X122305500Y-92199500D01*
X122325185Y-92132461D01*
X122377989Y-92086706D01*
X122429500Y-92075500D01*
X123587770Y-92075500D01*
X123654809Y-92095185D01*
X123675451Y-92111819D01*
X123706344Y-92142712D01*
X123855666Y-92234814D01*
X124022203Y-92289999D01*
X124124991Y-92300500D01*
X125475008Y-92300499D01*
X125577797Y-92289999D01*
X125744334Y-92234814D01*
X125893656Y-92142712D01*
X126017712Y-92018656D01*
X126109814Y-91869334D01*
X126164999Y-91702797D01*
X126175500Y-91600009D01*
X126175499Y-90874992D01*
X126172784Y-90848417D01*
X126164999Y-90772203D01*
X126164998Y-90772200D01*
X126141239Y-90700500D01*
X126109814Y-90605666D01*
X126017712Y-90456344D01*
X125893656Y-90332288D01*
X125744334Y-90240186D01*
X125577797Y-90185001D01*
X125577795Y-90185000D01*
X125475010Y-90174500D01*
X124124998Y-90174500D01*
X124124981Y-90174501D01*
X124022203Y-90185000D01*
X124022200Y-90185001D01*
X123855668Y-90240185D01*
X123855663Y-90240187D01*
X123706342Y-90332289D01*
X123582289Y-90456342D01*
X123581776Y-90457174D01*
X123554121Y-90502011D01*
X123545741Y-90515597D01*
X123493793Y-90562321D01*
X123440202Y-90574500D01*
X122429499Y-90574500D01*
X122362460Y-90554815D01*
X122316705Y-90502011D01*
X122305499Y-90450500D01*
X122305499Y-90424998D01*
X122305498Y-90424981D01*
X122294999Y-90322203D01*
X122294998Y-90322200D01*
X122278285Y-90271764D01*
X122239814Y-90155666D01*
X122147712Y-90006344D01*
X122023656Y-89882288D01*
X121924548Y-89821158D01*
X126499500Y-89821158D01*
X126499500Y-89829001D01*
X126499500Y-89978846D01*
X126530261Y-90133489D01*
X126530264Y-90133501D01*
X126590602Y-90279172D01*
X126590609Y-90279185D01*
X126678210Y-90410288D01*
X126678213Y-90410292D01*
X126789707Y-90521786D01*
X126789711Y-90521789D01*
X126920814Y-90609390D01*
X126920827Y-90609397D01*
X127022675Y-90651583D01*
X127066503Y-90669737D01*
X127221153Y-90700499D01*
X127221156Y-90700500D01*
X127221158Y-90700500D01*
X127378844Y-90700500D01*
X127378845Y-90700499D01*
X127533497Y-90669737D01*
X127679179Y-90609394D01*
X127810289Y-90521789D01*
X127921789Y-90410289D01*
X128009394Y-90279179D01*
X128013209Y-90269970D01*
X128025546Y-90240185D01*
X128069737Y-90133497D01*
X128100500Y-89978842D01*
X128100500Y-89821158D01*
X128100500Y-89821155D01*
X128100499Y-89821153D01*
X128069739Y-89666511D01*
X128069738Y-89666508D01*
X128069737Y-89666503D01*
X128059937Y-89642844D01*
X128050500Y-89595396D01*
X128050500Y-87762230D01*
X128070185Y-87695191D01*
X128086819Y-87674549D01*
X129175549Y-86585819D01*
X129236872Y-86552334D01*
X129263230Y-86549500D01*
X135449769Y-86549500D01*
X135516808Y-86569185D01*
X135562563Y-86621989D01*
X135572507Y-86691147D01*
X135543482Y-86754703D01*
X135537458Y-86761172D01*
X135487763Y-86810868D01*
X135471404Y-86827227D01*
X135410080Y-86860711D01*
X135364329Y-86862019D01*
X135348421Y-86859500D01*
X135348417Y-86859500D01*
X135151583Y-86859500D01*
X135151578Y-86859500D01*
X134957173Y-86890290D01*
X134769970Y-86951117D01*
X134594594Y-87040476D01*
X134519395Y-87095112D01*
X134435354Y-87156172D01*
X134435352Y-87156174D01*
X134435351Y-87156174D01*
X134296174Y-87295351D01*
X134296174Y-87295352D01*
X134296172Y-87295354D01*
X134276094Y-87322989D01*
X134180476Y-87454594D01*
X134090485Y-87631213D01*
X134042511Y-87682009D01*
X133974690Y-87698804D01*
X133908555Y-87676267D01*
X133869515Y-87631213D01*
X133779523Y-87454594D01*
X133663828Y-87295354D01*
X133524646Y-87156172D01*
X133365405Y-87040476D01*
X133333026Y-87023978D01*
X133190029Y-86951117D01*
X133002826Y-86890290D01*
X132808422Y-86859500D01*
X132808417Y-86859500D01*
X132611583Y-86859500D01*
X132611578Y-86859500D01*
X132417173Y-86890290D01*
X132229970Y-86951117D01*
X132054594Y-87040476D01*
X131979395Y-87095112D01*
X131895354Y-87156172D01*
X131895352Y-87156174D01*
X131895351Y-87156174D01*
X131756174Y-87295351D01*
X131756174Y-87295352D01*
X131756172Y-87295354D01*
X131736094Y-87322989D01*
X131640476Y-87454594D01*
X131551117Y-87629970D01*
X131490290Y-87817173D01*
X131459500Y-88011577D01*
X131459500Y-88208422D01*
X131490290Y-88402826D01*
X131551117Y-88590029D01*
X131625853Y-88736706D01*
X131640476Y-88765405D01*
X131756172Y-88924646D01*
X131895354Y-89063828D01*
X132048619Y-89175182D01*
X132091284Y-89230512D01*
X132097263Y-89300126D01*
X132064657Y-89361921D01*
X132003818Y-89396278D01*
X131975733Y-89399500D01*
X130642129Y-89399500D01*
X130642123Y-89399501D01*
X130582516Y-89405908D01*
X130447671Y-89456202D01*
X130447664Y-89456206D01*
X130332455Y-89542452D01*
X130332452Y-89542455D01*
X130246206Y-89657664D01*
X130246202Y-89657671D01*
X130195908Y-89792517D01*
X130191303Y-89835354D01*
X130189501Y-89852123D01*
X130189500Y-89852135D01*
X130189500Y-91447870D01*
X130189501Y-91447876D01*
X130195908Y-91507483D01*
X130246202Y-91642328D01*
X130246206Y-91642335D01*
X130332452Y-91757544D01*
X130332455Y-91757547D01*
X130447664Y-91843793D01*
X130447671Y-91843797D01*
X130582517Y-91894091D01*
X130582516Y-91894091D01*
X130589444Y-91894835D01*
X130642127Y-91900500D01*
X132237872Y-91900499D01*
X132297483Y-91894091D01*
X132432331Y-91843796D01*
X132547546Y-91757546D01*
X132633796Y-91642331D01*
X132642881Y-91617974D01*
X132648434Y-91603086D01*
X132684091Y-91507482D01*
X132688696Y-91464648D01*
X132690500Y-91447873D01*
X132690499Y-91383413D01*
X132710183Y-91316377D01*
X132762986Y-91270621D01*
X132832144Y-91260677D01*
X132895700Y-91289701D01*
X132914818Y-91310531D01*
X132936319Y-91340125D01*
X132936320Y-91340125D01*
X133537861Y-90738584D01*
X133560667Y-90823694D01*
X133619910Y-90926306D01*
X133703694Y-91010090D01*
X133806306Y-91069333D01*
X133891414Y-91092137D01*
X133289873Y-91693677D01*
X133289873Y-91693678D01*
X133324858Y-91719096D01*
X133500164Y-91808418D01*
X133687294Y-91869221D01*
X133881618Y-91900000D01*
X134078382Y-91900000D01*
X134272705Y-91869221D01*
X134459835Y-91808418D01*
X134635143Y-91719095D01*
X134670125Y-91693678D01*
X134670126Y-91693678D01*
X134068585Y-91092137D01*
X134153694Y-91069333D01*
X134256306Y-91010090D01*
X134340090Y-90926306D01*
X134399333Y-90823694D01*
X134422138Y-90738585D01*
X135023678Y-91340126D01*
X135023678Y-91340125D01*
X135049097Y-91305141D01*
X135139234Y-91128236D01*
X135187208Y-91077439D01*
X135255029Y-91060644D01*
X135321164Y-91083181D01*
X135360204Y-91128235D01*
X135361115Y-91130024D01*
X135361116Y-91130025D01*
X135450476Y-91305405D01*
X135566172Y-91464646D01*
X135705354Y-91603828D01*
X135864595Y-91719524D01*
X135939214Y-91757544D01*
X136039970Y-91808882D01*
X136039972Y-91808882D01*
X136039975Y-91808884D01*
X136104394Y-91829815D01*
X136227173Y-91869709D01*
X136421578Y-91900500D01*
X136421583Y-91900500D01*
X136618416Y-91900500D01*
X136618417Y-91900500D01*
X136634326Y-91897980D01*
X136703618Y-91906934D01*
X136741405Y-91932772D01*
X137887048Y-93078415D01*
X137887049Y-93078416D01*
X137943049Y-93134416D01*
X137991585Y-93182952D01*
X138114498Y-93265080D01*
X138114511Y-93265087D01*
X138238832Y-93316582D01*
X138251087Y-93321658D01*
X138251091Y-93321658D01*
X138251092Y-93321659D01*
X138396079Y-93350500D01*
X138396082Y-93350500D01*
X153173920Y-93350500D01*
X153271462Y-93331096D01*
X153318913Y-93321658D01*
X153455495Y-93265084D01*
X153534868Y-93212049D01*
X153578416Y-93182952D01*
X154682952Y-92078415D01*
X154710205Y-92037627D01*
X154765084Y-91955495D01*
X154806260Y-91856088D01*
X154821659Y-91818912D01*
X154850500Y-91673917D01*
X154850500Y-91669336D01*
X154870185Y-91602297D01*
X154886819Y-91581655D01*
X154893474Y-91575000D01*
X154903828Y-91564646D01*
X155019524Y-91405405D01*
X155066202Y-91313794D01*
X155109515Y-91228787D01*
X155157489Y-91177990D01*
X155225310Y-91161195D01*
X155291445Y-91183732D01*
X155330485Y-91228787D01*
X155420474Y-91405403D01*
X155445645Y-91440047D01*
X155536172Y-91564646D01*
X155675354Y-91703828D01*
X155834595Y-91819524D01*
X155882226Y-91843793D01*
X156009970Y-91908882D01*
X156009972Y-91908882D01*
X156009975Y-91908884D01*
X156110317Y-91941487D01*
X156197173Y-91969709D01*
X156391578Y-92000500D01*
X156391583Y-92000500D01*
X156588422Y-92000500D01*
X156782826Y-91969709D01*
X156826550Y-91955502D01*
X156970025Y-91908884D01*
X157145405Y-91819524D01*
X157304646Y-91703828D01*
X157443828Y-91564646D01*
X157559524Y-91405405D01*
X157648884Y-91230025D01*
X157709709Y-91042826D01*
X157740500Y-90848422D01*
X157740500Y-90651577D01*
X157709709Y-90457173D01*
X157677217Y-90357174D01*
X157648884Y-90269975D01*
X157648882Y-90269972D01*
X157648882Y-90269970D01*
X157590750Y-90155880D01*
X157559524Y-90094595D01*
X157443828Y-89935354D01*
X157304646Y-89796172D01*
X157145405Y-89680476D01*
X157117987Y-89666506D01*
X156970029Y-89591117D01*
X156782826Y-89530290D01*
X156588422Y-89499500D01*
X156588417Y-89499500D01*
X156391583Y-89499500D01*
X156391578Y-89499500D01*
X156197173Y-89530290D01*
X156009970Y-89591117D01*
X155834594Y-89680476D01*
X155743741Y-89746485D01*
X155675354Y-89796172D01*
X155675352Y-89796174D01*
X155675351Y-89796174D01*
X155536174Y-89935351D01*
X155536174Y-89935352D01*
X155536172Y-89935354D01*
X155504573Y-89978846D01*
X155420476Y-90094594D01*
X155330485Y-90271213D01*
X155282511Y-90322009D01*
X155214690Y-90338804D01*
X155148555Y-90316267D01*
X155109515Y-90271213D01*
X155058843Y-90171764D01*
X155019524Y-90094595D01*
X154903828Y-89935354D01*
X154764646Y-89796172D01*
X154605405Y-89680476D01*
X154577987Y-89666506D01*
X154430029Y-89591117D01*
X154242826Y-89530290D01*
X154048422Y-89499500D01*
X154048417Y-89499500D01*
X153851583Y-89499500D01*
X153851578Y-89499500D01*
X153657173Y-89530290D01*
X153469970Y-89591117D01*
X153294594Y-89680476D01*
X153203741Y-89746485D01*
X153135354Y-89796172D01*
X153135352Y-89796174D01*
X153135351Y-89796174D01*
X152996174Y-89935351D01*
X152996174Y-89935352D01*
X152996172Y-89935354D01*
X152964573Y-89978846D01*
X152880476Y-90094594D01*
X152790204Y-90271764D01*
X152742229Y-90322560D01*
X152674408Y-90339355D01*
X152608274Y-90316818D01*
X152569234Y-90271764D01*
X152479096Y-90094858D01*
X152453678Y-90059873D01*
X152453677Y-90059873D01*
X151852137Y-90661413D01*
X151829333Y-90576306D01*
X151770090Y-90473694D01*
X151686306Y-90389910D01*
X151583694Y-90330667D01*
X151498584Y-90307861D01*
X152100125Y-89706320D01*
X152100125Y-89706319D01*
X152065145Y-89680905D01*
X151889835Y-89591581D01*
X151702705Y-89530778D01*
X151508382Y-89500000D01*
X151311618Y-89500000D01*
X151117294Y-89530778D01*
X150930161Y-89591582D01*
X150754863Y-89680899D01*
X150754859Y-89680902D01*
X150719873Y-89706320D01*
X150719872Y-89706320D01*
X151321415Y-90307861D01*
X151236306Y-90330667D01*
X151133694Y-90389910D01*
X151049910Y-90473694D01*
X150990667Y-90576306D01*
X150967861Y-90661414D01*
X150366320Y-90059872D01*
X150366319Y-90059873D01*
X150344819Y-90089468D01*
X150289490Y-90132135D01*
X150219877Y-90138116D01*
X150158081Y-90105512D01*
X150123722Y-90044674D01*
X150120499Y-90016585D01*
X150120499Y-89952129D01*
X150120498Y-89952123D01*
X150120497Y-89952116D01*
X150114091Y-89892517D01*
X150110275Y-89882287D01*
X150090401Y-89829001D01*
X150063796Y-89757669D01*
X149986647Y-89654611D01*
X149983873Y-89650168D01*
X149975825Y-89621368D01*
X149965373Y-89593347D01*
X149966520Y-89588072D01*
X149965068Y-89582876D01*
X149973867Y-89554297D01*
X149980224Y-89525074D01*
X149984039Y-89521258D01*
X149985628Y-89516100D01*
X150008482Y-89496815D01*
X150029629Y-89475668D01*
X150035241Y-89474235D01*
X150039027Y-89471041D01*
X150056882Y-89468711D01*
X150089057Y-89460500D01*
X150238422Y-89460500D01*
X150432826Y-89429709D01*
X150458835Y-89421258D01*
X150620025Y-89368884D01*
X150795405Y-89279524D01*
X150954646Y-89163828D01*
X151093828Y-89024646D01*
X151209524Y-88865405D01*
X151286160Y-88714998D01*
X151299515Y-88688787D01*
X151347489Y-88637990D01*
X151415310Y-88621195D01*
X151481445Y-88643732D01*
X151520485Y-88688787D01*
X151610474Y-88865403D01*
X151637570Y-88902696D01*
X151726172Y-89024646D01*
X151865354Y-89163828D01*
X152024595Y-89279524D01*
X152065029Y-89300126D01*
X152199970Y-89368882D01*
X152199972Y-89368882D01*
X152199975Y-89368884D01*
X152284285Y-89396278D01*
X152387173Y-89429709D01*
X152581578Y-89460500D01*
X152581583Y-89460500D01*
X152778422Y-89460500D01*
X152972826Y-89429709D01*
X152998835Y-89421258D01*
X153160025Y-89368884D01*
X153335405Y-89279524D01*
X153494646Y-89163828D01*
X153633828Y-89024646D01*
X153749524Y-88865405D01*
X153826160Y-88714998D01*
X153839515Y-88688787D01*
X153887489Y-88637990D01*
X153955310Y-88621195D01*
X154021445Y-88643732D01*
X154060485Y-88688787D01*
X154150474Y-88865403D01*
X154177570Y-88902696D01*
X154266172Y-89024646D01*
X154405354Y-89163828D01*
X154564595Y-89279524D01*
X154605029Y-89300126D01*
X154739970Y-89368882D01*
X154739972Y-89368882D01*
X154739975Y-89368884D01*
X154824285Y-89396278D01*
X154927173Y-89429709D01*
X155121578Y-89460500D01*
X155121583Y-89460500D01*
X155318422Y-89460500D01*
X155512826Y-89429709D01*
X155538835Y-89421258D01*
X155700025Y-89368884D01*
X155875405Y-89279524D01*
X156034646Y-89163828D01*
X156173828Y-89024646D01*
X156289524Y-88865405D01*
X156366160Y-88714998D01*
X156379515Y-88688787D01*
X156427489Y-88637990D01*
X156495310Y-88621195D01*
X156561445Y-88643732D01*
X156600485Y-88688787D01*
X156690474Y-88865403D01*
X156717570Y-88902696D01*
X156806172Y-89024646D01*
X156945354Y-89163828D01*
X157104595Y-89279524D01*
X157145029Y-89300126D01*
X157279970Y-89368882D01*
X157279972Y-89368882D01*
X157279975Y-89368884D01*
X157364285Y-89396278D01*
X157467173Y-89429709D01*
X157661578Y-89460500D01*
X157661583Y-89460500D01*
X157858422Y-89460500D01*
X158052826Y-89429709D01*
X158078835Y-89421258D01*
X158240025Y-89368884D01*
X158415405Y-89279524D01*
X158574646Y-89163828D01*
X158713828Y-89024646D01*
X158829524Y-88865405D01*
X158918884Y-88690025D01*
X158979709Y-88502826D01*
X159010500Y-88308422D01*
X159010500Y-88111577D01*
X158979709Y-87917173D01*
X158947217Y-87817174D01*
X158918884Y-87729975D01*
X158918882Y-87729972D01*
X158918882Y-87729970D01*
X158829523Y-87554594D01*
X158816000Y-87535981D01*
X158713828Y-87395354D01*
X158574646Y-87256172D01*
X158415405Y-87140476D01*
X158240029Y-87051117D01*
X158052826Y-86990290D01*
X157858422Y-86959500D01*
X157858417Y-86959500D01*
X157661583Y-86959500D01*
X157661578Y-86959500D01*
X157467173Y-86990290D01*
X157279970Y-87051117D01*
X157104594Y-87140476D01*
X157048700Y-87181086D01*
X156945354Y-87256172D01*
X156945352Y-87256174D01*
X156945351Y-87256174D01*
X156806174Y-87395351D01*
X156806174Y-87395352D01*
X156806172Y-87395354D01*
X156795239Y-87410402D01*
X156690476Y-87554594D01*
X156600485Y-87731213D01*
X156552511Y-87782009D01*
X156484690Y-87798804D01*
X156418555Y-87776267D01*
X156379515Y-87731213D01*
X156345278Y-87664019D01*
X156289524Y-87554595D01*
X156173828Y-87395354D01*
X156034646Y-87256172D01*
X155875405Y-87140476D01*
X155700029Y-87051117D01*
X155512826Y-86990290D01*
X155318422Y-86959500D01*
X155318417Y-86959500D01*
X155121583Y-86959500D01*
X155121578Y-86959500D01*
X154927173Y-86990290D01*
X154739970Y-87051117D01*
X154564594Y-87140476D01*
X154508700Y-87181086D01*
X154405354Y-87256172D01*
X154405352Y-87256174D01*
X154405351Y-87256174D01*
X154266174Y-87395351D01*
X154266174Y-87395352D01*
X154266172Y-87395354D01*
X154255239Y-87410402D01*
X154150476Y-87554594D01*
X154060485Y-87731213D01*
X154012511Y-87782009D01*
X153944690Y-87798804D01*
X153878555Y-87776267D01*
X153839515Y-87731213D01*
X153805278Y-87664019D01*
X153749524Y-87554595D01*
X153633828Y-87395354D01*
X153494646Y-87256172D01*
X153335405Y-87140476D01*
X153160029Y-87051117D01*
X152972826Y-86990290D01*
X152778422Y-86959500D01*
X152778417Y-86959500D01*
X152581583Y-86959500D01*
X152581579Y-86959500D01*
X152565674Y-86962019D01*
X152496380Y-86953064D01*
X152458595Y-86927227D01*
X151945606Y-86414238D01*
X151918726Y-86374009D01*
X151865087Y-86244511D01*
X151865080Y-86244498D01*
X151782952Y-86121585D01*
X151756635Y-86095268D01*
X151682951Y-86021584D01*
X151578416Y-85917048D01*
X151578415Y-85917047D01*
X151578414Y-85917046D01*
X151504729Y-85867812D01*
X151504729Y-85867813D01*
X151455491Y-85834913D01*
X151318917Y-85778343D01*
X151318907Y-85778340D01*
X151173920Y-85749500D01*
X151173918Y-85749500D01*
X146311230Y-85749500D01*
X146244191Y-85729815D01*
X146198436Y-85677011D01*
X146188492Y-85607853D01*
X146217517Y-85544297D01*
X146223549Y-85537819D01*
X146715702Y-85045666D01*
X148315297Y-83446069D01*
X148355524Y-83419191D01*
X148379179Y-83409394D01*
X148510289Y-83321789D01*
X148621789Y-83210289D01*
X148709394Y-83079179D01*
X148717131Y-83060500D01*
X148733429Y-83021153D01*
X154299500Y-83021153D01*
X154299500Y-83178846D01*
X154330261Y-83333489D01*
X154330264Y-83333501D01*
X154390602Y-83479172D01*
X154390609Y-83479185D01*
X154478210Y-83610288D01*
X154478213Y-83610292D01*
X154589707Y-83721786D01*
X154589711Y-83721789D01*
X154720814Y-83809390D01*
X154720827Y-83809397D01*
X154832810Y-83855781D01*
X154866503Y-83869737D01*
X155018157Y-83899903D01*
X155021153Y-83900499D01*
X155021156Y-83900500D01*
X155021158Y-83900500D01*
X155178844Y-83900500D01*
X155184907Y-83899903D01*
X155185043Y-83901284D01*
X155247636Y-83906880D01*
X155302817Y-83949739D01*
X155319950Y-83983268D01*
X155340186Y-84044334D01*
X155432288Y-84193656D01*
X155556344Y-84317712D01*
X155705666Y-84409814D01*
X155872203Y-84464999D01*
X155974991Y-84475500D01*
X156700008Y-84475499D01*
X156700016Y-84475498D01*
X156700019Y-84475498D01*
X156773595Y-84467982D01*
X156802797Y-84464999D01*
X156969334Y-84409814D01*
X157118656Y-84317712D01*
X157242712Y-84193656D01*
X157334814Y-84044334D01*
X157389999Y-83877797D01*
X157400500Y-83775009D01*
X157400500Y-83774986D01*
X158200001Y-83774986D01*
X158210494Y-83877697D01*
X158265641Y-84044119D01*
X158265643Y-84044124D01*
X158357684Y-84193345D01*
X158481654Y-84317315D01*
X158630875Y-84409356D01*
X158630880Y-84409358D01*
X158797302Y-84464505D01*
X158797309Y-84464506D01*
X158900019Y-84474999D01*
X159012499Y-84474999D01*
X159512500Y-84474999D01*
X159624972Y-84474999D01*
X159624986Y-84474998D01*
X159727697Y-84464505D01*
X159894119Y-84409358D01*
X159894124Y-84409356D01*
X160043345Y-84317315D01*
X160167315Y-84193345D01*
X160259356Y-84044124D01*
X160259358Y-84044119D01*
X160314505Y-83877697D01*
X160314506Y-83877690D01*
X160324999Y-83774986D01*
X160325000Y-83774973D01*
X160325000Y-83350000D01*
X159512500Y-83350000D01*
X159512500Y-84474999D01*
X159012499Y-84474999D01*
X159012500Y-84474998D01*
X159012500Y-83350000D01*
X158200001Y-83350000D01*
X158200001Y-83774986D01*
X157400500Y-83774986D01*
X157400499Y-83096819D01*
X157400499Y-82425013D01*
X158200000Y-82425013D01*
X158200000Y-82850000D01*
X159012500Y-82850000D01*
X159512500Y-82850000D01*
X160324999Y-82850000D01*
X160324999Y-82425028D01*
X160324998Y-82425013D01*
X160314505Y-82322302D01*
X160259358Y-82155880D01*
X160259356Y-82155875D01*
X160167315Y-82006654D01*
X160043345Y-81882684D01*
X159894124Y-81790643D01*
X159894119Y-81790641D01*
X159727697Y-81735494D01*
X159727690Y-81735493D01*
X159624986Y-81725000D01*
X159512500Y-81725000D01*
X159512500Y-82850000D01*
X159012500Y-82850000D01*
X159012500Y-81725000D01*
X158900027Y-81725000D01*
X158900012Y-81725001D01*
X158797302Y-81735494D01*
X158630880Y-81790641D01*
X158630875Y-81790643D01*
X158481654Y-81882684D01*
X158357684Y-82006654D01*
X158265643Y-82155875D01*
X158265641Y-82155880D01*
X158210494Y-82322302D01*
X158210493Y-82322309D01*
X158200000Y-82425013D01*
X157400499Y-82425013D01*
X157400499Y-82424998D01*
X157400498Y-82424981D01*
X157389999Y-82322203D01*
X157389998Y-82322200D01*
X157374084Y-82274175D01*
X157334814Y-82155666D01*
X157242712Y-82006344D01*
X157118656Y-81882288D01*
X156969334Y-81790186D01*
X156802797Y-81735001D01*
X156802795Y-81735000D01*
X156700010Y-81724500D01*
X155974998Y-81724500D01*
X155974980Y-81724501D01*
X155872203Y-81735000D01*
X155872200Y-81735001D01*
X155705668Y-81790185D01*
X155705663Y-81790187D01*
X155556342Y-81882289D01*
X155432289Y-82006342D01*
X155340187Y-82155663D01*
X155340184Y-82155672D01*
X155319950Y-82216731D01*
X155280177Y-82274175D01*
X155215661Y-82300997D01*
X155184949Y-82299648D01*
X155184905Y-82300097D01*
X155178843Y-82299500D01*
X155178842Y-82299500D01*
X155021158Y-82299500D01*
X155021155Y-82299500D01*
X154866510Y-82330261D01*
X154866498Y-82330264D01*
X154720827Y-82390602D01*
X154720814Y-82390609D01*
X154589711Y-82478210D01*
X154589707Y-82478213D01*
X154478213Y-82589707D01*
X154478210Y-82589711D01*
X154390609Y-82720814D01*
X154390602Y-82720827D01*
X154330264Y-82866498D01*
X154330261Y-82866510D01*
X154299500Y-83021153D01*
X148733429Y-83021153D01*
X148755603Y-82967621D01*
X148755605Y-82967614D01*
X148769737Y-82933497D01*
X148800500Y-82778842D01*
X148800500Y-82621158D01*
X148800500Y-82621155D01*
X148800499Y-82621153D01*
X148785052Y-82543497D01*
X148769737Y-82466503D01*
X148752558Y-82425028D01*
X148709397Y-82320827D01*
X148709390Y-82320814D01*
X148621789Y-82189711D01*
X148621786Y-82189707D01*
X148510292Y-82078213D01*
X148510288Y-82078210D01*
X148379185Y-81990609D01*
X148379172Y-81990602D01*
X148233501Y-81930264D01*
X148233489Y-81930261D01*
X148078845Y-81899500D01*
X148078842Y-81899500D01*
X147921158Y-81899500D01*
X147921155Y-81899500D01*
X147766510Y-81930261D01*
X147766498Y-81930264D01*
X147620827Y-81990602D01*
X147620814Y-81990609D01*
X147489711Y-82078210D01*
X147489707Y-82078213D01*
X147378213Y-82189707D01*
X147378207Y-82189715D01*
X147290607Y-82320818D01*
X147290606Y-82320819D01*
X147280805Y-82344480D01*
X147253927Y-82384703D01*
X144626451Y-85012181D01*
X144565128Y-85045666D01*
X144538770Y-85048500D01*
X128827080Y-85048500D01*
X128682092Y-85077340D01*
X128682086Y-85077342D01*
X128545508Y-85133914D01*
X128545496Y-85133921D01*
X128496269Y-85166813D01*
X128422588Y-85216044D01*
X128422580Y-85216050D01*
X126717050Y-86921580D01*
X126717044Y-86921588D01*
X126667812Y-86995268D01*
X126667813Y-86995269D01*
X126634921Y-87044496D01*
X126634914Y-87044508D01*
X126578342Y-87181086D01*
X126578340Y-87181092D01*
X126549500Y-87326079D01*
X126549500Y-89595396D01*
X126548049Y-89602687D01*
X126546408Y-89622916D01*
X126544079Y-89633147D01*
X126530263Y-89666503D01*
X126499500Y-89821158D01*
X121924548Y-89821158D01*
X121884039Y-89796172D01*
X121874336Y-89790187D01*
X121874331Y-89790185D01*
X121816561Y-89771042D01*
X121707797Y-89735001D01*
X121707795Y-89735000D01*
X121605010Y-89724500D01*
X120804998Y-89724500D01*
X120804980Y-89724501D01*
X120702203Y-89735000D01*
X120702200Y-89735001D01*
X120535668Y-89790185D01*
X120535663Y-89790187D01*
X120386342Y-89882289D01*
X120262289Y-90006342D01*
X120262288Y-90006344D01*
X120183858Y-90133501D01*
X120170539Y-90155094D01*
X120118591Y-90201818D01*
X120049628Y-90213041D01*
X119985546Y-90185197D01*
X119959461Y-90155094D01*
X119948989Y-90138116D01*
X119867712Y-90006344D01*
X119743656Y-89882288D01*
X119743655Y-89882287D01*
X119734402Y-89876580D01*
X119687678Y-89824632D01*
X119675500Y-89771042D01*
X119675500Y-88921153D01*
X124199500Y-88921153D01*
X124199500Y-89078846D01*
X124230261Y-89233489D01*
X124230264Y-89233501D01*
X124290602Y-89379172D01*
X124290609Y-89379185D01*
X124378210Y-89510288D01*
X124378213Y-89510292D01*
X124489707Y-89621786D01*
X124489711Y-89621789D01*
X124620814Y-89709390D01*
X124620827Y-89709397D01*
X124766498Y-89769735D01*
X124766503Y-89769737D01*
X124899400Y-89796172D01*
X124921153Y-89800499D01*
X124921156Y-89800500D01*
X124921158Y-89800500D01*
X125078844Y-89800500D01*
X125078845Y-89800499D01*
X125233497Y-89769737D01*
X125379179Y-89709394D01*
X125510289Y-89621789D01*
X125621789Y-89510289D01*
X125709394Y-89379179D01*
X125769737Y-89233497D01*
X125800500Y-89078842D01*
X125800500Y-88921158D01*
X125800500Y-88921155D01*
X125800499Y-88921153D01*
X125769739Y-88766511D01*
X125769738Y-88766508D01*
X125769737Y-88766503D01*
X125759937Y-88742844D01*
X125750500Y-88695396D01*
X125750500Y-83462230D01*
X125770185Y-83395191D01*
X125786819Y-83374549D01*
X126064549Y-83096819D01*
X126125872Y-83063334D01*
X126152230Y-83060500D01*
X131626082Y-83060500D01*
X131626083Y-83060500D01*
X131773917Y-83060500D01*
X141605396Y-83060500D01*
X141652844Y-83069937D01*
X141676503Y-83079737D01*
X141676508Y-83079738D01*
X141676511Y-83079739D01*
X141831153Y-83110499D01*
X141831156Y-83110500D01*
X141831158Y-83110500D01*
X141988844Y-83110500D01*
X141988845Y-83110499D01*
X142143497Y-83079737D01*
X142273040Y-83026079D01*
X142289172Y-83019397D01*
X142289172Y-83019396D01*
X142289179Y-83019394D01*
X142420289Y-82931789D01*
X142531789Y-82820289D01*
X142619394Y-82689179D01*
X142679737Y-82543497D01*
X142710500Y-82388842D01*
X142710500Y-82231158D01*
X142710500Y-82231155D01*
X142710499Y-82231153D01*
X142704402Y-82200500D01*
X142679737Y-82076503D01*
X142650805Y-82006654D01*
X142619397Y-81930827D01*
X142619390Y-81930814D01*
X142531789Y-81799711D01*
X142531786Y-81799707D01*
X142420292Y-81688213D01*
X142420288Y-81688210D01*
X142289185Y-81600609D01*
X142289172Y-81600602D01*
X142143501Y-81540264D01*
X142143489Y-81540261D01*
X141988845Y-81509500D01*
X141988842Y-81509500D01*
X141831158Y-81509500D01*
X141831155Y-81509500D01*
X141676511Y-81540260D01*
X141676506Y-81540262D01*
X141676504Y-81540262D01*
X141676503Y-81540263D01*
X141652844Y-81550062D01*
X141605396Y-81559500D01*
X132674500Y-81559500D01*
X132607461Y-81539815D01*
X132561706Y-81487011D01*
X132550500Y-81435500D01*
X132550500Y-79933211D01*
X132567768Y-79870090D01*
X132571118Y-79864423D01*
X132604555Y-79807887D01*
X132647765Y-79659156D01*
X132650500Y-79624405D01*
X132650499Y-79275596D01*
X132647765Y-79240844D01*
X132604555Y-79092113D01*
X132525715Y-78958802D01*
X132525713Y-78958800D01*
X132525710Y-78958796D01*
X132416203Y-78849289D01*
X132416194Y-78849282D01*
X132335111Y-78801330D01*
X132282887Y-78770445D01*
X132134156Y-78727235D01*
X132134153Y-78727234D01*
X132134151Y-78727234D01*
X132099410Y-78724500D01*
X132099405Y-78724500D01*
X132011811Y-78724500D01*
X131987619Y-78722117D01*
X131873920Y-78699500D01*
X131873918Y-78699500D01*
X131726082Y-78699500D01*
X131726078Y-78699500D01*
X131612376Y-78722117D01*
X131588186Y-78724500D01*
X131500607Y-78724500D01*
X131500583Y-78724501D01*
X131465847Y-78727234D01*
X131465844Y-78727235D01*
X131317113Y-78770445D01*
X131317111Y-78770445D01*
X131317111Y-78770446D01*
X131183805Y-78849282D01*
X131183796Y-78849289D01*
X131074289Y-78958796D01*
X131074282Y-78958805D01*
X130995446Y-79092111D01*
X130952234Y-79240847D01*
X130952234Y-79240849D01*
X130949500Y-79275589D01*
X130949500Y-79624393D01*
X130949501Y-79624415D01*
X130952234Y-79659153D01*
X130952235Y-79659155D01*
X130952235Y-79659156D01*
X130995445Y-79807887D01*
X131024418Y-79856877D01*
X131032232Y-79870090D01*
X131049500Y-79933211D01*
X131049500Y-81435500D01*
X131029815Y-81502539D01*
X130977011Y-81548294D01*
X130925500Y-81559500D01*
X125716076Y-81559500D01*
X125687242Y-81565234D01*
X125687243Y-81565235D01*
X125571092Y-81588339D01*
X125571086Y-81588341D01*
X125511037Y-81613214D01*
X125511021Y-81613221D01*
X125506526Y-81615084D01*
X125434505Y-81644916D01*
X125394483Y-81671658D01*
X125388414Y-81675712D01*
X125388408Y-81675716D01*
X125311582Y-81727049D01*
X125311581Y-81727050D01*
X124417052Y-82621578D01*
X124417046Y-82621585D01*
X124370969Y-82690545D01*
X124370970Y-82690546D01*
X124334914Y-82744508D01*
X124278343Y-82881082D01*
X124278340Y-82881092D01*
X124249500Y-83026079D01*
X124249500Y-88695396D01*
X124240062Y-88742844D01*
X124230719Y-88765403D01*
X124230262Y-88766506D01*
X124230260Y-88766511D01*
X124199500Y-88921153D01*
X119675500Y-88921153D01*
X119675500Y-88849500D01*
X119695185Y-88782461D01*
X119747989Y-88736706D01*
X119799500Y-88725500D01*
X121625007Y-88725500D01*
X121625012Y-88725500D01*
X121727800Y-88714999D01*
X121894336Y-88659815D01*
X122043657Y-88567712D01*
X122167712Y-88443657D01*
X122259815Y-88294336D01*
X122314999Y-88127800D01*
X122325500Y-88025012D01*
X122325500Y-82737229D01*
X122345185Y-82670190D01*
X122361819Y-82649548D01*
X123582948Y-81428419D01*
X123582951Y-81428416D01*
X123665084Y-81305495D01*
X123721658Y-81168913D01*
X123750500Y-81023918D01*
X123750500Y-80974500D01*
X123770185Y-80907461D01*
X123822989Y-80861706D01*
X123874500Y-80850500D01*
X129873919Y-80850500D01*
X129923781Y-80840581D01*
X129987623Y-80827881D01*
X130011814Y-80825499D01*
X130099394Y-80825499D01*
X130099404Y-80825499D01*
X130134156Y-80822765D01*
X130282887Y-80779555D01*
X130416198Y-80700715D01*
X130525715Y-80591198D01*
X130604555Y-80457887D01*
X130647765Y-80309156D01*
X130650500Y-80274405D01*
X130650499Y-79925596D01*
X130647765Y-79890844D01*
X130604555Y-79742113D01*
X130534936Y-79624393D01*
X130525717Y-79608805D01*
X130525710Y-79608796D01*
X130454241Y-79537327D01*
X130420756Y-79476004D01*
X130425740Y-79406312D01*
X130454241Y-79361965D01*
X130525311Y-79290894D01*
X130525317Y-79290885D01*
X130604092Y-79157684D01*
X130604093Y-79157681D01*
X130642641Y-79025001D01*
X130642640Y-79025000D01*
X128957360Y-79025000D01*
X128957358Y-79025001D01*
X128995906Y-79157681D01*
X128995906Y-79157682D01*
X128998683Y-79162377D01*
X129015867Y-79230100D01*
X128993709Y-79296363D01*
X128939244Y-79340128D01*
X128891952Y-79349500D01*
X123874500Y-79349500D01*
X123807461Y-79329815D01*
X123761706Y-79277011D01*
X123750500Y-79225500D01*
X123750500Y-78574998D01*
X128957358Y-78574998D01*
X128957360Y-78575000D01*
X129575000Y-78575000D01*
X130025000Y-78575000D01*
X130642640Y-78575000D01*
X130642641Y-78574998D01*
X130604093Y-78442318D01*
X130604092Y-78442315D01*
X130525317Y-78309114D01*
X130525311Y-78309105D01*
X130415894Y-78199688D01*
X130415885Y-78199682D01*
X130282684Y-78120907D01*
X130282681Y-78120906D01*
X130134084Y-78077734D01*
X130134073Y-78077732D01*
X130099359Y-78075000D01*
X130025000Y-78075000D01*
X130025000Y-78575000D01*
X129575000Y-78575000D01*
X129575000Y-78075000D01*
X129574999Y-78074999D01*
X129500659Y-78075000D01*
X129500635Y-78075001D01*
X129465921Y-78077733D01*
X129317318Y-78120906D01*
X129317315Y-78120907D01*
X129184114Y-78199682D01*
X129184105Y-78199688D01*
X129074688Y-78309105D01*
X129074682Y-78309114D01*
X128995907Y-78442315D01*
X128995906Y-78442318D01*
X128957358Y-78574998D01*
X123750500Y-78574998D01*
X123750500Y-75885154D01*
X124839925Y-75885154D01*
X124839925Y-76042847D01*
X124870686Y-76197490D01*
X124870689Y-76197502D01*
X124931027Y-76343173D01*
X124931034Y-76343186D01*
X125018635Y-76474289D01*
X125018638Y-76474293D01*
X125130135Y-76585790D01*
X125218009Y-76644505D01*
X125261246Y-76673395D01*
X125284902Y-76683193D01*
X125315146Y-76701115D01*
X125320376Y-76705320D01*
X125360508Y-76745452D01*
X125413841Y-76781087D01*
X125483429Y-76827584D01*
X125620011Y-76884158D01*
X125620015Y-76884158D01*
X125620016Y-76884159D01*
X125765003Y-76913000D01*
X125765006Y-76913000D01*
X125765007Y-76913000D01*
X125912841Y-76913000D01*
X132400270Y-76913000D01*
X132467309Y-76932685D01*
X132487951Y-76949319D01*
X132606344Y-77067712D01*
X132755666Y-77159814D01*
X132864505Y-77195879D01*
X132921949Y-77235652D01*
X132948772Y-77300167D01*
X132949500Y-77313585D01*
X132949500Y-78573918D01*
X132949500Y-78573920D01*
X132949499Y-78573920D01*
X132978340Y-78718907D01*
X132978343Y-78718917D01*
X133034912Y-78855488D01*
X133034920Y-78855502D01*
X133061126Y-78894721D01*
X133061127Y-78894724D01*
X133061128Y-78894724D01*
X133117051Y-78978420D01*
X133117052Y-78978421D01*
X134017049Y-79878416D01*
X134071844Y-79933211D01*
X134121585Y-79982952D01*
X134244498Y-80065080D01*
X134244511Y-80065087D01*
X134351469Y-80109390D01*
X134381087Y-80121658D01*
X134381091Y-80121658D01*
X134381092Y-80121659D01*
X134526079Y-80150500D01*
X134526082Y-80150500D01*
X152395396Y-80150500D01*
X152442844Y-80159937D01*
X152466503Y-80169737D01*
X152466508Y-80169738D01*
X152466511Y-80169739D01*
X152621153Y-80200499D01*
X152621156Y-80200500D01*
X152621158Y-80200500D01*
X152778844Y-80200500D01*
X152778845Y-80200499D01*
X152933497Y-80169737D01*
X153079179Y-80109394D01*
X153210289Y-80021789D01*
X153321789Y-79910289D01*
X153409394Y-79779179D01*
X153469737Y-79633497D01*
X153500500Y-79478842D01*
X153500500Y-79321158D01*
X153500500Y-79321155D01*
X153500499Y-79321153D01*
X153494478Y-79290885D01*
X153469737Y-79166503D01*
X153438923Y-79092111D01*
X153409397Y-79020827D01*
X153409390Y-79020814D01*
X153321789Y-78889711D01*
X153321786Y-78889707D01*
X153210292Y-78778213D01*
X153210288Y-78778210D01*
X153079185Y-78690609D01*
X153079172Y-78690602D01*
X152933501Y-78630264D01*
X152933489Y-78630261D01*
X152778845Y-78599500D01*
X152778842Y-78599500D01*
X152621158Y-78599500D01*
X152621155Y-78599500D01*
X152466511Y-78630260D01*
X152466506Y-78630262D01*
X152466504Y-78630262D01*
X152466503Y-78630263D01*
X152442844Y-78640062D01*
X152395396Y-78649500D01*
X134962229Y-78649500D01*
X134895190Y-78629815D01*
X134874548Y-78613181D01*
X134486819Y-78225451D01*
X134453334Y-78164128D01*
X134450500Y-78137770D01*
X134450500Y-77313585D01*
X134470185Y-77246546D01*
X134522989Y-77200791D01*
X134535489Y-77195881D01*
X134644334Y-77159814D01*
X134793656Y-77067712D01*
X134917712Y-76943656D01*
X135009814Y-76794334D01*
X135064999Y-76627797D01*
X135075500Y-76525009D01*
X135075499Y-75899983D01*
X140924500Y-75899983D01*
X140924500Y-76625001D01*
X140924501Y-76625019D01*
X140935000Y-76727796D01*
X140935001Y-76727799D01*
X140990185Y-76894331D01*
X140990187Y-76894336D01*
X141009766Y-76926079D01*
X141082288Y-77043656D01*
X141206344Y-77167712D01*
X141355666Y-77259814D01*
X141435391Y-77286232D01*
X141492836Y-77326005D01*
X141519659Y-77390521D01*
X141518004Y-77428129D01*
X141499500Y-77521153D01*
X141499500Y-77678846D01*
X141530261Y-77833489D01*
X141530264Y-77833501D01*
X141590602Y-77979172D01*
X141590609Y-77979185D01*
X141678210Y-78110288D01*
X141678213Y-78110292D01*
X141789707Y-78221786D01*
X141789711Y-78221789D01*
X141920814Y-78309390D01*
X141920827Y-78309397D01*
X142066498Y-78369735D01*
X142066503Y-78369737D01*
X142218634Y-78399998D01*
X142221153Y-78400499D01*
X142221156Y-78400500D01*
X142221158Y-78400500D01*
X142378844Y-78400500D01*
X142378845Y-78400499D01*
X142533497Y-78369737D01*
X142679179Y-78309394D01*
X142810289Y-78221789D01*
X142921789Y-78110289D01*
X143009394Y-77979179D01*
X143069737Y-77833497D01*
X143100500Y-77678842D01*
X143100500Y-77521158D01*
X143100500Y-77521155D01*
X143081995Y-77428130D01*
X143088222Y-77358539D01*
X143131084Y-77303361D01*
X143164604Y-77286233D01*
X143244334Y-77259814D01*
X143393656Y-77167712D01*
X143517712Y-77043656D01*
X143609814Y-76894334D01*
X143664999Y-76727797D01*
X143675500Y-76625009D01*
X143675499Y-75899992D01*
X143673984Y-75885159D01*
X143666249Y-75809435D01*
X143665807Y-75805122D01*
X143665283Y-75799983D01*
X146624500Y-75799983D01*
X146624500Y-76525001D01*
X146624501Y-76525019D01*
X146635000Y-76627796D01*
X146635001Y-76627799D01*
X146659296Y-76701115D01*
X146690186Y-76794334D01*
X146782288Y-76943656D01*
X146906344Y-77067712D01*
X147055666Y-77159814D01*
X147222203Y-77214999D01*
X147324991Y-77225500D01*
X148675008Y-77225499D01*
X148777797Y-77214999D01*
X148944334Y-77159814D01*
X149093656Y-77067712D01*
X149212049Y-76949319D01*
X149273372Y-76915834D01*
X149299730Y-76913000D01*
X149632896Y-76913000D01*
X149680344Y-76922437D01*
X149704003Y-76932237D01*
X149704008Y-76932238D01*
X149704011Y-76932239D01*
X149858653Y-76962999D01*
X149858656Y-76963000D01*
X149858658Y-76963000D01*
X150016344Y-76963000D01*
X150016345Y-76962999D01*
X150170997Y-76932237D01*
X150316679Y-76871894D01*
X150447789Y-76784289D01*
X150559289Y-76672789D01*
X150646894Y-76541679D01*
X150648990Y-76536620D01*
X150707235Y-76396001D01*
X150707237Y-76395997D01*
X150738000Y-76241342D01*
X150738000Y-76083658D01*
X150738000Y-76083655D01*
X150737999Y-76083653D01*
X150727501Y-76030875D01*
X150716384Y-75974986D01*
X151675001Y-75974986D01*
X151685494Y-76077697D01*
X151740641Y-76244119D01*
X151740643Y-76244124D01*
X151832684Y-76393345D01*
X151956654Y-76517315D01*
X152105875Y-76609356D01*
X152105880Y-76609358D01*
X152272302Y-76664505D01*
X152272309Y-76664506D01*
X152375019Y-76674999D01*
X152487499Y-76674999D01*
X152987500Y-76674999D01*
X153099972Y-76674999D01*
X153099986Y-76674998D01*
X153202697Y-76664505D01*
X153369119Y-76609358D01*
X153369124Y-76609356D01*
X153518345Y-76517315D01*
X153642315Y-76393345D01*
X153734356Y-76244124D01*
X153734358Y-76244119D01*
X153789505Y-76077697D01*
X153789506Y-76077690D01*
X153799999Y-75974986D01*
X153800000Y-75974973D01*
X153800000Y-75550000D01*
X152987500Y-75550000D01*
X152987500Y-76674999D01*
X152487499Y-76674999D01*
X152487500Y-76674998D01*
X152487500Y-75550000D01*
X151675001Y-75550000D01*
X151675001Y-75974986D01*
X150716384Y-75974986D01*
X150707237Y-75929003D01*
X150695223Y-75899998D01*
X150646897Y-75783327D01*
X150646890Y-75783314D01*
X150559289Y-75652211D01*
X150559286Y-75652207D01*
X150447792Y-75540713D01*
X150447788Y-75540710D01*
X150316685Y-75453109D01*
X150316672Y-75453102D01*
X150171001Y-75392764D01*
X150170989Y-75392761D01*
X150016345Y-75362000D01*
X150016342Y-75362000D01*
X149858658Y-75362000D01*
X149858655Y-75362000D01*
X149704011Y-75392760D01*
X149704006Y-75392762D01*
X149704004Y-75392762D01*
X149704003Y-75392763D01*
X149680344Y-75402562D01*
X149632896Y-75412000D01*
X149299730Y-75412000D01*
X149232691Y-75392315D01*
X149212049Y-75375681D01*
X149093657Y-75257289D01*
X149093656Y-75257288D01*
X148944334Y-75165186D01*
X148777797Y-75110001D01*
X148777795Y-75110000D01*
X148675010Y-75099500D01*
X147324998Y-75099500D01*
X147324981Y-75099501D01*
X147222203Y-75110000D01*
X147222200Y-75110001D01*
X147055668Y-75165185D01*
X147055663Y-75165187D01*
X146906342Y-75257289D01*
X146782289Y-75381342D01*
X146690187Y-75530663D01*
X146690185Y-75530668D01*
X146683779Y-75550000D01*
X146635001Y-75697203D01*
X146635001Y-75697204D01*
X146635000Y-75697204D01*
X146624500Y-75799983D01*
X143665283Y-75799983D01*
X143664999Y-75797203D01*
X143609814Y-75630666D01*
X143517712Y-75481344D01*
X143393656Y-75357288D01*
X143244334Y-75265186D01*
X143077797Y-75210001D01*
X143077795Y-75210000D01*
X142975010Y-75199500D01*
X141624998Y-75199500D01*
X141624981Y-75199501D01*
X141522203Y-75210000D01*
X141522200Y-75210001D01*
X141355668Y-75265185D01*
X141355663Y-75265187D01*
X141206342Y-75357289D01*
X141082289Y-75481342D01*
X140990187Y-75630663D01*
X140990185Y-75630668D01*
X140977372Y-75669336D01*
X140935001Y-75797203D01*
X140935001Y-75797204D01*
X140935000Y-75797204D01*
X140924500Y-75899983D01*
X135075499Y-75899983D01*
X135075499Y-75799992D01*
X135073795Y-75783314D01*
X135064999Y-75697203D01*
X135064998Y-75697200D01*
X135054390Y-75665187D01*
X135009814Y-75530666D01*
X134917712Y-75381344D01*
X134793656Y-75257288D01*
X134644334Y-75165186D01*
X134477797Y-75110001D01*
X134477795Y-75110000D01*
X134375010Y-75099500D01*
X133024998Y-75099500D01*
X133024981Y-75099501D01*
X132922203Y-75110000D01*
X132922200Y-75110001D01*
X132755668Y-75165185D01*
X132755663Y-75165187D01*
X132606342Y-75257289D01*
X132487951Y-75375681D01*
X132426628Y-75409166D01*
X132400270Y-75412000D01*
X126271864Y-75412000D01*
X126204825Y-75392315D01*
X126184182Y-75375680D01*
X126150717Y-75342214D01*
X126150713Y-75342211D01*
X126019610Y-75254610D01*
X126019597Y-75254603D01*
X125873926Y-75194265D01*
X125873914Y-75194262D01*
X125719270Y-75163501D01*
X125719267Y-75163501D01*
X125561583Y-75163501D01*
X125561580Y-75163501D01*
X125406935Y-75194262D01*
X125406923Y-75194265D01*
X125261252Y-75254603D01*
X125261239Y-75254610D01*
X125130136Y-75342211D01*
X125130132Y-75342214D01*
X125018638Y-75453708D01*
X125018635Y-75453712D01*
X124931034Y-75584815D01*
X124931027Y-75584828D01*
X124870689Y-75730499D01*
X124870686Y-75730511D01*
X124839925Y-75885154D01*
X123750500Y-75885154D01*
X123750500Y-75063579D01*
X123721659Y-74918592D01*
X123721658Y-74918591D01*
X123721658Y-74918587D01*
X123672745Y-74800500D01*
X123665087Y-74782011D01*
X123665080Y-74781998D01*
X123616567Y-74709394D01*
X123616566Y-74709393D01*
X123616564Y-74709390D01*
X123599038Y-74683159D01*
X123582954Y-74659086D01*
X123548881Y-74625013D01*
X151675000Y-74625013D01*
X151675000Y-75050000D01*
X152487500Y-75050000D01*
X152987500Y-75050000D01*
X153799999Y-75050000D01*
X153799999Y-74625028D01*
X153799998Y-74625013D01*
X153789505Y-74522302D01*
X153734358Y-74355880D01*
X153734356Y-74355875D01*
X153642315Y-74206654D01*
X153518345Y-74082684D01*
X153369124Y-73990643D01*
X153369119Y-73990641D01*
X153202697Y-73935494D01*
X153202690Y-73935493D01*
X153099986Y-73925000D01*
X152987500Y-73925000D01*
X152987500Y-75050000D01*
X152487500Y-75050000D01*
X152487500Y-73925000D01*
X152375027Y-73925000D01*
X152375012Y-73925001D01*
X152272302Y-73935494D01*
X152105880Y-73990641D01*
X152105875Y-73990643D01*
X151956654Y-74082684D01*
X151832684Y-74206654D01*
X151740643Y-74355875D01*
X151740641Y-74355880D01*
X151685494Y-74522302D01*
X151685493Y-74522309D01*
X151675000Y-74625013D01*
X123548881Y-74625013D01*
X122961818Y-74037950D01*
X122928333Y-73976627D01*
X122925499Y-73950269D01*
X122925499Y-73324998D01*
X122925498Y-73324981D01*
X122914999Y-73222203D01*
X122914998Y-73222200D01*
X122900284Y-73177796D01*
X122859814Y-73055666D01*
X122849901Y-73039595D01*
X122831462Y-72972205D01*
X122852384Y-72905541D01*
X122906026Y-72860771D01*
X122955441Y-72850500D01*
X131537770Y-72850500D01*
X131604809Y-72870185D01*
X131625451Y-72886819D01*
X132291698Y-73553066D01*
X132325183Y-73614389D01*
X132327375Y-73628145D01*
X132335001Y-73702797D01*
X132335001Y-73702799D01*
X132390185Y-73869331D01*
X132390187Y-73869336D01*
X132420703Y-73918810D01*
X132482288Y-74018656D01*
X132606344Y-74142712D01*
X132755666Y-74234814D01*
X132922203Y-74289999D01*
X133024991Y-74300500D01*
X134375008Y-74300499D01*
X134477797Y-74289999D01*
X134644334Y-74234814D01*
X134793656Y-74142712D01*
X134917712Y-74018656D01*
X135009814Y-73869334D01*
X135064999Y-73702797D01*
X135075500Y-73600009D01*
X135075499Y-72974499D01*
X135095183Y-72907461D01*
X135147987Y-72861706D01*
X135199499Y-72850500D01*
X140700270Y-72850500D01*
X140729713Y-72859145D01*
X140759696Y-72865668D01*
X140764711Y-72869422D01*
X140767309Y-72870185D01*
X140787946Y-72886814D01*
X140888182Y-72987049D01*
X140921666Y-73048370D01*
X140924500Y-73074729D01*
X140924500Y-73700001D01*
X140924501Y-73700019D01*
X140935000Y-73802796D01*
X140935001Y-73802799D01*
X140990185Y-73969331D01*
X140990187Y-73969336D01*
X141003048Y-73990187D01*
X141082288Y-74118656D01*
X141206344Y-74242712D01*
X141355666Y-74334814D01*
X141522203Y-74389999D01*
X141624991Y-74400500D01*
X142975008Y-74400499D01*
X143077797Y-74389999D01*
X143244334Y-74334814D01*
X143393656Y-74242712D01*
X143517712Y-74118656D01*
X143561970Y-74046902D01*
X143613917Y-74000179D01*
X143667508Y-73988000D01*
X146700270Y-73988000D01*
X146767309Y-74007685D01*
X146787951Y-74024319D01*
X146906344Y-74142712D01*
X147055666Y-74234814D01*
X147222203Y-74289999D01*
X147324991Y-74300500D01*
X148675008Y-74300499D01*
X148777797Y-74289999D01*
X148944334Y-74234814D01*
X149093656Y-74142712D01*
X149217712Y-74018656D01*
X149309814Y-73869334D01*
X149364999Y-73702797D01*
X149375500Y-73600009D01*
X149375499Y-72874992D01*
X149374046Y-72860771D01*
X149366521Y-72787101D01*
X149379291Y-72718408D01*
X149427172Y-72667524D01*
X149489879Y-72650500D01*
X155050501Y-72650500D01*
X155117540Y-72670185D01*
X155163295Y-72722989D01*
X155174501Y-72774500D01*
X155174501Y-73075018D01*
X155185000Y-73177796D01*
X155185001Y-73177799D01*
X155208761Y-73249500D01*
X155240186Y-73344334D01*
X155332288Y-73493656D01*
X155456344Y-73617712D01*
X155581586Y-73694961D01*
X155628311Y-73746909D01*
X155639534Y-73815871D01*
X155611691Y-73879953D01*
X155553622Y-73918810D01*
X155516491Y-73924500D01*
X155299999Y-73924500D01*
X155299980Y-73924501D01*
X155197203Y-73935000D01*
X155197200Y-73935001D01*
X155030668Y-73990185D01*
X155030663Y-73990187D01*
X154881342Y-74082289D01*
X154757289Y-74206342D01*
X154665187Y-74355663D01*
X154665185Y-74355668D01*
X154648617Y-74405668D01*
X154610001Y-74522203D01*
X154610001Y-74522204D01*
X154610000Y-74522204D01*
X154599500Y-74624983D01*
X154599500Y-75975001D01*
X154599501Y-75975018D01*
X154610000Y-76077796D01*
X154610001Y-76077799D01*
X154638733Y-76164504D01*
X154665186Y-76244334D01*
X154757096Y-76393345D01*
X154757289Y-76393657D01*
X154875681Y-76512049D01*
X154909166Y-76573372D01*
X154912000Y-76599730D01*
X154912000Y-79325500D01*
X154892315Y-79392539D01*
X154839511Y-79438294D01*
X154788000Y-79449500D01*
X154726080Y-79449500D01*
X154581092Y-79478340D01*
X154581082Y-79478343D01*
X154444511Y-79534912D01*
X154444498Y-79534919D01*
X154321584Y-79617048D01*
X154321580Y-79617051D01*
X153284703Y-80653927D01*
X153244480Y-80680805D01*
X153220819Y-80690606D01*
X153220818Y-80690607D01*
X153089715Y-80778207D01*
X153089707Y-80778213D01*
X152978213Y-80889707D01*
X152978210Y-80889711D01*
X152890609Y-81020814D01*
X152890602Y-81020827D01*
X152830264Y-81166498D01*
X152830261Y-81166510D01*
X152799500Y-81321153D01*
X152799500Y-81478846D01*
X152830261Y-81633489D01*
X152830264Y-81633501D01*
X152890602Y-81779172D01*
X152890609Y-81779185D01*
X152978210Y-81910288D01*
X152978213Y-81910292D01*
X153089707Y-82021786D01*
X153089711Y-82021789D01*
X153220814Y-82109390D01*
X153220827Y-82109397D01*
X153333049Y-82155880D01*
X153366503Y-82169737D01*
X153466939Y-82189715D01*
X153521153Y-82200499D01*
X153521156Y-82200500D01*
X153521158Y-82200500D01*
X153678844Y-82200500D01*
X153678845Y-82200499D01*
X153833497Y-82169737D01*
X153979179Y-82109394D01*
X154110289Y-82021789D01*
X154221789Y-81910289D01*
X154309394Y-81779179D01*
X154319191Y-81755524D01*
X154346069Y-81715297D01*
X155074548Y-80986819D01*
X155135871Y-80953334D01*
X155162229Y-80950500D01*
X155673920Y-80950500D01*
X155771462Y-80931096D01*
X155818913Y-80921658D01*
X155955495Y-80865084D01*
X156020487Y-80821658D01*
X156020487Y-80821657D01*
X156020489Y-80821657D01*
X156058142Y-80796498D01*
X156078416Y-80782952D01*
X156245451Y-80615916D01*
X156327584Y-80492995D01*
X156384158Y-80356413D01*
X156413000Y-80211418D01*
X156413000Y-80063583D01*
X156413000Y-78324986D01*
X157825001Y-78324986D01*
X157835494Y-78427697D01*
X157890641Y-78594119D01*
X157890643Y-78594124D01*
X157982684Y-78743345D01*
X158106654Y-78867315D01*
X158255875Y-78959356D01*
X158255880Y-78959358D01*
X158422302Y-79014505D01*
X158422309Y-79014506D01*
X158525019Y-79024999D01*
X158949999Y-79024999D01*
X159450000Y-79024999D01*
X159874972Y-79024999D01*
X159874986Y-79024998D01*
X159977697Y-79014505D01*
X160144119Y-78959358D01*
X160144124Y-78959356D01*
X160293345Y-78867315D01*
X160417315Y-78743345D01*
X160509356Y-78594124D01*
X160509358Y-78594119D01*
X160564505Y-78427697D01*
X160564506Y-78427690D01*
X160574999Y-78324986D01*
X160575000Y-78324973D01*
X160575000Y-78212500D01*
X159450000Y-78212500D01*
X159450000Y-79024999D01*
X158949999Y-79024999D01*
X158950000Y-79024998D01*
X158950000Y-78212500D01*
X157825001Y-78212500D01*
X157825001Y-78324986D01*
X156413000Y-78324986D01*
X156413000Y-77600013D01*
X157825000Y-77600013D01*
X157825000Y-77712500D01*
X158950000Y-77712500D01*
X159450000Y-77712500D01*
X160574999Y-77712500D01*
X160574999Y-77600028D01*
X160574998Y-77600013D01*
X160564505Y-77497302D01*
X160509358Y-77330880D01*
X160509356Y-77330875D01*
X160417315Y-77181654D01*
X160293345Y-77057684D01*
X160144124Y-76965643D01*
X160144119Y-76965641D01*
X159977697Y-76910494D01*
X159977690Y-76910493D01*
X159874986Y-76900000D01*
X159450000Y-76900000D01*
X159450000Y-77712500D01*
X158950000Y-77712500D01*
X158950000Y-76900000D01*
X158525028Y-76900000D01*
X158525012Y-76900001D01*
X158422302Y-76910494D01*
X158255880Y-76965641D01*
X158255875Y-76965643D01*
X158106654Y-77057684D01*
X157982684Y-77181654D01*
X157890643Y-77330875D01*
X157890641Y-77330880D01*
X157835494Y-77497302D01*
X157835493Y-77497309D01*
X157825000Y-77600013D01*
X156413000Y-77600013D01*
X156413000Y-76599730D01*
X156432685Y-76532691D01*
X156449319Y-76512049D01*
X156487079Y-76474289D01*
X156567712Y-76393656D01*
X156659814Y-76244334D01*
X156714999Y-76077797D01*
X156725500Y-75975009D01*
X156725500Y-75912000D01*
X156745185Y-75844961D01*
X156797989Y-75799206D01*
X156849500Y-75788000D01*
X157900270Y-75788000D01*
X157967309Y-75807685D01*
X157987951Y-75824319D01*
X158106344Y-75942712D01*
X158255666Y-76034814D01*
X158422203Y-76089999D01*
X158524991Y-76100500D01*
X159875008Y-76100499D01*
X159977797Y-76089999D01*
X160144334Y-76034814D01*
X160293656Y-75942712D01*
X160417712Y-75818656D01*
X160509814Y-75669334D01*
X160564999Y-75502797D01*
X160575500Y-75400009D01*
X160575499Y-74674992D01*
X160564999Y-74572203D01*
X160509814Y-74405666D01*
X160417712Y-74256344D01*
X160293656Y-74132288D01*
X160144334Y-74040186D01*
X160079361Y-74018656D01*
X159997996Y-73991694D01*
X159977963Y-73977823D01*
X159955797Y-73967701D01*
X159949748Y-73958288D01*
X159940551Y-73951921D01*
X159931197Y-73929422D01*
X159918023Y-73908923D01*
X159915564Y-73891821D01*
X159913728Y-73887405D01*
X159913000Y-73873988D01*
X159913000Y-73699730D01*
X159932685Y-73632691D01*
X159949319Y-73612049D01*
X160008302Y-73553066D01*
X160067712Y-73493656D01*
X160159814Y-73344334D01*
X160214999Y-73177797D01*
X160225500Y-73075009D01*
X160225499Y-71724992D01*
X160214999Y-71622203D01*
X160159814Y-71455666D01*
X160067712Y-71306344D01*
X159943656Y-71182288D01*
X159794334Y-71090186D01*
X159627797Y-71035001D01*
X159627795Y-71035000D01*
X159525010Y-71024500D01*
X158799998Y-71024500D01*
X158799980Y-71024501D01*
X158697203Y-71035000D01*
X158697200Y-71035001D01*
X158530668Y-71090185D01*
X158530663Y-71090187D01*
X158381342Y-71182289D01*
X158257289Y-71306342D01*
X158165187Y-71455663D01*
X158165186Y-71455666D01*
X158110001Y-71622203D01*
X158110001Y-71622204D01*
X158110000Y-71622204D01*
X158099500Y-71724983D01*
X158099500Y-73075001D01*
X158099501Y-73075018D01*
X158110000Y-73177796D01*
X158110001Y-73177799D01*
X158133761Y-73249500D01*
X158165186Y-73344334D01*
X158254852Y-73489707D01*
X158257289Y-73493657D01*
X158375681Y-73612049D01*
X158390384Y-73638976D01*
X158406977Y-73664795D01*
X158407868Y-73670995D01*
X158409166Y-73673372D01*
X158412000Y-73699730D01*
X158412000Y-73898840D01*
X158392315Y-73965879D01*
X158339511Y-74011634D01*
X158327005Y-74016545D01*
X158255670Y-74040183D01*
X158255669Y-74040184D01*
X158106342Y-74132289D01*
X157987951Y-74250681D01*
X157926628Y-74284166D01*
X157900270Y-74287000D01*
X156686668Y-74287000D01*
X156619629Y-74267315D01*
X156581130Y-74228097D01*
X156567714Y-74206347D01*
X156567711Y-74206343D01*
X156443655Y-74082287D01*
X156318413Y-74005038D01*
X156271688Y-73953090D01*
X156260465Y-73884128D01*
X156288309Y-73820045D01*
X156346377Y-73781189D01*
X156383507Y-73775499D01*
X156600008Y-73775499D01*
X156600016Y-73775498D01*
X156600019Y-73775498D01*
X156656302Y-73769748D01*
X156702797Y-73764999D01*
X156869334Y-73709814D01*
X157018656Y-73617712D01*
X157142712Y-73493656D01*
X157234814Y-73344334D01*
X157289999Y-73177797D01*
X157300500Y-73075009D01*
X157300499Y-71724992D01*
X157289999Y-71622203D01*
X157234814Y-71455666D01*
X157142712Y-71306344D01*
X157024319Y-71187951D01*
X156990834Y-71126628D01*
X156988000Y-71100270D01*
X156988000Y-70699730D01*
X157007685Y-70632691D01*
X157024319Y-70612049D01*
X157142712Y-70493656D01*
X157234814Y-70344334D01*
X157289999Y-70177797D01*
X157296740Y-70111806D01*
X157323135Y-70047116D01*
X157380316Y-70006964D01*
X157450127Y-70004100D01*
X157488989Y-70021307D01*
X157620814Y-70109390D01*
X157620827Y-70109397D01*
X157766498Y-70169735D01*
X157766503Y-70169737D01*
X157884866Y-70193281D01*
X157921153Y-70200499D01*
X157921156Y-70200500D01*
X158027983Y-70200500D01*
X158095022Y-70220185D01*
X158140777Y-70272989D01*
X158145687Y-70285489D01*
X158153747Y-70309814D01*
X158165186Y-70344333D01*
X158165187Y-70344336D01*
X158177932Y-70364999D01*
X158257288Y-70493656D01*
X158381344Y-70617712D01*
X158530666Y-70709814D01*
X158697203Y-70764999D01*
X158799991Y-70775500D01*
X159525008Y-70775499D01*
X159525016Y-70775498D01*
X159525019Y-70775498D01*
X159581302Y-70769748D01*
X159627797Y-70764999D01*
X159794334Y-70709814D01*
X159943656Y-70617712D01*
X160067712Y-70493656D01*
X160159814Y-70344334D01*
X160214999Y-70177797D01*
X160225500Y-70075009D01*
X160225499Y-68724992D01*
X160221986Y-68690606D01*
X160214999Y-68622203D01*
X160214998Y-68622200D01*
X160179311Y-68514505D01*
X160159814Y-68455666D01*
X160067712Y-68306344D01*
X159943656Y-68182288D01*
X159794334Y-68090186D01*
X159627797Y-68035001D01*
X159627795Y-68035000D01*
X159525010Y-68024500D01*
X158799998Y-68024500D01*
X158799980Y-68024501D01*
X158697203Y-68035000D01*
X158697200Y-68035001D01*
X158530668Y-68090185D01*
X158530663Y-68090187D01*
X158381342Y-68182289D01*
X158257289Y-68306342D01*
X158165187Y-68455663D01*
X158165186Y-68455666D01*
X158150496Y-68499999D01*
X158145689Y-68514505D01*
X158105916Y-68571949D01*
X158041400Y-68598772D01*
X158027983Y-68599500D01*
X157921155Y-68599500D01*
X157766510Y-68630261D01*
X157766498Y-68630264D01*
X157620827Y-68690602D01*
X157620814Y-68690609D01*
X157488989Y-68778693D01*
X157422311Y-68799571D01*
X157354931Y-68781087D01*
X157308241Y-68729108D01*
X157296740Y-68688192D01*
X157289999Y-68622203D01*
X157289998Y-68622200D01*
X157254311Y-68514505D01*
X157234814Y-68455666D01*
X157142712Y-68306344D01*
X157018656Y-68182288D01*
X156869334Y-68090186D01*
X156702797Y-68035001D01*
X156702795Y-68035000D01*
X156600010Y-68024500D01*
X155874998Y-68024500D01*
X155874980Y-68024501D01*
X155772203Y-68035000D01*
X155772200Y-68035001D01*
X155605668Y-68090185D01*
X155605663Y-68090187D01*
X155456342Y-68182289D01*
X155332289Y-68306342D01*
X155240187Y-68455663D01*
X155240185Y-68455668D01*
X155225496Y-68499998D01*
X155185001Y-68622203D01*
X155185001Y-68622204D01*
X155185000Y-68622204D01*
X155174500Y-68724983D01*
X155174500Y-70075001D01*
X155174501Y-70075018D01*
X155185000Y-70177796D01*
X155185001Y-70177799D01*
X155240185Y-70344331D01*
X155240187Y-70344336D01*
X155332289Y-70493657D01*
X155450681Y-70612049D01*
X155484166Y-70673372D01*
X155487000Y-70699730D01*
X155487000Y-71025500D01*
X155467315Y-71092539D01*
X155414511Y-71138294D01*
X155363000Y-71149500D01*
X148326080Y-71149500D01*
X148181092Y-71178340D01*
X148181082Y-71178343D01*
X148044511Y-71234912D01*
X148044498Y-71234919D01*
X147921584Y-71317048D01*
X147921580Y-71317051D01*
X147417045Y-71821586D01*
X147395594Y-71853692D01*
X147387035Y-71866503D01*
X147360885Y-71905638D01*
X147334914Y-71944507D01*
X147278342Y-72081084D01*
X147278341Y-72081089D01*
X147274258Y-72101615D01*
X147241871Y-72163525D01*
X147191645Y-72195127D01*
X147055668Y-72240185D01*
X147055663Y-72240187D01*
X146906342Y-72332289D01*
X146787951Y-72450681D01*
X146726628Y-72484166D01*
X146700270Y-72487000D01*
X143499730Y-72487000D01*
X143432691Y-72467315D01*
X143412049Y-72450681D01*
X143393657Y-72432289D01*
X143393656Y-72432288D01*
X143244334Y-72340186D01*
X143077797Y-72285001D01*
X143077795Y-72285000D01*
X142975016Y-72274500D01*
X142975009Y-72274500D01*
X142349729Y-72274500D01*
X142282690Y-72254815D01*
X142262048Y-72238181D01*
X141540921Y-71517052D01*
X141540914Y-71517046D01*
X141467229Y-71467812D01*
X141467229Y-71467813D01*
X141417991Y-71434913D01*
X141281417Y-71378343D01*
X141281407Y-71378340D01*
X141136420Y-71349500D01*
X141136418Y-71349500D01*
X132204604Y-71349500D01*
X132157155Y-71340062D01*
X132133497Y-71330263D01*
X132133493Y-71330262D01*
X132133488Y-71330260D01*
X131978845Y-71299500D01*
X131978842Y-71299500D01*
X131821158Y-71299500D01*
X131821155Y-71299500D01*
X131666511Y-71330260D01*
X131666506Y-71330262D01*
X131666504Y-71330262D01*
X131666503Y-71330263D01*
X131642844Y-71340062D01*
X131595396Y-71349500D01*
X122837000Y-71349500D01*
X122769961Y-71329815D01*
X122724206Y-71277011D01*
X122713000Y-71225500D01*
X122713000Y-70299730D01*
X122732685Y-70232691D01*
X122749319Y-70212049D01*
X122791633Y-70169735D01*
X122867712Y-70093656D01*
X122959814Y-69944334D01*
X123014999Y-69777797D01*
X123025500Y-69675009D01*
X123025499Y-68780327D01*
X123045183Y-68713289D01*
X123097987Y-68667534D01*
X123149499Y-68656328D01*
X125052868Y-68656328D01*
X125052868Y-66324500D01*
X125072553Y-66257461D01*
X125125357Y-66211706D01*
X125176868Y-66200500D01*
X128912482Y-66200500D01*
X128913966Y-66200509D01*
X162178446Y-66598545D01*
X162245244Y-66619030D01*
X162290364Y-66672378D01*
X162300957Y-66721560D01*
X162591041Y-103562358D01*
X162571885Y-103629550D01*
X162519443Y-103675719D01*
X162466864Y-103687334D01*
X104413132Y-103602583D01*
X104346121Y-103582800D01*
X104300444Y-103529930D01*
X104289325Y-103480205D01*
X104279021Y-102688849D01*
X112894700Y-102688849D01*
X113002308Y-102724506D01*
X113002305Y-102724506D01*
X113105019Y-102734999D01*
X114884971Y-102734999D01*
X114884987Y-102734998D01*
X114987697Y-102724505D01*
X115095297Y-102688850D01*
X115095298Y-102688849D01*
X123114700Y-102688849D01*
X123222308Y-102724506D01*
X123222305Y-102724506D01*
X123325019Y-102734999D01*
X125104971Y-102734999D01*
X125104987Y-102734998D01*
X125207697Y-102724505D01*
X125315297Y-102688850D01*
X125315298Y-102688849D01*
X124215000Y-101588552D01*
X123114700Y-102688849D01*
X115095298Y-102688849D01*
X113995000Y-101588552D01*
X112894700Y-102688849D01*
X104279021Y-102688849D01*
X104249674Y-100435013D01*
X112405000Y-100435013D01*
X112405000Y-102034971D01*
X112405001Y-102034987D01*
X112415494Y-102137697D01*
X112470641Y-102304119D01*
X112470644Y-102304126D01*
X112509434Y-102367012D01*
X112509435Y-102367012D01*
X113641448Y-101235000D01*
X113641446Y-101234998D01*
X114348552Y-101234998D01*
X114348552Y-101235001D01*
X115480564Y-102367013D01*
X115480564Y-102367012D01*
X115519358Y-102304120D01*
X115574505Y-102137697D01*
X115574506Y-102137690D01*
X115584999Y-102034986D01*
X115584999Y-100435029D01*
X115584998Y-100435013D01*
X122625000Y-100435013D01*
X122625000Y-102034971D01*
X122625001Y-102034987D01*
X122635494Y-102137697D01*
X122690641Y-102304119D01*
X122690644Y-102304126D01*
X122729434Y-102367012D01*
X122729435Y-102367012D01*
X123861448Y-101235000D01*
X123861448Y-101234999D01*
X123861447Y-101234998D01*
X124568552Y-101234998D01*
X124568552Y-101235001D01*
X125700564Y-102367013D01*
X125700564Y-102367012D01*
X125739358Y-102304120D01*
X125794505Y-102137697D01*
X125794506Y-102137690D01*
X125804999Y-102034986D01*
X125804999Y-100435028D01*
X125804998Y-100435012D01*
X125794505Y-100332302D01*
X125739358Y-100165879D01*
X125739355Y-100165873D01*
X125700565Y-100102986D01*
X125700563Y-100102986D01*
X124568552Y-101234998D01*
X123861447Y-101234998D01*
X122729434Y-100102986D01*
X122690643Y-100165875D01*
X122690641Y-100165880D01*
X122635494Y-100332302D01*
X122635493Y-100332309D01*
X122625000Y-100435013D01*
X115584998Y-100435013D01*
X115584998Y-100435012D01*
X115574505Y-100332302D01*
X115519358Y-100165879D01*
X115519355Y-100165873D01*
X115480565Y-100102986D01*
X115480563Y-100102986D01*
X114348552Y-101234998D01*
X113641446Y-101234998D01*
X112509434Y-100102986D01*
X112470643Y-100165875D01*
X112470641Y-100165880D01*
X112415494Y-100332302D01*
X112415493Y-100332309D01*
X112405000Y-100435013D01*
X104249674Y-100435013D01*
X104241160Y-99781148D01*
X112894700Y-99781148D01*
X112894700Y-99781149D01*
X113995000Y-100881448D01*
X113995001Y-100881448D01*
X115095298Y-99781149D01*
X115095298Y-99781148D01*
X123114700Y-99781148D01*
X123114700Y-99781149D01*
X124215000Y-100881448D01*
X124215001Y-100881448D01*
X125315298Y-99781149D01*
X125315298Y-99781148D01*
X125207699Y-99745494D01*
X125104979Y-99735000D01*
X123325028Y-99735000D01*
X123325012Y-99735001D01*
X123222302Y-99745494D01*
X123114700Y-99781148D01*
X115095298Y-99781148D01*
X114987699Y-99745494D01*
X114884979Y-99735000D01*
X113105028Y-99735000D01*
X113105012Y-99735001D01*
X113002302Y-99745494D01*
X112894700Y-99781148D01*
X104241160Y-99781148D01*
X104227849Y-98758849D01*
X112894700Y-98758849D01*
X113002308Y-98794506D01*
X113002305Y-98794506D01*
X113105019Y-98804999D01*
X114884971Y-98804999D01*
X114884987Y-98804998D01*
X114987697Y-98794505D01*
X115095297Y-98758850D01*
X115095298Y-98758849D01*
X113995000Y-97658552D01*
X112894700Y-98758849D01*
X104227849Y-98758849D01*
X104198160Y-96478711D01*
X105749500Y-96478711D01*
X105749500Y-96721288D01*
X105781161Y-96961785D01*
X105843947Y-97196104D01*
X105889054Y-97305001D01*
X105936776Y-97420212D01*
X106058064Y-97630289D01*
X106058066Y-97630292D01*
X106058067Y-97630293D01*
X106205733Y-97822736D01*
X106205739Y-97822743D01*
X106377256Y-97994260D01*
X106377262Y-97994265D01*
X106569711Y-98141936D01*
X106779788Y-98263224D01*
X107003900Y-98356054D01*
X107238211Y-98418838D01*
X107418586Y-98442584D01*
X107478711Y-98450500D01*
X107478712Y-98450500D01*
X107721289Y-98450500D01*
X107769388Y-98444167D01*
X107961789Y-98418838D01*
X108196100Y-98356054D01*
X108420212Y-98263224D01*
X108630289Y-98141936D01*
X108822738Y-97994265D01*
X108994265Y-97822738D01*
X109141936Y-97630289D01*
X109263224Y-97420212D01*
X109356054Y-97196100D01*
X109418838Y-96961789D01*
X109450500Y-96721288D01*
X109450500Y-96505013D01*
X112405000Y-96505013D01*
X112405000Y-98104971D01*
X112405001Y-98104987D01*
X112415494Y-98207697D01*
X112470641Y-98374119D01*
X112470644Y-98374126D01*
X112509434Y-98437012D01*
X112509435Y-98437012D01*
X113641448Y-97305000D01*
X112509434Y-96172986D01*
X112470643Y-96235875D01*
X112470641Y-96235880D01*
X112415494Y-96402302D01*
X112415493Y-96402309D01*
X112405000Y-96505013D01*
X109450500Y-96505013D01*
X109450500Y-96478712D01*
X109418838Y-96238211D01*
X109356054Y-96003900D01*
X109263224Y-95779788D01*
X109141936Y-95569711D01*
X108998633Y-95382954D01*
X108994266Y-95377263D01*
X108994260Y-95377256D01*
X108822743Y-95205739D01*
X108822736Y-95205733D01*
X108630293Y-95058067D01*
X108630292Y-95058066D01*
X108630289Y-95058064D01*
X108420212Y-94936776D01*
X108420205Y-94936773D01*
X108196104Y-94843947D01*
X107961785Y-94781161D01*
X107721289Y-94749500D01*
X107721288Y-94749500D01*
X107478712Y-94749500D01*
X107478711Y-94749500D01*
X107238214Y-94781161D01*
X107003895Y-94843947D01*
X106779794Y-94936773D01*
X106779785Y-94936777D01*
X106569706Y-95058067D01*
X106377263Y-95205733D01*
X106377256Y-95205739D01*
X106205739Y-95377256D01*
X106205733Y-95377263D01*
X106058067Y-95569706D01*
X105936777Y-95779785D01*
X105936773Y-95779794D01*
X105843947Y-96003895D01*
X105781161Y-96238214D01*
X105749500Y-96478711D01*
X104198160Y-96478711D01*
X104066927Y-86400014D01*
X106100000Y-86400014D01*
X106100000Y-87350000D01*
X107399999Y-87350000D01*
X107374979Y-87410402D01*
X107350000Y-87535981D01*
X107350000Y-87664019D01*
X107374979Y-87789598D01*
X107399999Y-87850000D01*
X106100000Y-87850000D01*
X106100000Y-88799985D01*
X106110493Y-88902689D01*
X106110494Y-88902696D01*
X106165641Y-89069118D01*
X106165643Y-89069123D01*
X106257684Y-89218344D01*
X106381655Y-89342315D01*
X106530876Y-89434356D01*
X106530881Y-89434358D01*
X106697303Y-89489505D01*
X106697310Y-89489506D01*
X106800014Y-89499999D01*
X106800027Y-89500000D01*
X107750000Y-89500000D01*
X107750000Y-88200001D01*
X107810402Y-88225021D01*
X107935981Y-88250000D01*
X108064019Y-88250000D01*
X108189598Y-88225021D01*
X108250000Y-88200001D01*
X108250000Y-89500000D01*
X109199973Y-89500000D01*
X109199985Y-89499999D01*
X109302689Y-89489506D01*
X109302696Y-89489505D01*
X109469118Y-89434358D01*
X109469123Y-89434356D01*
X109618344Y-89342315D01*
X109742315Y-89218344D01*
X109834356Y-89069123D01*
X109834358Y-89069118D01*
X109889505Y-88902696D01*
X109889506Y-88902689D01*
X109899999Y-88799985D01*
X109900000Y-88799972D01*
X109900000Y-87850000D01*
X108600001Y-87850000D01*
X108625021Y-87789598D01*
X108650000Y-87664019D01*
X108650000Y-87535981D01*
X108625021Y-87410402D01*
X108600001Y-87350000D01*
X109900000Y-87350000D01*
X109900000Y-86400027D01*
X109899999Y-86400014D01*
X109889506Y-86297310D01*
X109889505Y-86297303D01*
X109834358Y-86130881D01*
X109834356Y-86130876D01*
X109742315Y-85981655D01*
X109618344Y-85857684D01*
X109469123Y-85765643D01*
X109469118Y-85765641D01*
X109302696Y-85710494D01*
X109302689Y-85710493D01*
X109199985Y-85700000D01*
X108250000Y-85700000D01*
X108250000Y-86999998D01*
X108189598Y-86974979D01*
X108064019Y-86950000D01*
X107935981Y-86950000D01*
X107810402Y-86974979D01*
X107750000Y-86999998D01*
X107750000Y-85700000D01*
X106800014Y-85700000D01*
X106697310Y-85710493D01*
X106697303Y-85710494D01*
X106530881Y-85765641D01*
X106530876Y-85765643D01*
X106381655Y-85857684D01*
X106257684Y-85981655D01*
X106165643Y-86130876D01*
X106165641Y-86130881D01*
X106110494Y-86297303D01*
X106110493Y-86297310D01*
X106100000Y-86400014D01*
X104066927Y-86400014D01*
X104028675Y-83462230D01*
X103987146Y-80272757D01*
X106156153Y-80272757D01*
X109752868Y-80272757D01*
X109752868Y-76676042D01*
X106156153Y-76676042D01*
X106156153Y-80272757D01*
X103987146Y-80272757D01*
X103939666Y-76626294D01*
X103885661Y-72478711D01*
X105549500Y-72478711D01*
X105549500Y-72721288D01*
X105574009Y-72907461D01*
X105581162Y-72961789D01*
X105606317Y-73055668D01*
X105643947Y-73196104D01*
X105719379Y-73378213D01*
X105736776Y-73420212D01*
X105858064Y-73630289D01*
X105858066Y-73630292D01*
X105858067Y-73630293D01*
X106005733Y-73822736D01*
X106005739Y-73822743D01*
X106177256Y-73994260D01*
X106177263Y-73994266D01*
X106237109Y-74040187D01*
X106369711Y-74141936D01*
X106579788Y-74263224D01*
X106803900Y-74356054D01*
X107038211Y-74418838D01*
X107218586Y-74442584D01*
X107278711Y-74450500D01*
X107278712Y-74450500D01*
X107521289Y-74450500D01*
X107569388Y-74444167D01*
X107761789Y-74418838D01*
X107996100Y-74356054D01*
X108220212Y-74263224D01*
X108430289Y-74141936D01*
X108622738Y-73994265D01*
X108695850Y-73921153D01*
X116499500Y-73921153D01*
X116499500Y-74078846D01*
X116530261Y-74233489D01*
X116530264Y-74233501D01*
X116590602Y-74379172D01*
X116590609Y-74379185D01*
X116678210Y-74510288D01*
X116678213Y-74510292D01*
X116789707Y-74621786D01*
X116789711Y-74621789D01*
X116920814Y-74709390D01*
X116920827Y-74709397D01*
X117020060Y-74750500D01*
X117066503Y-74769737D01*
X117221153Y-74800499D01*
X117221156Y-74800500D01*
X117221158Y-74800500D01*
X117378844Y-74800500D01*
X117378845Y-74800499D01*
X117492987Y-74777795D01*
X117533488Y-74769739D01*
X117533489Y-74769738D01*
X117533497Y-74769737D01*
X117557155Y-74759937D01*
X117565329Y-74758311D01*
X117569669Y-74755523D01*
X117604604Y-74750500D01*
X117786415Y-74750500D01*
X117853454Y-74770185D01*
X117899209Y-74822989D01*
X117904118Y-74835489D01*
X117940186Y-74944334D01*
X118032288Y-75093656D01*
X118156344Y-75217712D01*
X118305666Y-75309814D01*
X118472203Y-75364999D01*
X118574991Y-75375500D01*
X119300008Y-75375499D01*
X119300016Y-75375498D01*
X119300019Y-75375498D01*
X119356302Y-75369748D01*
X119402797Y-75364999D01*
X119569334Y-75309814D01*
X119718656Y-75217712D01*
X119842712Y-75093656D01*
X119934814Y-74944334D01*
X119989999Y-74777797D01*
X120000500Y-74675009D01*
X120000499Y-73324992D01*
X119996986Y-73290606D01*
X119989999Y-73222203D01*
X119989998Y-73222200D01*
X119975284Y-73177796D01*
X119934814Y-73055666D01*
X119842712Y-72906344D01*
X119718656Y-72782288D01*
X119569334Y-72690186D01*
X119402797Y-72635001D01*
X119402795Y-72635000D01*
X119300010Y-72624500D01*
X118574998Y-72624500D01*
X118574980Y-72624501D01*
X118472203Y-72635000D01*
X118472200Y-72635001D01*
X118305668Y-72690185D01*
X118305663Y-72690187D01*
X118156342Y-72782289D01*
X118032289Y-72906342D01*
X117940187Y-73055663D01*
X117940185Y-73055668D01*
X117904121Y-73164504D01*
X117890250Y-73184536D01*
X117880128Y-73206703D01*
X117870715Y-73212751D01*
X117864348Y-73221949D01*
X117841848Y-73231303D01*
X117821350Y-73244477D01*
X117804249Y-73246935D01*
X117799833Y-73248772D01*
X117786415Y-73249500D01*
X117604604Y-73249500D01*
X117557155Y-73240062D01*
X117533497Y-73230263D01*
X117533493Y-73230262D01*
X117533488Y-73230260D01*
X117378845Y-73199500D01*
X117378842Y-73199500D01*
X117221158Y-73199500D01*
X117221155Y-73199500D01*
X117066510Y-73230261D01*
X117066498Y-73230264D01*
X116920827Y-73290602D01*
X116920814Y-73290609D01*
X116789711Y-73378210D01*
X116789707Y-73378213D01*
X116678213Y-73489707D01*
X116678210Y-73489711D01*
X116590609Y-73620814D01*
X116590602Y-73620827D01*
X116530264Y-73766498D01*
X116530261Y-73766510D01*
X116499500Y-73921153D01*
X108695850Y-73921153D01*
X108698193Y-73918810D01*
X108789619Y-73827385D01*
X108794260Y-73822743D01*
X108794265Y-73822738D01*
X108941936Y-73630289D01*
X109063224Y-73420212D01*
X109156054Y-73196100D01*
X109218838Y-72961789D01*
X109250500Y-72721288D01*
X109250500Y-72478712D01*
X109218838Y-72238211D01*
X109156054Y-72003900D01*
X109063224Y-71779788D01*
X108941936Y-71569711D01*
X108831279Y-71425500D01*
X108794266Y-71377263D01*
X108794260Y-71377256D01*
X108622743Y-71205739D01*
X108622736Y-71205733D01*
X108430293Y-71058067D01*
X108430292Y-71058066D01*
X108430289Y-71058064D01*
X108258661Y-70958974D01*
X108220214Y-70936777D01*
X108220205Y-70936773D01*
X107996104Y-70843947D01*
X107761785Y-70781161D01*
X107521289Y-70749500D01*
X107521288Y-70749500D01*
X107278712Y-70749500D01*
X107278711Y-70749500D01*
X107038214Y-70781161D01*
X106803895Y-70843947D01*
X106579794Y-70936773D01*
X106579785Y-70936777D01*
X106369706Y-71058067D01*
X106177263Y-71205733D01*
X106177256Y-71205739D01*
X106005739Y-71377256D01*
X106005733Y-71377263D01*
X105858067Y-71569706D01*
X105736777Y-71779785D01*
X105736773Y-71779794D01*
X105643947Y-72003895D01*
X105581161Y-72238214D01*
X105549500Y-72478711D01*
X103885661Y-72478711D01*
X103885629Y-72476267D01*
X103853386Y-69999983D01*
X112324500Y-69999983D01*
X112324500Y-70725001D01*
X112324501Y-70725019D01*
X112335000Y-70827796D01*
X112335001Y-70827799D01*
X112371112Y-70936773D01*
X112390186Y-70994334D01*
X112482288Y-71143656D01*
X112606344Y-71267712D01*
X112755666Y-71359814D01*
X112922203Y-71414999D01*
X113024991Y-71425500D01*
X114375008Y-71425499D01*
X114477797Y-71414999D01*
X114644334Y-71359814D01*
X114793656Y-71267712D01*
X114912049Y-71149319D01*
X114973372Y-71115834D01*
X114999730Y-71113000D01*
X117748920Y-71113000D01*
X117863614Y-71090185D01*
X117893913Y-71084158D01*
X118030495Y-71027584D01*
X118080257Y-70994334D01*
X118153416Y-70945452D01*
X118687049Y-70411817D01*
X118748372Y-70378333D01*
X118774730Y-70375499D01*
X119400002Y-70375499D01*
X119400008Y-70375499D01*
X119502797Y-70364999D01*
X119669334Y-70309814D01*
X119818656Y-70217712D01*
X119942712Y-70093656D01*
X120034814Y-69944334D01*
X120089999Y-69777797D01*
X120100500Y-69675009D01*
X120100499Y-68324992D01*
X120089999Y-68222203D01*
X120034814Y-68055666D01*
X119942712Y-67906344D01*
X119818656Y-67782288D01*
X119669334Y-67690186D01*
X119502797Y-67635001D01*
X119502795Y-67635000D01*
X119400010Y-67624500D01*
X118674998Y-67624500D01*
X118674980Y-67624501D01*
X118572203Y-67635000D01*
X118572200Y-67635001D01*
X118405668Y-67690185D01*
X118405663Y-67690187D01*
X118256342Y-67782289D01*
X118132289Y-67906342D01*
X118040187Y-68055663D01*
X118040185Y-68055668D01*
X118028747Y-68090186D01*
X117985001Y-68222203D01*
X117985001Y-68222204D01*
X117985000Y-68222204D01*
X117974500Y-68324983D01*
X117974500Y-68950269D01*
X117954815Y-69017308D01*
X117938181Y-69037950D01*
X117400451Y-69575681D01*
X117339128Y-69609166D01*
X117312770Y-69612000D01*
X114999730Y-69612000D01*
X114932691Y-69592315D01*
X114912049Y-69575681D01*
X114793657Y-69457289D01*
X114793656Y-69457288D01*
X114644334Y-69365186D01*
X114477797Y-69310001D01*
X114477795Y-69310000D01*
X114375010Y-69299500D01*
X113024998Y-69299500D01*
X113024981Y-69299501D01*
X112922203Y-69310000D01*
X112922200Y-69310001D01*
X112755668Y-69365185D01*
X112755663Y-69365187D01*
X112606342Y-69457289D01*
X112482289Y-69581342D01*
X112390187Y-69730663D01*
X112390185Y-69730668D01*
X112369204Y-69793986D01*
X112335001Y-69897203D01*
X112335001Y-69897204D01*
X112335000Y-69897204D01*
X112324500Y-69999983D01*
X103853386Y-69999983D01*
X103853366Y-69998448D01*
X103824740Y-67799986D01*
X112325001Y-67799986D01*
X112335494Y-67902697D01*
X112390641Y-68069119D01*
X112390643Y-68069124D01*
X112482684Y-68218345D01*
X112606654Y-68342315D01*
X112755875Y-68434356D01*
X112755880Y-68434358D01*
X112922302Y-68489505D01*
X112922309Y-68489506D01*
X113025019Y-68499999D01*
X113449999Y-68499999D01*
X113950000Y-68499999D01*
X114374972Y-68499999D01*
X114374986Y-68499998D01*
X114477697Y-68489505D01*
X114644119Y-68434358D01*
X114644124Y-68434356D01*
X114793345Y-68342315D01*
X114917315Y-68218345D01*
X115009356Y-68069124D01*
X115009358Y-68069119D01*
X115064505Y-67902697D01*
X115064506Y-67902690D01*
X115074999Y-67799986D01*
X115075000Y-67799973D01*
X115075000Y-67687500D01*
X113950000Y-67687500D01*
X113950000Y-68499999D01*
X113449999Y-68499999D01*
X113450000Y-68499998D01*
X113450000Y-67687500D01*
X112325001Y-67687500D01*
X112325001Y-67799986D01*
X103824740Y-67799986D01*
X103822628Y-67637752D01*
X103805549Y-66326114D01*
X103824359Y-66258824D01*
X103876562Y-66212386D01*
X103929538Y-66200500D01*
X112712156Y-66200500D01*
X112779195Y-66220185D01*
G37*
%TD.AperFunction*%
%TA.AperFunction,Conductor*%
G36*
X120697539Y-94019185D02*
G01*
X120743294Y-94071989D01*
X120754500Y-94123500D01*
X120754500Y-94342581D01*
X120734815Y-94409620D01*
X120682011Y-94455375D01*
X120612853Y-94465319D01*
X120561610Y-94445683D01*
X120479190Y-94390612D01*
X120479172Y-94390602D01*
X120333501Y-94330264D01*
X120333489Y-94330261D01*
X120178845Y-94299500D01*
X120178842Y-94299500D01*
X120021158Y-94299500D01*
X120021155Y-94299500D01*
X119866510Y-94330261D01*
X119866498Y-94330264D01*
X119720827Y-94390602D01*
X119720814Y-94390609D01*
X119668891Y-94425304D01*
X119602214Y-94446182D01*
X119534833Y-94427698D01*
X119531109Y-94425304D01*
X119479185Y-94390609D01*
X119479172Y-94390602D01*
X119333501Y-94330264D01*
X119333489Y-94330261D01*
X119178845Y-94299500D01*
X119178842Y-94299500D01*
X119021158Y-94299500D01*
X119021155Y-94299500D01*
X118866510Y-94330261D01*
X118866498Y-94330264D01*
X118720827Y-94390602D01*
X118720814Y-94390609D01*
X118589711Y-94478210D01*
X118589707Y-94478213D01*
X118478213Y-94589707D01*
X118478210Y-94589711D01*
X118390609Y-94720814D01*
X118390602Y-94720827D01*
X118330264Y-94866498D01*
X118330261Y-94866508D01*
X118299361Y-95021850D01*
X118266976Y-95083761D01*
X118265425Y-95085339D01*
X117874481Y-95476282D01*
X117874477Y-95476287D01*
X117854119Y-95511551D01*
X117854117Y-95511555D01*
X117804571Y-95597368D01*
X117754003Y-95645583D01*
X117713372Y-95658305D01*
X117658450Y-95665536D01*
X117629764Y-95669313D01*
X117629762Y-95669313D01*
X117621709Y-95670374D01*
X117621317Y-95667399D01*
X117588682Y-95667399D01*
X117588290Y-95670374D01*
X117580237Y-95669313D01*
X117580236Y-95669313D01*
X117563311Y-95667084D01*
X117499416Y-95638817D01*
X117460946Y-95580491D01*
X117455500Y-95544146D01*
X117455500Y-94157229D01*
X117464144Y-94127788D01*
X117470668Y-94097802D01*
X117474422Y-94092786D01*
X117475185Y-94090190D01*
X117491819Y-94069548D01*
X117525548Y-94035819D01*
X117586871Y-94002334D01*
X117613229Y-93999500D01*
X120630500Y-93999500D01*
X120697539Y-94019185D01*
G37*
%TD.AperFunction*%
%TD*%
M02*
