%TF.GenerationSoftware,KiCad,Pcbnew,9.0.4*%
%TF.CreationDate,2025-09-12T11:43:07+02:00*%
%TF.ProjectId,inverter comms,696e7665-7274-4657-9220-636f6d6d732e,rev?*%
%TF.SameCoordinates,Original*%
%TF.FileFunction,Legend,Bot*%
%TF.FilePolarity,Positive*%
%FSLAX46Y46*%
G04 Gerber Fmt 4.6, Leading zero omitted, Abs format (unit mm)*
G04 Created by KiCad (PCBNEW 9.0.4) date 2025-09-12 11:43:07*
%MOMM*%
%LPD*%
G01*
G04 APERTURE LIST*
%ADD10C,0.150000*%
%ADD11C,0.120000*%
%ADD12C,3.650000*%
G04 APERTURE END LIST*
D10*
X153961904Y-82359819D02*
X153961904Y-83169342D01*
X153961904Y-83169342D02*
X153914285Y-83264580D01*
X153914285Y-83264580D02*
X153866666Y-83312200D01*
X153866666Y-83312200D02*
X153771428Y-83359819D01*
X153771428Y-83359819D02*
X153580952Y-83359819D01*
X153580952Y-83359819D02*
X153485714Y-83312200D01*
X153485714Y-83312200D02*
X153438095Y-83264580D01*
X153438095Y-83264580D02*
X153390476Y-83169342D01*
X153390476Y-83169342D02*
X153390476Y-82359819D01*
X152961904Y-82455057D02*
X152914285Y-82407438D01*
X152914285Y-82407438D02*
X152819047Y-82359819D01*
X152819047Y-82359819D02*
X152580952Y-82359819D01*
X152580952Y-82359819D02*
X152485714Y-82407438D01*
X152485714Y-82407438D02*
X152438095Y-82455057D01*
X152438095Y-82455057D02*
X152390476Y-82550295D01*
X152390476Y-82550295D02*
X152390476Y-82645533D01*
X152390476Y-82645533D02*
X152438095Y-82788390D01*
X152438095Y-82788390D02*
X153009523Y-83359819D01*
X153009523Y-83359819D02*
X152390476Y-83359819D01*
X147532680Y-84491904D02*
X146723157Y-84491904D01*
X146723157Y-84491904D02*
X146627919Y-84444285D01*
X146627919Y-84444285D02*
X146580300Y-84396666D01*
X146580300Y-84396666D02*
X146532680Y-84301428D01*
X146532680Y-84301428D02*
X146532680Y-84110952D01*
X146532680Y-84110952D02*
X146580300Y-84015714D01*
X146580300Y-84015714D02*
X146627919Y-83968095D01*
X146627919Y-83968095D02*
X146723157Y-83920476D01*
X146723157Y-83920476D02*
X147532680Y-83920476D01*
X146532680Y-82920476D02*
X146532680Y-83491904D01*
X146532680Y-83206190D02*
X147532680Y-83206190D01*
X147532680Y-83206190D02*
X147389823Y-83301428D01*
X147389823Y-83301428D02*
X147294585Y-83396666D01*
X147294585Y-83396666D02*
X147246966Y-83491904D01*
X120024819Y-100433333D02*
X119548628Y-100100000D01*
X120024819Y-99861905D02*
X119024819Y-99861905D01*
X119024819Y-99861905D02*
X119024819Y-100242857D01*
X119024819Y-100242857D02*
X119072438Y-100338095D01*
X119072438Y-100338095D02*
X119120057Y-100385714D01*
X119120057Y-100385714D02*
X119215295Y-100433333D01*
X119215295Y-100433333D02*
X119358152Y-100433333D01*
X119358152Y-100433333D02*
X119453390Y-100385714D01*
X119453390Y-100385714D02*
X119501009Y-100338095D01*
X119501009Y-100338095D02*
X119548628Y-100242857D01*
X119548628Y-100242857D02*
X119548628Y-99861905D01*
X119024819Y-100766667D02*
X119024819Y-101385714D01*
X119024819Y-101385714D02*
X119405771Y-101052381D01*
X119405771Y-101052381D02*
X119405771Y-101195238D01*
X119405771Y-101195238D02*
X119453390Y-101290476D01*
X119453390Y-101290476D02*
X119501009Y-101338095D01*
X119501009Y-101338095D02*
X119596247Y-101385714D01*
X119596247Y-101385714D02*
X119834342Y-101385714D01*
X119834342Y-101385714D02*
X119929580Y-101338095D01*
X119929580Y-101338095D02*
X119977200Y-101290476D01*
X119977200Y-101290476D02*
X120024819Y-101195238D01*
X120024819Y-101195238D02*
X120024819Y-100909524D01*
X120024819Y-100909524D02*
X119977200Y-100814286D01*
X119977200Y-100814286D02*
X119929580Y-100766667D01*
X147329580Y-69633333D02*
X147377200Y-69585714D01*
X147377200Y-69585714D02*
X147424819Y-69442857D01*
X147424819Y-69442857D02*
X147424819Y-69347619D01*
X147424819Y-69347619D02*
X147377200Y-69204762D01*
X147377200Y-69204762D02*
X147281961Y-69109524D01*
X147281961Y-69109524D02*
X147186723Y-69061905D01*
X147186723Y-69061905D02*
X146996247Y-69014286D01*
X146996247Y-69014286D02*
X146853390Y-69014286D01*
X146853390Y-69014286D02*
X146662914Y-69061905D01*
X146662914Y-69061905D02*
X146567676Y-69109524D01*
X146567676Y-69109524D02*
X146472438Y-69204762D01*
X146472438Y-69204762D02*
X146424819Y-69347619D01*
X146424819Y-69347619D02*
X146424819Y-69442857D01*
X146424819Y-69442857D02*
X146472438Y-69585714D01*
X146472438Y-69585714D02*
X146520057Y-69633333D01*
X147424819Y-70585714D02*
X147424819Y-70014286D01*
X147424819Y-70300000D02*
X146424819Y-70300000D01*
X146424819Y-70300000D02*
X146567676Y-70204762D01*
X146567676Y-70204762D02*
X146662914Y-70109524D01*
X146662914Y-70109524D02*
X146710533Y-70014286D01*
X115924819Y-100433333D02*
X115448628Y-100100000D01*
X115924819Y-99861905D02*
X114924819Y-99861905D01*
X114924819Y-99861905D02*
X114924819Y-100242857D01*
X114924819Y-100242857D02*
X114972438Y-100338095D01*
X114972438Y-100338095D02*
X115020057Y-100385714D01*
X115020057Y-100385714D02*
X115115295Y-100433333D01*
X115115295Y-100433333D02*
X115258152Y-100433333D01*
X115258152Y-100433333D02*
X115353390Y-100385714D01*
X115353390Y-100385714D02*
X115401009Y-100338095D01*
X115401009Y-100338095D02*
X115448628Y-100242857D01*
X115448628Y-100242857D02*
X115448628Y-99861905D01*
X115924819Y-101385714D02*
X115924819Y-100814286D01*
X115924819Y-101100000D02*
X114924819Y-101100000D01*
X114924819Y-101100000D02*
X115067676Y-101004762D01*
X115067676Y-101004762D02*
X115162914Y-100909524D01*
X115162914Y-100909524D02*
X115210533Y-100814286D01*
X145188094Y-91104819D02*
X145188094Y-90104819D01*
X145188094Y-90104819D02*
X144949999Y-90104819D01*
X144949999Y-90104819D02*
X144807142Y-90152438D01*
X144807142Y-90152438D02*
X144711904Y-90247676D01*
X144711904Y-90247676D02*
X144664285Y-90342914D01*
X144664285Y-90342914D02*
X144616666Y-90533390D01*
X144616666Y-90533390D02*
X144616666Y-90676247D01*
X144616666Y-90676247D02*
X144664285Y-90866723D01*
X144664285Y-90866723D02*
X144711904Y-90961961D01*
X144711904Y-90961961D02*
X144807142Y-91057200D01*
X144807142Y-91057200D02*
X144949999Y-91104819D01*
X144949999Y-91104819D02*
X145188094Y-91104819D01*
X143759523Y-90438152D02*
X143759523Y-91104819D01*
X143997618Y-90057200D02*
X144235713Y-90771485D01*
X144235713Y-90771485D02*
X143616666Y-90771485D01*
X130954819Y-91611905D02*
X129954819Y-91611905D01*
X129954819Y-91611905D02*
X129954819Y-91850000D01*
X129954819Y-91850000D02*
X130002438Y-91992857D01*
X130002438Y-91992857D02*
X130097676Y-92088095D01*
X130097676Y-92088095D02*
X130192914Y-92135714D01*
X130192914Y-92135714D02*
X130383390Y-92183333D01*
X130383390Y-92183333D02*
X130526247Y-92183333D01*
X130526247Y-92183333D02*
X130716723Y-92135714D01*
X130716723Y-92135714D02*
X130811961Y-92088095D01*
X130811961Y-92088095D02*
X130907200Y-91992857D01*
X130907200Y-91992857D02*
X130954819Y-91850000D01*
X130954819Y-91850000D02*
X130954819Y-91611905D01*
X129954819Y-93040476D02*
X129954819Y-92850000D01*
X129954819Y-92850000D02*
X130002438Y-92754762D01*
X130002438Y-92754762D02*
X130050057Y-92707143D01*
X130050057Y-92707143D02*
X130192914Y-92611905D01*
X130192914Y-92611905D02*
X130383390Y-92564286D01*
X130383390Y-92564286D02*
X130764342Y-92564286D01*
X130764342Y-92564286D02*
X130859580Y-92611905D01*
X130859580Y-92611905D02*
X130907200Y-92659524D01*
X130907200Y-92659524D02*
X130954819Y-92754762D01*
X130954819Y-92754762D02*
X130954819Y-92945238D01*
X130954819Y-92945238D02*
X130907200Y-93040476D01*
X130907200Y-93040476D02*
X130859580Y-93088095D01*
X130859580Y-93088095D02*
X130764342Y-93135714D01*
X130764342Y-93135714D02*
X130526247Y-93135714D01*
X130526247Y-93135714D02*
X130431009Y-93088095D01*
X130431009Y-93088095D02*
X130383390Y-93040476D01*
X130383390Y-93040476D02*
X130335771Y-92945238D01*
X130335771Y-92945238D02*
X130335771Y-92754762D01*
X130335771Y-92754762D02*
X130383390Y-92659524D01*
X130383390Y-92659524D02*
X130431009Y-92611905D01*
X130431009Y-92611905D02*
X130526247Y-92564286D01*
X162188094Y-86454819D02*
X162188094Y-85454819D01*
X162188094Y-85454819D02*
X161949999Y-85454819D01*
X161949999Y-85454819D02*
X161807142Y-85502438D01*
X161807142Y-85502438D02*
X161711904Y-85597676D01*
X161711904Y-85597676D02*
X161664285Y-85692914D01*
X161664285Y-85692914D02*
X161616666Y-85883390D01*
X161616666Y-85883390D02*
X161616666Y-86026247D01*
X161616666Y-86026247D02*
X161664285Y-86216723D01*
X161664285Y-86216723D02*
X161711904Y-86311961D01*
X161711904Y-86311961D02*
X161807142Y-86407200D01*
X161807142Y-86407200D02*
X161949999Y-86454819D01*
X161949999Y-86454819D02*
X162188094Y-86454819D01*
X160711904Y-85454819D02*
X161188094Y-85454819D01*
X161188094Y-85454819D02*
X161235713Y-85931009D01*
X161235713Y-85931009D02*
X161188094Y-85883390D01*
X161188094Y-85883390D02*
X161092856Y-85835771D01*
X161092856Y-85835771D02*
X160854761Y-85835771D01*
X160854761Y-85835771D02*
X160759523Y-85883390D01*
X160759523Y-85883390D02*
X160711904Y-85931009D01*
X160711904Y-85931009D02*
X160664285Y-86026247D01*
X160664285Y-86026247D02*
X160664285Y-86264342D01*
X160664285Y-86264342D02*
X160711904Y-86359580D01*
X160711904Y-86359580D02*
X160759523Y-86407200D01*
X160759523Y-86407200D02*
X160854761Y-86454819D01*
X160854761Y-86454819D02*
X161092856Y-86454819D01*
X161092856Y-86454819D02*
X161188094Y-86407200D01*
X161188094Y-86407200D02*
X161235713Y-86359580D01*
X150829580Y-69733333D02*
X150877200Y-69685714D01*
X150877200Y-69685714D02*
X150924819Y-69542857D01*
X150924819Y-69542857D02*
X150924819Y-69447619D01*
X150924819Y-69447619D02*
X150877200Y-69304762D01*
X150877200Y-69304762D02*
X150781961Y-69209524D01*
X150781961Y-69209524D02*
X150686723Y-69161905D01*
X150686723Y-69161905D02*
X150496247Y-69114286D01*
X150496247Y-69114286D02*
X150353390Y-69114286D01*
X150353390Y-69114286D02*
X150162914Y-69161905D01*
X150162914Y-69161905D02*
X150067676Y-69209524D01*
X150067676Y-69209524D02*
X149972438Y-69304762D01*
X149972438Y-69304762D02*
X149924819Y-69447619D01*
X149924819Y-69447619D02*
X149924819Y-69542857D01*
X149924819Y-69542857D02*
X149972438Y-69685714D01*
X149972438Y-69685714D02*
X150020057Y-69733333D01*
X149924819Y-70066667D02*
X149924819Y-70685714D01*
X149924819Y-70685714D02*
X150305771Y-70352381D01*
X150305771Y-70352381D02*
X150305771Y-70495238D01*
X150305771Y-70495238D02*
X150353390Y-70590476D01*
X150353390Y-70590476D02*
X150401009Y-70638095D01*
X150401009Y-70638095D02*
X150496247Y-70685714D01*
X150496247Y-70685714D02*
X150734342Y-70685714D01*
X150734342Y-70685714D02*
X150829580Y-70638095D01*
X150829580Y-70638095D02*
X150877200Y-70590476D01*
X150877200Y-70590476D02*
X150924819Y-70495238D01*
X150924819Y-70495238D02*
X150924819Y-70209524D01*
X150924819Y-70209524D02*
X150877200Y-70114286D01*
X150877200Y-70114286D02*
X150829580Y-70066667D01*
X120880357Y-76084819D02*
X121213690Y-75608628D01*
X121451785Y-76084819D02*
X121451785Y-75084819D01*
X121451785Y-75084819D02*
X121070833Y-75084819D01*
X121070833Y-75084819D02*
X120975595Y-75132438D01*
X120975595Y-75132438D02*
X120927976Y-75180057D01*
X120927976Y-75180057D02*
X120880357Y-75275295D01*
X120880357Y-75275295D02*
X120880357Y-75418152D01*
X120880357Y-75418152D02*
X120927976Y-75513390D01*
X120927976Y-75513390D02*
X120975595Y-75561009D01*
X120975595Y-75561009D02*
X121070833Y-75608628D01*
X121070833Y-75608628D02*
X121451785Y-75608628D01*
X119927976Y-76084819D02*
X120499404Y-76084819D01*
X120213690Y-76084819D02*
X120213690Y-75084819D01*
X120213690Y-75084819D02*
X120308928Y-75227676D01*
X120308928Y-75227676D02*
X120404166Y-75322914D01*
X120404166Y-75322914D02*
X120499404Y-75370533D01*
X119308928Y-75084819D02*
X119213690Y-75084819D01*
X119213690Y-75084819D02*
X119118452Y-75132438D01*
X119118452Y-75132438D02*
X119070833Y-75180057D01*
X119070833Y-75180057D02*
X119023214Y-75275295D01*
X119023214Y-75275295D02*
X118975595Y-75465771D01*
X118975595Y-75465771D02*
X118975595Y-75703866D01*
X118975595Y-75703866D02*
X119023214Y-75894342D01*
X119023214Y-75894342D02*
X119070833Y-75989580D01*
X119070833Y-75989580D02*
X119118452Y-76037200D01*
X119118452Y-76037200D02*
X119213690Y-76084819D01*
X119213690Y-76084819D02*
X119308928Y-76084819D01*
X119308928Y-76084819D02*
X119404166Y-76037200D01*
X119404166Y-76037200D02*
X119451785Y-75989580D01*
X119451785Y-75989580D02*
X119499404Y-75894342D01*
X119499404Y-75894342D02*
X119547023Y-75703866D01*
X119547023Y-75703866D02*
X119547023Y-75465771D01*
X119547023Y-75465771D02*
X119499404Y-75275295D01*
X119499404Y-75275295D02*
X119451785Y-75180057D01*
X119451785Y-75180057D02*
X119404166Y-75132438D01*
X119404166Y-75132438D02*
X119308928Y-75084819D01*
D11*
%TO.C,U2*%
X153200000Y-82065000D02*
X151250000Y-82065000D01*
X153200000Y-82065000D02*
X155150000Y-82065000D01*
X153200000Y-76945000D02*
X151250000Y-76945000D01*
X153200000Y-76945000D02*
X155150000Y-76945000D01*
X150740000Y-82300000D02*
X150260000Y-82300000D01*
X150500000Y-81970000D01*
X150740000Y-82300000D01*
G36*
X150740000Y-82300000D02*
G01*
X150260000Y-82300000D01*
X150500000Y-81970000D01*
X150740000Y-82300000D01*
G37*
%TO.C,U1*%
X127287500Y-59430000D02*
X127287500Y-65630000D01*
X127287500Y-85280000D02*
X127287500Y-84280000D01*
X127287500Y-85280000D02*
X128787500Y-85280000D01*
X145687500Y-59430000D02*
X127287500Y-59430000D01*
X145687500Y-59430000D02*
X145687500Y-65630000D01*
X145687500Y-84280000D02*
X145687500Y-85280000D01*
X145687500Y-85280000D02*
X144187500Y-85280000D01*
X146187500Y-66305000D02*
X145687500Y-66305000D01*
X145687500Y-65805000D01*
X146187500Y-66305000D01*
G36*
X146187500Y-66305000D02*
G01*
X145687500Y-66305000D01*
X145687500Y-65805000D01*
X146187500Y-66305000D01*
G37*
%TO.C,R3*%
X120490000Y-99872936D02*
X120490000Y-101327064D01*
X122310000Y-99872936D02*
X122310000Y-101327064D01*
%TO.C,C1*%
X147890000Y-69072936D02*
X147890000Y-70527064D01*
X149710000Y-69072936D02*
X149710000Y-70527064D01*
%TO.C,R1*%
X116390000Y-99872936D02*
X116390000Y-101327064D01*
X118210000Y-99872936D02*
X118210000Y-101327064D01*
%TO.C,D4*%
X143820000Y-87240000D02*
X145230000Y-87240000D01*
X143820000Y-89560000D02*
X145230000Y-89560000D01*
X145230000Y-87900000D02*
X145230000Y-87240000D01*
X145230000Y-89560000D02*
X145230000Y-88900000D01*
X143690000Y-89870000D02*
X143210000Y-89870000D01*
X143450000Y-89540000D01*
X143690000Y-89870000D01*
G36*
X143690000Y-89870000D02*
G01*
X143210000Y-89870000D01*
X143450000Y-89540000D01*
X143690000Y-89870000D01*
G37*
%TO.C,D6*%
X127090000Y-92980000D02*
X127090000Y-91570000D01*
X127750000Y-91570000D02*
X127090000Y-91570000D01*
X129410000Y-91570000D02*
X128750000Y-91570000D01*
X129410000Y-92980000D02*
X129410000Y-91570000D01*
X129720000Y-93590000D02*
X129390000Y-93350000D01*
X129720000Y-93110000D01*
X129720000Y-93590000D01*
G36*
X129720000Y-93590000D02*
G01*
X129390000Y-93350000D01*
X129720000Y-93110000D01*
X129720000Y-93590000D01*
G37*
%TO.C,D5*%
X160670000Y-87090000D02*
X160670000Y-87750000D01*
X160670000Y-88750000D02*
X160670000Y-89410000D01*
X162080000Y-87090000D02*
X160670000Y-87090000D01*
X162080000Y-89410000D02*
X160670000Y-89410000D01*
X162450000Y-87110000D02*
X162210000Y-86780000D01*
X162690000Y-86780000D01*
X162450000Y-87110000D01*
G36*
X162450000Y-87110000D02*
G01*
X162210000Y-86780000D01*
X162690000Y-86780000D01*
X162450000Y-87110000D01*
G37*
%TO.C,C3*%
X151390000Y-69172936D02*
X151390000Y-70627064D01*
X153210000Y-69172936D02*
X153210000Y-70627064D01*
%TO.C,R10*%
X119510436Y-72890000D02*
X120964564Y-72890000D01*
X119510436Y-74710000D02*
X120964564Y-74710000D01*
%TD*%
D12*
%TO.C,J1*%
X147600000Y-97100000D03*
X159030000Y-97100000D03*
%TD*%
%TO.C,J2*%
X130170000Y-97000000D03*
X141600000Y-97000000D03*
%TD*%
M02*
