%TF.GenerationSoftware,KiCad,Pcbnew,9.0.4*%
%TF.CreationDate,2025-09-12T11:43:07+02:00*%
%TF.ProjectId,inverter comms,696e7665-7274-4657-9220-636f6d6d732e,rev?*%
%TF.SameCoordinates,Original*%
%TF.FileFunction,Legend,Top*%
%TF.FilePolarity,Positive*%
%FSLAX46Y46*%
G04 Gerber Fmt 4.6, Leading zero omitted, Abs format (unit mm)*
G04 Created by KiCad (PCBNEW 9.0.4) date 2025-09-12 11:43:07*
%MOMM*%
%LPD*%
G01*
G04 APERTURE LIST*
%ADD10C,0.150000*%
%ADD11C,0.120000*%
%ADD12C,3.650000*%
G04 APERTURE END LIST*
D10*
X157533333Y-68024819D02*
X157200000Y-67548628D01*
X156961905Y-68024819D02*
X156961905Y-67024819D01*
X156961905Y-67024819D02*
X157342857Y-67024819D01*
X157342857Y-67024819D02*
X157438095Y-67072438D01*
X157438095Y-67072438D02*
X157485714Y-67120057D01*
X157485714Y-67120057D02*
X157533333Y-67215295D01*
X157533333Y-67215295D02*
X157533333Y-67358152D01*
X157533333Y-67358152D02*
X157485714Y-67453390D01*
X157485714Y-67453390D02*
X157438095Y-67501009D01*
X157438095Y-67501009D02*
X157342857Y-67548628D01*
X157342857Y-67548628D02*
X156961905Y-67548628D01*
X158390476Y-67358152D02*
X158390476Y-68024819D01*
X158152381Y-66977200D02*
X157914286Y-67691485D01*
X157914286Y-67691485D02*
X158533333Y-67691485D01*
X102334819Y-85683333D02*
X103049104Y-85683333D01*
X103049104Y-85683333D02*
X103191961Y-85730952D01*
X103191961Y-85730952D02*
X103287200Y-85826190D01*
X103287200Y-85826190D02*
X103334819Y-85969047D01*
X103334819Y-85969047D02*
X103334819Y-86064285D01*
X102668152Y-84778571D02*
X103334819Y-84778571D01*
X102287200Y-85016666D02*
X103001485Y-85254761D01*
X103001485Y-85254761D02*
X103001485Y-84635714D01*
X118933333Y-75509580D02*
X118885714Y-75557200D01*
X118885714Y-75557200D02*
X118742857Y-75604819D01*
X118742857Y-75604819D02*
X118647619Y-75604819D01*
X118647619Y-75604819D02*
X118504762Y-75557200D01*
X118504762Y-75557200D02*
X118409524Y-75461961D01*
X118409524Y-75461961D02*
X118361905Y-75366723D01*
X118361905Y-75366723D02*
X118314286Y-75176247D01*
X118314286Y-75176247D02*
X118314286Y-75033390D01*
X118314286Y-75033390D02*
X118361905Y-74842914D01*
X118361905Y-74842914D02*
X118409524Y-74747676D01*
X118409524Y-74747676D02*
X118504762Y-74652438D01*
X118504762Y-74652438D02*
X118647619Y-74604819D01*
X118647619Y-74604819D02*
X118742857Y-74604819D01*
X118742857Y-74604819D02*
X118885714Y-74652438D01*
X118885714Y-74652438D02*
X118933333Y-74700057D01*
X119838095Y-74604819D02*
X119361905Y-74604819D01*
X119361905Y-74604819D02*
X119314286Y-75081009D01*
X119314286Y-75081009D02*
X119361905Y-75033390D01*
X119361905Y-75033390D02*
X119457143Y-74985771D01*
X119457143Y-74985771D02*
X119695238Y-74985771D01*
X119695238Y-74985771D02*
X119790476Y-75033390D01*
X119790476Y-75033390D02*
X119838095Y-75081009D01*
X119838095Y-75081009D02*
X119885714Y-75176247D01*
X119885714Y-75176247D02*
X119885714Y-75414342D01*
X119885714Y-75414342D02*
X119838095Y-75509580D01*
X119838095Y-75509580D02*
X119790476Y-75557200D01*
X119790476Y-75557200D02*
X119695238Y-75604819D01*
X119695238Y-75604819D02*
X119457143Y-75604819D01*
X119457143Y-75604819D02*
X119361905Y-75557200D01*
X119361905Y-75557200D02*
X119314286Y-75509580D01*
X130011905Y-77654819D02*
X130011905Y-76654819D01*
X130011905Y-76654819D02*
X130250000Y-76654819D01*
X130250000Y-76654819D02*
X130392857Y-76702438D01*
X130392857Y-76702438D02*
X130488095Y-76797676D01*
X130488095Y-76797676D02*
X130535714Y-76892914D01*
X130535714Y-76892914D02*
X130583333Y-77083390D01*
X130583333Y-77083390D02*
X130583333Y-77226247D01*
X130583333Y-77226247D02*
X130535714Y-77416723D01*
X130535714Y-77416723D02*
X130488095Y-77511961D01*
X130488095Y-77511961D02*
X130392857Y-77607200D01*
X130392857Y-77607200D02*
X130250000Y-77654819D01*
X130250000Y-77654819D02*
X130011905Y-77654819D01*
X130964286Y-76750057D02*
X131011905Y-76702438D01*
X131011905Y-76702438D02*
X131107143Y-76654819D01*
X131107143Y-76654819D02*
X131345238Y-76654819D01*
X131345238Y-76654819D02*
X131440476Y-76702438D01*
X131440476Y-76702438D02*
X131488095Y-76750057D01*
X131488095Y-76750057D02*
X131535714Y-76845295D01*
X131535714Y-76845295D02*
X131535714Y-76940533D01*
X131535714Y-76940533D02*
X131488095Y-77083390D01*
X131488095Y-77083390D02*
X130916667Y-77654819D01*
X130916667Y-77654819D02*
X131535714Y-77654819D01*
X118771666Y-94849819D02*
X118771666Y-95564104D01*
X118771666Y-95564104D02*
X118724047Y-95706961D01*
X118724047Y-95706961D02*
X118628809Y-95802200D01*
X118628809Y-95802200D02*
X118485952Y-95849819D01*
X118485952Y-95849819D02*
X118390714Y-95849819D01*
X119152619Y-94849819D02*
X119771666Y-94849819D01*
X119771666Y-94849819D02*
X119438333Y-95230771D01*
X119438333Y-95230771D02*
X119581190Y-95230771D01*
X119581190Y-95230771D02*
X119676428Y-95278390D01*
X119676428Y-95278390D02*
X119724047Y-95326009D01*
X119724047Y-95326009D02*
X119771666Y-95421247D01*
X119771666Y-95421247D02*
X119771666Y-95659342D01*
X119771666Y-95659342D02*
X119724047Y-95754580D01*
X119724047Y-95754580D02*
X119676428Y-95802200D01*
X119676428Y-95802200D02*
X119581190Y-95849819D01*
X119581190Y-95849819D02*
X119295476Y-95849819D01*
X119295476Y-95849819D02*
X119200238Y-95802200D01*
X119200238Y-95802200D02*
X119152619Y-95754580D01*
X112854819Y-86561904D02*
X113664342Y-86561904D01*
X113664342Y-86561904D02*
X113759580Y-86514285D01*
X113759580Y-86514285D02*
X113807200Y-86466666D01*
X113807200Y-86466666D02*
X113854819Y-86371428D01*
X113854819Y-86371428D02*
X113854819Y-86180952D01*
X113854819Y-86180952D02*
X113807200Y-86085714D01*
X113807200Y-86085714D02*
X113759580Y-86038095D01*
X113759580Y-86038095D02*
X113664342Y-85990476D01*
X113664342Y-85990476D02*
X112854819Y-85990476D01*
X112854819Y-85609523D02*
X112854819Y-84990476D01*
X112854819Y-84990476D02*
X113235771Y-85323809D01*
X113235771Y-85323809D02*
X113235771Y-85180952D01*
X113235771Y-85180952D02*
X113283390Y-85085714D01*
X113283390Y-85085714D02*
X113331009Y-85038095D01*
X113331009Y-85038095D02*
X113426247Y-84990476D01*
X113426247Y-84990476D02*
X113664342Y-84990476D01*
X113664342Y-84990476D02*
X113759580Y-85038095D01*
X113759580Y-85038095D02*
X113807200Y-85085714D01*
X113807200Y-85085714D02*
X113854819Y-85180952D01*
X113854819Y-85180952D02*
X113854819Y-85466666D01*
X113854819Y-85466666D02*
X113807200Y-85561904D01*
X113807200Y-85561904D02*
X113759580Y-85609523D01*
X161389580Y-76666666D02*
X161437200Y-76714285D01*
X161437200Y-76714285D02*
X161484819Y-76857142D01*
X161484819Y-76857142D02*
X161484819Y-76952380D01*
X161484819Y-76952380D02*
X161437200Y-77095237D01*
X161437200Y-77095237D02*
X161341961Y-77190475D01*
X161341961Y-77190475D02*
X161246723Y-77238094D01*
X161246723Y-77238094D02*
X161056247Y-77285713D01*
X161056247Y-77285713D02*
X160913390Y-77285713D01*
X160913390Y-77285713D02*
X160722914Y-77238094D01*
X160722914Y-77238094D02*
X160627676Y-77190475D01*
X160627676Y-77190475D02*
X160532438Y-77095237D01*
X160532438Y-77095237D02*
X160484819Y-76952380D01*
X160484819Y-76952380D02*
X160484819Y-76857142D01*
X160484819Y-76857142D02*
X160532438Y-76714285D01*
X160532438Y-76714285D02*
X160580057Y-76666666D01*
X160818152Y-75809523D02*
X161484819Y-75809523D01*
X160437200Y-76047618D02*
X161151485Y-76285713D01*
X161151485Y-76285713D02*
X161151485Y-75666666D01*
X132324819Y-74866666D02*
X131848628Y-75199999D01*
X132324819Y-75438094D02*
X131324819Y-75438094D01*
X131324819Y-75438094D02*
X131324819Y-75057142D01*
X131324819Y-75057142D02*
X131372438Y-74961904D01*
X131372438Y-74961904D02*
X131420057Y-74914285D01*
X131420057Y-74914285D02*
X131515295Y-74866666D01*
X131515295Y-74866666D02*
X131658152Y-74866666D01*
X131658152Y-74866666D02*
X131753390Y-74914285D01*
X131753390Y-74914285D02*
X131801009Y-74961904D01*
X131801009Y-74961904D02*
X131848628Y-75057142D01*
X131848628Y-75057142D02*
X131848628Y-75438094D01*
X131753390Y-74295237D02*
X131705771Y-74390475D01*
X131705771Y-74390475D02*
X131658152Y-74438094D01*
X131658152Y-74438094D02*
X131562914Y-74485713D01*
X131562914Y-74485713D02*
X131515295Y-74485713D01*
X131515295Y-74485713D02*
X131420057Y-74438094D01*
X131420057Y-74438094D02*
X131372438Y-74390475D01*
X131372438Y-74390475D02*
X131324819Y-74295237D01*
X131324819Y-74295237D02*
X131324819Y-74104761D01*
X131324819Y-74104761D02*
X131372438Y-74009523D01*
X131372438Y-74009523D02*
X131420057Y-73961904D01*
X131420057Y-73961904D02*
X131515295Y-73914285D01*
X131515295Y-73914285D02*
X131562914Y-73914285D01*
X131562914Y-73914285D02*
X131658152Y-73961904D01*
X131658152Y-73961904D02*
X131705771Y-74009523D01*
X131705771Y-74009523D02*
X131753390Y-74104761D01*
X131753390Y-74104761D02*
X131753390Y-74295237D01*
X131753390Y-74295237D02*
X131801009Y-74390475D01*
X131801009Y-74390475D02*
X131848628Y-74438094D01*
X131848628Y-74438094D02*
X131943866Y-74485713D01*
X131943866Y-74485713D02*
X132134342Y-74485713D01*
X132134342Y-74485713D02*
X132229580Y-74438094D01*
X132229580Y-74438094D02*
X132277200Y-74390475D01*
X132277200Y-74390475D02*
X132324819Y-74295237D01*
X132324819Y-74295237D02*
X132324819Y-74104761D01*
X132324819Y-74104761D02*
X132277200Y-74009523D01*
X132277200Y-74009523D02*
X132229580Y-73961904D01*
X132229580Y-73961904D02*
X132134342Y-73914285D01*
X132134342Y-73914285D02*
X131943866Y-73914285D01*
X131943866Y-73914285D02*
X131848628Y-73961904D01*
X131848628Y-73961904D02*
X131801009Y-74009523D01*
X131801009Y-74009523D02*
X131753390Y-74104761D01*
X154033333Y-77489580D02*
X153985714Y-77537200D01*
X153985714Y-77537200D02*
X153842857Y-77584819D01*
X153842857Y-77584819D02*
X153747619Y-77584819D01*
X153747619Y-77584819D02*
X153604762Y-77537200D01*
X153604762Y-77537200D02*
X153509524Y-77441961D01*
X153509524Y-77441961D02*
X153461905Y-77346723D01*
X153461905Y-77346723D02*
X153414286Y-77156247D01*
X153414286Y-77156247D02*
X153414286Y-77013390D01*
X153414286Y-77013390D02*
X153461905Y-76822914D01*
X153461905Y-76822914D02*
X153509524Y-76727676D01*
X153509524Y-76727676D02*
X153604762Y-76632438D01*
X153604762Y-76632438D02*
X153747619Y-76584819D01*
X153747619Y-76584819D02*
X153842857Y-76584819D01*
X153842857Y-76584819D02*
X153985714Y-76632438D01*
X153985714Y-76632438D02*
X154033333Y-76680057D01*
X154414286Y-76680057D02*
X154461905Y-76632438D01*
X154461905Y-76632438D02*
X154557143Y-76584819D01*
X154557143Y-76584819D02*
X154795238Y-76584819D01*
X154795238Y-76584819D02*
X154890476Y-76632438D01*
X154890476Y-76632438D02*
X154938095Y-76680057D01*
X154938095Y-76680057D02*
X154985714Y-76775295D01*
X154985714Y-76775295D02*
X154985714Y-76870533D01*
X154985714Y-76870533D02*
X154938095Y-77013390D01*
X154938095Y-77013390D02*
X154366667Y-77584819D01*
X154366667Y-77584819D02*
X154985714Y-77584819D01*
X146624819Y-74866666D02*
X146148628Y-75199999D01*
X146624819Y-75438094D02*
X145624819Y-75438094D01*
X145624819Y-75438094D02*
X145624819Y-75057142D01*
X145624819Y-75057142D02*
X145672438Y-74961904D01*
X145672438Y-74961904D02*
X145720057Y-74914285D01*
X145720057Y-74914285D02*
X145815295Y-74866666D01*
X145815295Y-74866666D02*
X145958152Y-74866666D01*
X145958152Y-74866666D02*
X146053390Y-74914285D01*
X146053390Y-74914285D02*
X146101009Y-74961904D01*
X146101009Y-74961904D02*
X146148628Y-75057142D01*
X146148628Y-75057142D02*
X146148628Y-75438094D01*
X145624819Y-74009523D02*
X145624819Y-74199999D01*
X145624819Y-74199999D02*
X145672438Y-74295237D01*
X145672438Y-74295237D02*
X145720057Y-74342856D01*
X145720057Y-74342856D02*
X145862914Y-74438094D01*
X145862914Y-74438094D02*
X146053390Y-74485713D01*
X146053390Y-74485713D02*
X146434342Y-74485713D01*
X146434342Y-74485713D02*
X146529580Y-74438094D01*
X146529580Y-74438094D02*
X146577200Y-74390475D01*
X146577200Y-74390475D02*
X146624819Y-74295237D01*
X146624819Y-74295237D02*
X146624819Y-74104761D01*
X146624819Y-74104761D02*
X146577200Y-74009523D01*
X146577200Y-74009523D02*
X146529580Y-73961904D01*
X146529580Y-73961904D02*
X146434342Y-73914285D01*
X146434342Y-73914285D02*
X146196247Y-73914285D01*
X146196247Y-73914285D02*
X146101009Y-73961904D01*
X146101009Y-73961904D02*
X146053390Y-74009523D01*
X146053390Y-74009523D02*
X146005771Y-74104761D01*
X146005771Y-74104761D02*
X146005771Y-74295237D01*
X146005771Y-74295237D02*
X146053390Y-74390475D01*
X146053390Y-74390475D02*
X146101009Y-74438094D01*
X146101009Y-74438094D02*
X146196247Y-74485713D01*
X119761905Y-71284819D02*
X119761905Y-70284819D01*
X119761905Y-70284819D02*
X120000000Y-70284819D01*
X120000000Y-70284819D02*
X120142857Y-70332438D01*
X120142857Y-70332438D02*
X120238095Y-70427676D01*
X120238095Y-70427676D02*
X120285714Y-70522914D01*
X120285714Y-70522914D02*
X120333333Y-70713390D01*
X120333333Y-70713390D02*
X120333333Y-70856247D01*
X120333333Y-70856247D02*
X120285714Y-71046723D01*
X120285714Y-71046723D02*
X120238095Y-71141961D01*
X120238095Y-71141961D02*
X120142857Y-71237200D01*
X120142857Y-71237200D02*
X120000000Y-71284819D01*
X120000000Y-71284819D02*
X119761905Y-71284819D01*
X120666667Y-70284819D02*
X121285714Y-70284819D01*
X121285714Y-70284819D02*
X120952381Y-70665771D01*
X120952381Y-70665771D02*
X121095238Y-70665771D01*
X121095238Y-70665771D02*
X121190476Y-70713390D01*
X121190476Y-70713390D02*
X121238095Y-70761009D01*
X121238095Y-70761009D02*
X121285714Y-70856247D01*
X121285714Y-70856247D02*
X121285714Y-71094342D01*
X121285714Y-71094342D02*
X121238095Y-71189580D01*
X121238095Y-71189580D02*
X121190476Y-71237200D01*
X121190476Y-71237200D02*
X121095238Y-71284819D01*
X121095238Y-71284819D02*
X120809524Y-71284819D01*
X120809524Y-71284819D02*
X120714286Y-71237200D01*
X120714286Y-71237200D02*
X120666667Y-71189580D01*
X157633333Y-81724819D02*
X157300000Y-81248628D01*
X157061905Y-81724819D02*
X157061905Y-80724819D01*
X157061905Y-80724819D02*
X157442857Y-80724819D01*
X157442857Y-80724819D02*
X157538095Y-80772438D01*
X157538095Y-80772438D02*
X157585714Y-80820057D01*
X157585714Y-80820057D02*
X157633333Y-80915295D01*
X157633333Y-80915295D02*
X157633333Y-81058152D01*
X157633333Y-81058152D02*
X157585714Y-81153390D01*
X157585714Y-81153390D02*
X157538095Y-81201009D01*
X157538095Y-81201009D02*
X157442857Y-81248628D01*
X157442857Y-81248628D02*
X157061905Y-81248628D01*
X158538095Y-80724819D02*
X158061905Y-80724819D01*
X158061905Y-80724819D02*
X158014286Y-81201009D01*
X158014286Y-81201009D02*
X158061905Y-81153390D01*
X158061905Y-81153390D02*
X158157143Y-81105771D01*
X158157143Y-81105771D02*
X158395238Y-81105771D01*
X158395238Y-81105771D02*
X158490476Y-81153390D01*
X158490476Y-81153390D02*
X158538095Y-81201009D01*
X158538095Y-81201009D02*
X158585714Y-81296247D01*
X158585714Y-81296247D02*
X158585714Y-81534342D01*
X158585714Y-81534342D02*
X158538095Y-81629580D01*
X158538095Y-81629580D02*
X158490476Y-81677200D01*
X158490476Y-81677200D02*
X158395238Y-81724819D01*
X158395238Y-81724819D02*
X158157143Y-81724819D01*
X158157143Y-81724819D02*
X158061905Y-81677200D01*
X158061905Y-81677200D02*
X158014286Y-81629580D01*
X119661905Y-76284819D02*
X119661905Y-75284819D01*
X119661905Y-75284819D02*
X119900000Y-75284819D01*
X119900000Y-75284819D02*
X120042857Y-75332438D01*
X120042857Y-75332438D02*
X120138095Y-75427676D01*
X120138095Y-75427676D02*
X120185714Y-75522914D01*
X120185714Y-75522914D02*
X120233333Y-75713390D01*
X120233333Y-75713390D02*
X120233333Y-75856247D01*
X120233333Y-75856247D02*
X120185714Y-76046723D01*
X120185714Y-76046723D02*
X120138095Y-76141961D01*
X120138095Y-76141961D02*
X120042857Y-76237200D01*
X120042857Y-76237200D02*
X119900000Y-76284819D01*
X119900000Y-76284819D02*
X119661905Y-76284819D01*
X121185714Y-76284819D02*
X120614286Y-76284819D01*
X120900000Y-76284819D02*
X120900000Y-75284819D01*
X120900000Y-75284819D02*
X120804762Y-75427676D01*
X120804762Y-75427676D02*
X120709524Y-75522914D01*
X120709524Y-75522914D02*
X120614286Y-75570533D01*
X140924819Y-74966666D02*
X140448628Y-75299999D01*
X140924819Y-75538094D02*
X139924819Y-75538094D01*
X139924819Y-75538094D02*
X139924819Y-75157142D01*
X139924819Y-75157142D02*
X139972438Y-75061904D01*
X139972438Y-75061904D02*
X140020057Y-75014285D01*
X140020057Y-75014285D02*
X140115295Y-74966666D01*
X140115295Y-74966666D02*
X140258152Y-74966666D01*
X140258152Y-74966666D02*
X140353390Y-75014285D01*
X140353390Y-75014285D02*
X140401009Y-75061904D01*
X140401009Y-75061904D02*
X140448628Y-75157142D01*
X140448628Y-75157142D02*
X140448628Y-75538094D01*
X139924819Y-74633332D02*
X139924819Y-73966666D01*
X139924819Y-73966666D02*
X140924819Y-74395237D01*
X126989580Y-92866666D02*
X127037200Y-92914285D01*
X127037200Y-92914285D02*
X127084819Y-93057142D01*
X127084819Y-93057142D02*
X127084819Y-93152380D01*
X127084819Y-93152380D02*
X127037200Y-93295237D01*
X127037200Y-93295237D02*
X126941961Y-93390475D01*
X126941961Y-93390475D02*
X126846723Y-93438094D01*
X126846723Y-93438094D02*
X126656247Y-93485713D01*
X126656247Y-93485713D02*
X126513390Y-93485713D01*
X126513390Y-93485713D02*
X126322914Y-93438094D01*
X126322914Y-93438094D02*
X126227676Y-93390475D01*
X126227676Y-93390475D02*
X126132438Y-93295237D01*
X126132438Y-93295237D02*
X126084819Y-93152380D01*
X126084819Y-93152380D02*
X126084819Y-93057142D01*
X126084819Y-93057142D02*
X126132438Y-92914285D01*
X126132438Y-92914285D02*
X126180057Y-92866666D01*
X126084819Y-92009523D02*
X126084819Y-92199999D01*
X126084819Y-92199999D02*
X126132438Y-92295237D01*
X126132438Y-92295237D02*
X126180057Y-92342856D01*
X126180057Y-92342856D02*
X126322914Y-92438094D01*
X126322914Y-92438094D02*
X126513390Y-92485713D01*
X126513390Y-92485713D02*
X126894342Y-92485713D01*
X126894342Y-92485713D02*
X126989580Y-92438094D01*
X126989580Y-92438094D02*
X127037200Y-92390475D01*
X127037200Y-92390475D02*
X127084819Y-92295237D01*
X127084819Y-92295237D02*
X127084819Y-92104761D01*
X127084819Y-92104761D02*
X127037200Y-92009523D01*
X127037200Y-92009523D02*
X126989580Y-91961904D01*
X126989580Y-91961904D02*
X126894342Y-91914285D01*
X126894342Y-91914285D02*
X126656247Y-91914285D01*
X126656247Y-91914285D02*
X126561009Y-91961904D01*
X126561009Y-91961904D02*
X126513390Y-92009523D01*
X126513390Y-92009523D02*
X126465771Y-92104761D01*
X126465771Y-92104761D02*
X126465771Y-92295237D01*
X126465771Y-92295237D02*
X126513390Y-92390475D01*
X126513390Y-92390475D02*
X126561009Y-92438094D01*
X126561009Y-92438094D02*
X126656247Y-92485713D01*
X112324819Y-69066666D02*
X111848628Y-69399999D01*
X112324819Y-69638094D02*
X111324819Y-69638094D01*
X111324819Y-69638094D02*
X111324819Y-69257142D01*
X111324819Y-69257142D02*
X111372438Y-69161904D01*
X111372438Y-69161904D02*
X111420057Y-69114285D01*
X111420057Y-69114285D02*
X111515295Y-69066666D01*
X111515295Y-69066666D02*
X111658152Y-69066666D01*
X111658152Y-69066666D02*
X111753390Y-69114285D01*
X111753390Y-69114285D02*
X111801009Y-69161904D01*
X111801009Y-69161904D02*
X111848628Y-69257142D01*
X111848628Y-69257142D02*
X111848628Y-69638094D01*
X112324819Y-68590475D02*
X112324819Y-68399999D01*
X112324819Y-68399999D02*
X112277200Y-68304761D01*
X112277200Y-68304761D02*
X112229580Y-68257142D01*
X112229580Y-68257142D02*
X112086723Y-68161904D01*
X112086723Y-68161904D02*
X111896247Y-68114285D01*
X111896247Y-68114285D02*
X111515295Y-68114285D01*
X111515295Y-68114285D02*
X111420057Y-68161904D01*
X111420057Y-68161904D02*
X111372438Y-68209523D01*
X111372438Y-68209523D02*
X111324819Y-68304761D01*
X111324819Y-68304761D02*
X111324819Y-68495237D01*
X111324819Y-68495237D02*
X111372438Y-68590475D01*
X111372438Y-68590475D02*
X111420057Y-68638094D01*
X111420057Y-68638094D02*
X111515295Y-68685713D01*
X111515295Y-68685713D02*
X111753390Y-68685713D01*
X111753390Y-68685713D02*
X111848628Y-68638094D01*
X111848628Y-68638094D02*
X111896247Y-68590475D01*
X111896247Y-68590475D02*
X111943866Y-68495237D01*
X111943866Y-68495237D02*
X111943866Y-68304761D01*
X111943866Y-68304761D02*
X111896247Y-68209523D01*
X111896247Y-68209523D02*
X111848628Y-68161904D01*
X111848628Y-68161904D02*
X111753390Y-68114285D01*
X157533333Y-71024819D02*
X157200000Y-70548628D01*
X156961905Y-71024819D02*
X156961905Y-70024819D01*
X156961905Y-70024819D02*
X157342857Y-70024819D01*
X157342857Y-70024819D02*
X157438095Y-70072438D01*
X157438095Y-70072438D02*
X157485714Y-70120057D01*
X157485714Y-70120057D02*
X157533333Y-70215295D01*
X157533333Y-70215295D02*
X157533333Y-70358152D01*
X157533333Y-70358152D02*
X157485714Y-70453390D01*
X157485714Y-70453390D02*
X157438095Y-70501009D01*
X157438095Y-70501009D02*
X157342857Y-70548628D01*
X157342857Y-70548628D02*
X156961905Y-70548628D01*
X157914286Y-70120057D02*
X157961905Y-70072438D01*
X157961905Y-70072438D02*
X158057143Y-70024819D01*
X158057143Y-70024819D02*
X158295238Y-70024819D01*
X158295238Y-70024819D02*
X158390476Y-70072438D01*
X158390476Y-70072438D02*
X158438095Y-70120057D01*
X158438095Y-70120057D02*
X158485714Y-70215295D01*
X158485714Y-70215295D02*
X158485714Y-70310533D01*
X158485714Y-70310533D02*
X158438095Y-70453390D01*
X158438095Y-70453390D02*
X157866667Y-71024819D01*
X157866667Y-71024819D02*
X158485714Y-71024819D01*
D11*
%TO.C,J1*%
X144870000Y-90250000D02*
X144870000Y-91250000D01*
X144870000Y-91250000D02*
X145370000Y-90750000D01*
X145370000Y-90750000D02*
X144870000Y-90250000D01*
X145450000Y-86960000D02*
X145450000Y-103700000D01*
X161170000Y-86960000D02*
X145450000Y-86960000D01*
X161180000Y-86960000D02*
X161180000Y-103700000D01*
X161180000Y-103700000D02*
X145450000Y-103700000D01*
%TO.C,R4*%
X156972936Y-68490000D02*
X158427064Y-68490000D01*
X156972936Y-70310000D02*
X158427064Y-70310000D01*
%TO.C,J4*%
X103880000Y-79980000D02*
X111920000Y-79980000D01*
X103880000Y-90720000D02*
X103880000Y-79980000D01*
X107500000Y-80788000D02*
X107500000Y-79980000D01*
X107500000Y-85720000D02*
X107500000Y-84412000D01*
X107500000Y-90720000D02*
X107500000Y-89480000D01*
X108500000Y-80788000D02*
X108500000Y-79980000D01*
X108500000Y-85720000D02*
X108500000Y-84412000D01*
X108500000Y-90720000D02*
X108500000Y-89480000D01*
X109800000Y-82057000D02*
X109800000Y-79980000D01*
X109800000Y-85720000D02*
X109800000Y-83143000D01*
X109800000Y-90720000D02*
X109800000Y-89480000D01*
X111920000Y-79980000D02*
X111920000Y-87300000D01*
X111920000Y-87900000D02*
X111920000Y-90720000D01*
X111920000Y-90720000D02*
X103880000Y-90720000D01*
X112530000Y-88040000D02*
X111920000Y-87600000D01*
X112530000Y-87160000D01*
X112530000Y-88040000D01*
G36*
X112530000Y-88040000D02*
G01*
X111920000Y-87600000D01*
X112530000Y-87160000D01*
X112530000Y-88040000D01*
G37*
%TO.C,C5*%
X118388748Y-76090000D02*
X119811252Y-76090000D01*
X118388748Y-77910000D02*
X119811252Y-77910000D01*
%TO.C,D2*%
X130120000Y-78290000D02*
X131530000Y-78290000D01*
X130120000Y-80610000D02*
X131530000Y-80610000D01*
X131530000Y-78290000D02*
X131530000Y-78950000D01*
X131530000Y-79950000D02*
X131530000Y-80610000D01*
X129750000Y-78310000D02*
X129510000Y-77980000D01*
X129990000Y-77980000D01*
X129750000Y-78310000D01*
G36*
X129750000Y-78310000D02*
G01*
X129510000Y-77980000D01*
X129990000Y-77980000D01*
X129750000Y-78310000D01*
G37*
%TO.C,J3*%
X114525000Y-99975000D02*
X114525000Y-98565000D01*
X115345000Y-95895000D02*
X115345000Y-96045000D01*
X116145000Y-95895000D02*
X115345000Y-95895000D01*
X123685000Y-99975000D02*
X123685000Y-98565000D01*
%TO.C,U3*%
X115475000Y-83175000D02*
X115475000Y-89595000D01*
X115475000Y-89595000D02*
X115745000Y-89595000D01*
X122375000Y-83175000D02*
X122375000Y-89595000D01*
X122375000Y-89595000D02*
X122105000Y-89595000D01*
X115785000Y-91325000D02*
X115315000Y-91665000D01*
X115315000Y-90985000D01*
X115785000Y-91325000D01*
G36*
X115785000Y-91325000D02*
G01*
X115315000Y-91665000D01*
X115315000Y-90985000D01*
X115785000Y-91325000D01*
G37*
%TO.C,C4*%
X158290000Y-75772936D02*
X158290000Y-77227064D01*
X160110000Y-75772936D02*
X160110000Y-77227064D01*
%TO.C,R8*%
X132790000Y-75427064D02*
X132790000Y-73972936D01*
X134610000Y-75427064D02*
X134610000Y-73972936D01*
%TO.C,C2*%
X154927064Y-74390000D02*
X153472936Y-74390000D01*
X154927064Y-76210000D02*
X153472936Y-76210000D01*
%TO.C,R6*%
X147090000Y-75427064D02*
X147090000Y-73972936D01*
X148910000Y-75427064D02*
X148910000Y-73972936D01*
%TO.C,D3*%
X121227064Y-68090000D02*
X119772936Y-68090000D01*
X121227064Y-69910000D02*
X119772936Y-69910000D01*
%TO.C,J2*%
X127440000Y-90150000D02*
X127440000Y-91150000D01*
X127440000Y-91150000D02*
X127940000Y-90650000D01*
X127940000Y-90650000D02*
X127440000Y-90150000D01*
X128020000Y-86860000D02*
X128020000Y-103600000D01*
X143740000Y-86860000D02*
X128020000Y-86860000D01*
X143750000Y-86860000D02*
X143750000Y-103600000D01*
X143750000Y-103600000D02*
X128020000Y-103600000D01*
%TO.C,R5*%
X157072936Y-82190000D02*
X158527064Y-82190000D01*
X157072936Y-84010000D02*
X158527064Y-84010000D01*
%TO.C,D1*%
X121127064Y-73090000D02*
X119672936Y-73090000D01*
X121127064Y-74910000D02*
X119672936Y-74910000D01*
%TO.C,R7*%
X141390000Y-75527064D02*
X141390000Y-74072936D01*
X143210000Y-75527064D02*
X143210000Y-74072936D01*
%TO.C,C6*%
X123890000Y-91972936D02*
X123890000Y-93427064D01*
X125710000Y-91972936D02*
X125710000Y-93427064D01*
%TO.C,R9*%
X112790000Y-69627064D02*
X112790000Y-68172936D01*
X114610000Y-69627064D02*
X114610000Y-68172936D01*
%TO.C,R2*%
X156972936Y-71490000D02*
X158427064Y-71490000D01*
X156972936Y-73310000D02*
X158427064Y-73310000D01*
%TD*%
D12*
%TO.C,J1*%
X147600000Y-97100000D03*
X159030000Y-97100000D03*
%TD*%
%TO.C,J2*%
X130170000Y-97000000D03*
X141600000Y-97000000D03*
%TD*%
M02*
